<?xml version="1.0" encoding="utf-8"?>
<!-- Generator: Adobe Illustrator 26.0.3, SVG Export Plug-In . SVG Version: 6.00 Build 0)  -->
<svg version="1.1" id="Camada_1" xmlns="http://www.w3.org/2000/svg" xmlns:xlink="http://www.w3.org/1999/xlink" x="0px" y="0px"
	 viewBox="0 0 100 100" style="enable-background:new 0 0 100 100;" xml:space="preserve">
<path d="M50,1.07c-27.7,0-50.16,22.46-50.16,50.16c0,22.16,14.37,40.97,34.31,47.6c2.5,0.46,3.31-1.09,3.31-2.41v-9.34
	c-13.95,3.03-16.86-5.92-16.86-5.92c-2.28-5.8-5.57-7.34-5.57-7.34c-4.55-3.11,0.35-3.05,0.35-3.05c5.04,0.35,7.69,5.17,7.69,5.17
	c4.47,7.67,11.73,5.45,14.6,4.17c0.45-3.24,1.75-5.46,3.19-6.71c-11.14-1.28-22.85-5.58-22.85-24.79c0-5.48,1.96-9.95,5.17-13.46
	c-0.52-1.27-2.24-6.37,0.49-13.28c0,0,4.21-1.35,13.8,5.14c4-1.11,8.29-1.67,12.55-1.69c4.26,0.02,8.56,0.58,12.57,1.69
	c9.58-6.49,13.78-5.14,13.78-5.14c2.73,6.91,1.01,12.01,0.49,13.28C80.06,38.67,82,43.14,82,48.62c0,19.27-11.73,23.51-22.9,24.75
	c1.8,1.56,3.44,4.61,3.44,9.29v13.77c0,1.33,0.8,2.9,3.35,2.41c19.92-6.64,34.27-25.44,34.27-47.6C100.16,23.53,77.7,1.07,50,1.07z"
	/>
</svg>
