<?xml version="1.0" encoding="utf-8"?>
<!-- Generator: Adobe Illustrator 26.0.3, SVG Export Plug-In . SVG Version: 6.00 Build 0)  -->
<svg version="1.1" id="Camada_1" xmlns="http://www.w3.org/2000/svg" xmlns:xlink="http://www.w3.org/1999/xlink" x="0px" y="0px"
	 viewBox="0 0 100 36.15" style="enable-background:new 0 0 100 36.15;" xml:space="preserve">
<style type="text/css">
	.st0{fill:#495F89;}
</style>
<path class="st0" d="M76.73,7.09c-0.42-0.37-1.06-0.56-1.92-0.56H58.99c-0.82,0-1.44,0.18-1.87,0.54c-0.43,0.36-0.65,0.85-0.65,1.47
	c0,0.6,0.21,1.08,0.62,1.45c0.41,0.36,1.04,0.55,1.89,0.55h5.42v17.33c0,0.99,0.23,1.72,0.7,2.21c0.46,0.49,1.07,0.73,1.81,0.73
	c0.73,0,1.32-0.24,1.78-0.72c0.46-0.48,0.69-1.22,0.69-2.22V10.54h5.42c0.85,0,1.48-0.18,1.91-0.55c0.42-0.37,0.64-0.85,0.64-1.45
	C77.35,7.95,77.14,7.46,76.73,7.09"/>
<path class="st0" d="M18.73,6.13c-0.69,0-1.24,0.23-1.65,0.7c-0.4,0.46-0.61,1.15-0.61,2.07v14.21L6.92,9.04
	C6.65,8.62,6.39,8.22,6.14,7.85C5.89,7.46,5.64,7.16,5.4,6.92C5.16,6.68,4.88,6.49,4.56,6.34c-0.31-0.14-0.7-0.21-1.15-0.21
	c-0.57,0-1.1,0.16-1.59,0.46C1.33,6.91,0.98,7.31,0.77,7.8C0.59,8.24,0.5,8.85,0.5,9.64v18.41c0,0.9,0.21,1.59,0.64,2.06
	c0.42,0.47,0.99,0.71,1.69,0.71c0.68,0,1.24-0.23,1.68-0.7c0.43-0.47,0.65-1.16,0.65-2.07V14.07l9.32,13.9
	c0.27,0.38,0.54,0.75,0.81,1.11c0.27,0.37,0.55,0.69,0.87,0.96c0.31,0.27,0.65,0.47,1,0.59c0.36,0.13,0.76,0.19,1.21,0.19
	c1.78,0,2.67-1.05,2.67-3.14V8.9c0-0.92-0.21-1.62-0.62-2.08C20.01,6.36,19.44,6.13,18.73,6.13"/>
<path class="st0" d="M31.66,9.06c0-0.49-0.06-0.91-0.17-1.28c0-2.75-3.16-4.01-4.91-3.91c-1.69,0.1-3.12,1.19-4.27,3.25l4.05,2.2
	c0.13-0.23,0.24-0.41,0.34-0.54c-0.01,0.09-0.01,0.18-0.01,0.27v18.81c0,0.21,0.01,0.41,0.04,0.6c0,2.86,1.16,3.82,3.57,3.92
	c0.05,0,0.1,0,0.15,0c2.34,0,3.57-2.53,3.98-3.37l-2.76-1.32V9.06z"/>
<path class="st0" d="M98.27,20.2c-0.44-0.83-1.05-1.52-1.84-2.06c-0.79-0.54-1.74-1.01-2.86-1.38c-1.12-0.38-2.38-0.73-3.76-1.05
	c-1.1-0.27-1.9-0.48-2.38-0.62c-0.48-0.14-0.95-0.34-1.42-0.59c-0.47-0.25-0.84-0.55-1.11-0.9c-0.27-0.35-0.4-0.76-0.4-1.24
	c0-0.77,0.4-1.43,1.18-1.98c0.78-0.55,1.82-0.82,3.1-0.82c1.39,0,2.39,0.25,3.01,0.76c0.63,0.51,1.16,1.21,1.61,2.11
	c0.34,0.63,0.66,1.08,0.96,1.36c0.3,0.27,0.73,0.41,1.3,0.41c0.62,0,1.15-0.23,1.57-0.69c0.42-0.46,0.63-0.98,0.63-1.56
	c0-0.63-0.17-1.28-0.5-1.94c-0.34-0.66-0.87-1.29-1.59-1.89c-0.73-0.6-1.64-1.08-2.74-1.45c-1.1-0.36-2.41-0.54-3.91-0.54
	c-1.88,0-3.53,0.27-4.92,0.82c-1.4,0.55-2.46,1.33-3.2,2.35c-0.74,1.02-1.1,2.19-1.1,3.5c0,1.38,0.35,2.54,1.05,3.46
	c0.7,0.93,1.64,1.66,2.83,2.2c1.18,0.53,2.66,1.01,4.42,1.41c1.31,0.29,2.37,0.57,3.15,0.83c0.79,0.26,1.44,0.64,1.93,1.13
	c0.5,0.49,0.74,1.14,0.74,1.93c0,1-0.46,1.83-1.38,2.5c-0.92,0.67-2.12,1-3.59,1c-1.07,0-1.94-0.17-2.6-0.49
	c-0.66-0.33-1.17-0.76-1.53-1.27c-0.36-0.51-0.7-1.15-1.01-1.9c-0.26-0.65-0.57-1.13-0.93-1.45c-0.36-0.33-0.8-0.49-1.33-0.49
	c-0.65,0-1.18,0.21-1.59,0.62c-0.42,0.42-0.63,0.92-0.63,1.51c0,1.01,0.35,2.05,1.05,3.12c0.7,1.07,1.6,1.92,2.71,2.56
	c1.57,0.88,3.57,1.33,5.99,1.33c2.02,0,3.77-0.32,5.24-0.97c1.47-0.65,2.59-1.55,3.35-2.7c0.77-1.15,1.15-2.45,1.15-3.88
	C98.94,22.05,98.71,21.03,98.27,20.2"/>
<path class="st0" d="M51.06,10.64c-0.3-0.77-0.55-1.38-0.74-1.85c-0.19-0.46-0.43-0.9-0.72-1.3c-0.29-0.4-0.66-0.73-1.12-0.98
	c-0.46-0.26-1.04-0.38-1.74-0.38c-0.68,0-1.25,0.13-1.71,0.38c-0.46,0.26-0.83,0.59-1.12,1c-0.29,0.41-0.56,0.93-0.81,1.56
	c-0.25,0.62-0.46,1.16-0.65,1.6l-6.27,15.5c-0.26,0.62-0.44,1.1-0.55,1.45c-0.11,0.34-0.17,0.68-0.17,1.01
	c0,0.56,0.24,1.07,0.72,1.51c0.48,0.44,1.03,0.67,1.66,0.67c0.74,0,1.27-0.21,1.59-0.63c0.33-0.42,0.71-1.22,1.17-2.42l1.17-3.06
	h9.98l1.17,3c0.16,0.37,0.34,0.79,0.56,1.28c0.22,0.48,0.42,0.84,0.61,1.07c0.19,0.23,0.43,0.42,0.7,0.55
	c0.28,0.14,0.62,0.21,1.01,0.21c0.67,0,1.24-0.23,1.72-0.69c0.47-0.46,0.71-0.97,0.71-1.52c0-0.53-0.25-1.38-0.75-2.56L51.06,10.64z
	 M43.08,21.08l3.63-9.84l3.7,9.84H43.08z"/>
</svg>
