<svg id="Camada_1" data-name="Camada 1" xmlns="http://www.w3.org/2000/svg" viewBox="0 0 98.99 96.33"><defs><style>.cls-1{fill:#495f89;}.cls-2{fill:#231f20;}.cls-3{fill:#fff;}.cls-4{fill:#e7e8e9;}</style></defs><path class="cls-1" d="M78.2,37a.76.76,0,0,0,.53.41,1.16,1.16,0,0,0,.84-.14,1.11,1.11,0,0,0,.61-.57.73.73,0,0,0,0-.66.79.79,0,0,0-.54-.41,1.17,1.17,0,0,0-.83.13,1.18,1.18,0,0,0-.62.58.76.76,0,0,0,0,.66" transform="translate(-0.8 -1.39)"/><path class="cls-1" d="M30.1,26.24a1,1,0,0,0-.57-.32.62.62,0,0,0-.51.15.6.6,0,0,0-.24.49.83.83,0,0,0,.25.57Z" transform="translate(-0.8 -1.39)"/><path class="cls-1" d="M25,32a1.18,1.18,0,0,0,.79.29.77.77,0,0,0,.61-.3.74.74,0,0,0,.16-.64,1.42,1.42,0,0,0-1.28-1,.77.77,0,0,0-.6.3.74.74,0,0,0-.16.64A1.13,1.13,0,0,0,25,32" transform="translate(-0.8 -1.39)"/><path class="cls-1" d="M81.57,47.16a1.22,1.22,0,0,0,.82.14,1.35,1.35,0,0,0,.79-.32.69.69,0,0,0,.19-.59.65.65,0,0,0-.32-.51,1.25,1.25,0,0,0-.83-.11,1.32,1.32,0,0,0-.8.3.7.7,0,0,0-.19.56.73.73,0,0,0,.34.53" transform="translate(-0.8 -1.39)"/><path class="cls-1" d="M80.82,43.13a1.24,1.24,0,0,0,.86,0,1.19,1.19,0,0,0,.71-.45.75.75,0,0,0,.1-.65.8.8,0,0,0-.44-.51,1.48,1.48,0,0,0-1.57.43.78.78,0,0,0-.1.66.76.76,0,0,0,.44.5" transform="translate(-0.8 -1.39)"/><path class="cls-1" d="M23.38,35.76a.44.44,0,0,0,.37,0,.49.49,0,0,0,.31-.24.77.77,0,0,0,.1-.5.6.6,0,0,0-.16-.34,2.21,2.21,0,0,0-.38-.25l-.17-.09a3.15,3.15,0,0,1-.16.55,1.9,1.9,0,0,0-.11.52.38.38,0,0,0,.2.31" transform="translate(-0.8 -1.39)"/><path class="cls-1" d="M56.89,80.81a.83.83,0,0,0,.35.54.64.64,0,0,0,.52.1.68.68,0,0,0,.45-.32.89.89,0,0,0,0-.63Z" transform="translate(-0.8 -1.39)"/><path class="cls-1" d="M71.09,26.07l1.06.9a.86.86,0,0,0,.25-.6.6.6,0,0,0-.23-.47.68.68,0,0,0-.53-.16.92.92,0,0,0-.55.33" transform="translate(-0.8 -1.39)"/><path class="cls-1" d="M58.28,21.34a.85.85,0,0,0,.52,0,.66.66,0,0,0,.3-.24,1.83,1.83,0,0,0,.16-.42l.05-.17c-.13,0-.32,0-.59,0a2.11,2.11,0,0,0-.54,0,.41.41,0,0,0-.27.26.45.45,0,0,0,.05.36.5.5,0,0,0,.32.24" transform="translate(-0.8 -1.39)"/><path class="cls-1" d="M18.91,50.84a1.27,1.27,0,0,0,.82-.22A.76.76,0,0,0,20,50a.74.74,0,0,0-.27-.61,1.24,1.24,0,0,0-.81-.26,1.22,1.22,0,0,0-.81.22.8.8,0,0,0-.3.6.77.77,0,0,0,.27.61,1.19,1.19,0,0,0,.81.26" transform="translate(-0.8 -1.39)"/><polygon class="cls-1" points="34.6 21.47 33.1 20.27 33.44 22.12 34.6 21.47"/><path class="cls-1" d="M50.25,19.6a.38.38,0,0,0-.19.32.45.45,0,0,0,.14.34.57.57,0,0,0,.37.15.91.91,0,0,0,.49-.15.51.51,0,0,0,.23-.3,1.62,1.62,0,0,0,.06-.44v-.19a4.93,4.93,0,0,1-.58.13,1.72,1.72,0,0,0-.52.14" transform="translate(-0.8 -1.39)"/><path class="cls-1" d="M61.94,78.32a.71.71,0,0,0-.72-.14.66.66,0,0,0-.43.43,1.19,1.19,0,0,0,.05.84,1.4,1.4,0,0,0,.5.75.74.74,0,0,0,1.07-.36,1.16,1.16,0,0,0,0-.81,1.57,1.57,0,0,0-.42-.71" transform="translate(-0.8 -1.39)"/><path class="cls-1" d="M54.21,21.23a2.72,2.72,0,0,0,.43.09,2.3,2.3,0,0,0,.36,0,1.38,1.38,0,0,0-.39-.11,2.67,2.67,0,0,0-.4,0" transform="translate(-0.8 -1.39)"/><path class="cls-1" d="M20.53,42.91a.49.49,0,0,0,.37,0,.48.48,0,0,0,.24-.31.72.72,0,0,0,0-.5.54.54,0,0,0-.24-.29,1.55,1.55,0,0,0-.43-.16l-.18-.05a4.18,4.18,0,0,1,0,.57,1.58,1.58,0,0,0,0,.53.41.41,0,0,0,.27.26" transform="translate(-0.8 -1.39)"/><path class="cls-1" d="M22.89,39.33a1.52,1.52,0,0,0,.2-.38,1.67,1.67,0,0,0,.11-.34A1.3,1.3,0,0,0,23,39a1.7,1.7,0,0,0-.1.37" transform="translate(-0.8 -1.39)"/><path class="cls-1" d="M62.38,22.57a.81.81,0,0,0,.68,0,1.41,1.41,0,0,0,.6-1.47.8.8,0,0,0-.47-.48.85.85,0,0,0-.68,0,1.17,1.17,0,0,0-.54.64,1.11,1.11,0,0,0-.06.83.77.77,0,0,0,.47.48" transform="translate(-0.8 -1.39)"/><path class="cls-1" d="M42.29,20.74a.37.37,0,0,0-.08.36.43.43,0,0,0,.23.28.54.54,0,0,0,.4,0,.79.79,0,0,0,.42-.28.62.62,0,0,0,.14-.35,2,2,0,0,0-.09-.44l-.05-.18a5.84,5.84,0,0,1-.52.29,2,2,0,0,0-.45.29" transform="translate(-0.8 -1.39)"/><path class="cls-1" d="M27.29,69.86a1.26,1.26,0,0,0-.79.34,1.12,1.12,0,0,0-.44.69.74.74,0,0,0,.18.64.86.86,0,0,0,.62.28,1.45,1.45,0,0,0,1.24-1,.77.77,0,0,0-.19-.64.8.8,0,0,0-.62-.28" transform="translate(-0.8 -1.39)"/><path class="cls-1" d="M69.43,74.68a.37.37,0,0,0,0-.37.45.45,0,0,0-.32-.19.53.53,0,0,0-.39.1.76.76,0,0,0-.3.4.62.62,0,0,0,0,.38,1.43,1.43,0,0,0,.24.38l.1.15c.08-.1.21-.24.39-.43a1.87,1.87,0,0,0,.32-.42" transform="translate(-0.8 -1.39)"/><path class="cls-1" d="M80.51,61.75,79.93,63a1,1,0,0,0,.66.06.64.64,0,0,0,.39-.35.6.6,0,0,0,0-.54.92.92,0,0,0-.48-.42" transform="translate(-0.8 -1.39)"/><path class="cls-1" d="M87,80.32a1.65,1.65,0,0,0,.5-1.18A1.63,1.63,0,0,0,87,78l-7.4-7.2.31-.41a35.17,35.17,0,0,0,6.45-15.14l.08-.49H96.87A1.71,1.71,0,0,0,98.6,53v-7a1.71,1.71,0,0,0-1.73-1.68H86.43l-.08-.49A35.12,35.12,0,0,0,79.9,28.77l-.31-.41,7.4-7.2a1.64,1.64,0,0,0,0-2.36l-5.07-4.93a1.76,1.76,0,0,0-2.45,0l-7.38,7.19-.41-.29a37.06,37.06,0,0,0-15.57-6.28l-.5-.08V4.24a1.71,1.71,0,0,0-1.73-1.67H46.71A1.71,1.71,0,0,0,45,4.24V14.41l-.5.08a37.06,37.06,0,0,0-15.57,6.28l-.41.29-7.38-7.19a1.76,1.76,0,0,0-2.45,0L13.6,18.8a1.64,1.64,0,0,0,0,2.36l7.4,7.2-.31.41a35.12,35.12,0,0,0-6.45,15.14l-.08.49H3.72A1.71,1.71,0,0,0,2,46.08v7a1.71,1.71,0,0,0,1.73,1.68H14.16l.08.49a35.12,35.12,0,0,0,6.45,15.14l.31.41L13.6,78a1.63,1.63,0,0,0-.5,1.18,1.65,1.65,0,0,0,.5,1.18l5.07,4.93a1.76,1.76,0,0,0,2.45,0l7.38-7.19.41.29a37.06,37.06,0,0,0,15.57,6.28l.5.08V94.88a1.71,1.71,0,0,0,1.73,1.67h7.17a1.71,1.71,0,0,0,1.73-1.67V84.71l.5-.08a37.06,37.06,0,0,0,15.57-6.28l.41-.29,7.38,7.19a1.76,1.76,0,0,0,2.45,0ZM81.67,63a1.56,1.56,0,0,1-1,.9A2.4,2.4,0,0,1,79,63.6l1-2.1a1,1,0,0,0-.69,0,.69.69,0,0,0-.44.38.57.57,0,0,0,0,.38.75.75,0,0,0,.26.36l-.53.77a1.52,1.52,0,0,1-.48-.82,1.59,1.59,0,0,1,.15-1,1.62,1.62,0,0,1,1.12-1,2.16,2.16,0,0,1,1.27.18,2,2,0,0,1,1.08,1,1.46,1.46,0,0,1,0,1.24M79.94,45.21h.11v1a.41.41,0,0,0-.24.16.65.65,0,0,0,0,.42,1.05,1.05,0,0,0,.18.52.47.47,0,0,0,.26.15,1.25,1.25,0,0,0,.43,0l.52-.06a1.26,1.26,0,0,1-.24-2.13,2.08,2.08,0,0,1,1.14-.47,2,2,0,0,1,1.41.26,1.34,1.34,0,0,1,.6,1,1.22,1.22,0,0,1-.44,1.12l.5-.06.11.85-3.18.38a3.37,3.37,0,0,1-.94,0,1.29,1.29,0,0,1-.53-.23,1.23,1.23,0,0,1-.33-.45,2.33,2.33,0,0,1-.2-.75,1.88,1.88,0,0,1,.15-1.28,1,1,0,0,1,.74-.46M79.6,41.9a1.47,1.47,0,0,1,.44-.81A2.27,2.27,0,0,1,81,40.6a2,2,0,0,1,.94,0,1.6,1.6,0,0,1,.83.44,1.88,1.88,0,0,1,.48.82,1.69,1.69,0,0,1-.15,1.38,1.78,1.78,0,0,1-1.14.84,1.89,1.89,0,0,1-1.43-.14,1.68,1.68,0,0,1-.87-1.09,1.94,1.94,0,0,1,0-.93m4,15.11a2.27,2.27,0,0,1-.36.86,1,1,0,0,1-.47.33,2.12,2.12,0,0,1-.85-.07l-1.07-.25a3.41,3.41,0,0,0-.68-.11,1.91,1.91,0,0,0-.51,0l.21-.88.29,0h.12a1.42,1.42,0,0,1-.23-.56,1.47,1.47,0,0,1,0-.59,1.23,1.23,0,0,1,.49-.75,1,1,0,0,1,.81-.13,1,1,0,0,1,.49.25.92.92,0,0,1,.26.46,3.27,3.27,0,0,1,.05.76,5.08,5.08,0,0,0,0,.92l.1,0a.5.5,0,0,0,.41,0,.78.78,0,0,0,.23-.45.55.55,0,0,0-.3-.69l.34-.78a1.32,1.32,0,0,1,.64.64,1.75,1.75,0,0,1,0,1m.61-4.09a1.64,1.64,0,0,1-.36,1,1.56,1.56,0,0,1-.89.47l-.09-.91a.71.71,0,0,0,.43-.18.62.62,0,0,0,.17-.41.67.67,0,0,0-.2-.56,1.22,1.22,0,0,0-.8-.26,1.39,1.39,0,0,0-.91.14.68.68,0,0,0-.3.53.56.56,0,0,0,.12.44.88.88,0,0,0,.5.27l-.22.89a1.71,1.71,0,0,1-.93-.61,1.69,1.69,0,0,1-.24-1.09,1.59,1.59,0,0,1,.59-1.17,2.32,2.32,0,0,1,2.74.2,1.6,1.6,0,0,1,.39,1.26m-3.5-2.68,0-.92,3.56-.1,0,.92Zm4.91-.14-.87,0,0-.91.88,0Zm-.75-7.6-1.22-.6-.16-.56,1.1.18Zm-1.31-3.87L79,40.4l-.35-.86,4.58-1.76Zm-3.34-3.7a1.93,1.93,0,0,1,.63.72A1.69,1.69,0,0,1,81,37a1.79,1.79,0,0,1-1,1,1.89,1.89,0,0,1-1.43.14,1.78,1.78,0,0,1-1.07-.91,2,2,0,0,1-.22-.91,1.43,1.43,0,0,1,.28-.87,2.13,2.13,0,0,1,.82-.66,2,2,0,0,1,.92-.2,1.68,1.68,0,0,1,.9.28M77.94,31.1l-.43.3a1.47,1.47,0,0,1,1.18.59,1.44,1.44,0,0,1,.24.52.82.82,0,0,1,0,.47.91.91,0,0,1-.21.37,2.39,2.39,0,0,1-.48.4L76.43,35l-.55-.75,1.48-1a2.52,2.52,0,0,0,.57-.47.54.54,0,0,0,.1-.3.6.6,0,0,0-.12-.32.76.76,0,0,0-.37-.27.66.66,0,0,0-.44,0,2.89,2.89,0,0,0-.71.4l-1.31.92-.55-.75,2.9-2Zm-3.31-3.31a1.65,1.65,0,0,1,1.19.62,1.62,1.62,0,0,1,.46.94,1.49,1.49,0,0,1-.28.95l-.73-.58a.59.59,0,0,0,.17-.42.64.64,0,0,0-.17-.41.72.72,0,0,0-.55-.26A1.27,1.27,0,0,0,74,29a1.44,1.44,0,0,0-.54.73.71.71,0,0,0,.58.82,1,1,0,0,0,.55-.16l.49.78a1.71,1.71,0,0,1-1.09.21,1.68,1.68,0,0,1-1-.6,1.6,1.6,0,0,1-.44-1.23,1.9,1.9,0,0,1,.74-1.22,2,2,0,0,1,1.35-.53m-2-2.46a1.57,1.57,0,0,1,.61,1.19A2.27,2.27,0,0,1,72.48,28L70.7,26.48a.9.9,0,0,0-.25.63.65.65,0,0,0,.25.51.53.53,0,0,0,.36.15.73.73,0,0,0,.43-.14l.6.72a1.48,1.48,0,0,1-.94.21,1.64,1.64,0,0,1-.92-.42,1.54,1.54,0,0,1-.64-1.33A2.27,2.27,0,0,1,71.39,25a1.53,1.53,0,0,1,1.21.37M68.05,21.6l.45-.68,3.29,2-.45.68-1.22-.76-2.21,3.35-.84-.52,2.21-3.35Zm-7-.73a1.82,1.82,0,0,1,.56-.74,1.52,1.52,0,0,1,.85-.37,1.93,1.93,0,0,1,1,.13,1.75,1.75,0,0,1,1,.95,1.73,1.73,0,0,1,0,1.39,1.76,1.76,0,0,1-1,1,1.79,1.79,0,0,1-1.42,0,2,2,0,0,1-.78-.54,1.43,1.43,0,0,1-.39-.83,2,2,0,0,1,.17-1m-2.71-3.11a.77.77,0,0,1,.32-.46.55.55,0,0,1,.47-.06,1,1,0,0,1,.21.08l.31.24a1.17,1.17,0,0,0,.37.22.25.25,0,0,0,.19,0,.38.38,0,0,0,.15-.19l.42.11a1,1,0,0,1-.34.57.53.53,0,0,1-.47.07l-.21-.08L59.47,18a1.24,1.24,0,0,0-.4-.23.22.22,0,0,0-.18,0,.34.34,0,0,0-.12.2l-.42-.12a.61.61,0,0,0,0-.11M57,20.58a1,1,0,0,1,.78-.69,3.33,3.33,0,0,1,.78,0,5.47,5.47,0,0,0,.94,0l0-.09a.51.51,0,0,0,0-.41.84.84,0,0,0-.46-.24.64.64,0,0,0-.41,0,.65.65,0,0,0-.31.26l-.78-.37a1.38,1.38,0,0,1,.69-.59,1.94,1.94,0,0,1,1.08.05,2.23,2.23,0,0,1,.86.39.92.92,0,0,1,.31.48,1.85,1.85,0,0,1-.11.82l-.32,1a5.86,5.86,0,0,0-.15.66,2.11,2.11,0,0,0,0,.49l-.9-.25c0-.06,0-.16,0-.28a.39.39,0,0,0,0-.11,1.69,1.69,0,0,1-.59.19,1.52,1.52,0,0,1-.6,0,1.24,1.24,0,0,1-.75-.51,1,1,0,0,1-.09-.8m-3.81-1.26a1.83,1.83,0,0,1,.63-1.27,1.71,1.71,0,0,1,1.31-.33,1.67,1.67,0,0,1,1,.4,1.46,1.46,0,0,1,.45.89l-.94,0a.67.67,0,0,0-.16-.43.64.64,0,0,0-.42-.19.7.7,0,0,0-.58.17,1.2,1.2,0,0,0-.31.76,1.37,1.37,0,0,0,.1.89.73.73,0,0,0,1,.23.92.92,0,0,0,.3-.48l.9.26a1.62,1.62,0,0,1-.66.87,1.57,1.57,0,0,1-.77.2.71.71,0,0,1,.22.15.54.54,0,0,1,.16.46.56.56,0,0,1-.3.43,1.58,1.58,0,0,1-1,.14,2.71,2.71,0,0,1-.64-.14l0-.38a6,6,0,0,0,.63.11.73.73,0,0,0,.46-.05.22.22,0,0,0,.13-.19.21.21,0,0,0-.08-.2.53.53,0,0,0-.31-.12,2.17,2.17,0,0,0-.44,0l.12-.31.18,0a1.57,1.57,0,0,1-.75-.53,1.88,1.88,0,0,1-.29-1.38m-1.92-1.06a.85.85,0,0,0-.51-.13.7.7,0,0,0-.39.09.61.61,0,0,0-.24.34l-.85-.18a1.31,1.31,0,0,1,.52-.73,1.83,1.83,0,0,1,1-.22,2.35,2.35,0,0,1,.94.17,1,1,0,0,1,.42.38,1.77,1.77,0,0,1,.1.83l0,1.07a4.18,4.18,0,0,0,0,.67,1.87,1.87,0,0,0,.16.47l-.94,0c0-.06-.05-.15-.08-.27a.39.39,0,0,0,0-.11,1.67,1.67,0,0,1-.53.33,1.61,1.61,0,0,1-.58.1,1.22,1.22,0,0,1-.86-.32,1,1,0,0,1-.29-.74.85.85,0,0,1,.16-.52.92.92,0,0,1,.41-.34,3.08,3.08,0,0,1,.76-.19,5.94,5.94,0,0,0,.92-.2v-.09a.5.5,0,0,0-.12-.39m-2.88,2.82-.94.06-.27-3.46.94-.07ZM48,16.3l.06.85-.94.07-.06-.85Zm-2.42.24.89,4.71-.93.17-.88-4.72ZM41.24,19a1.77,1.77,0,0,1,.94-.51,2.3,2.3,0,0,1,.94-.11,1,1,0,0,1,.53.24,2,2,0,0,1,.35.76l.28,1a4.24,4.24,0,0,0,.23.64,2.35,2.35,0,0,0,.29.4l-.9.25c0-.05-.09-.13-.16-.24l-.06-.09a1.54,1.54,0,0,1-.4.47,1.46,1.46,0,0,1-.53.26,1.22,1.22,0,0,1-.91-.05,1,1,0,0,1-.51-.62.92.92,0,0,1,.28-1,3.23,3.23,0,0,1,.66-.4,5.78,5.78,0,0,0,.82-.46l0-.09a.45.45,0,0,0-.23-.33.85.85,0,0,0-.52,0,.69.69,0,0,0-.35.2.63.63,0,0,0-.13.39l-.86.08a1.29,1.29,0,0,1,.27-.85m-3.8,1.14,1.29,1.41.4.48c0-.16,0-.26,0-.31s0-.2,0-.31l0-1.89.9-.34,0,3.73-.8.3L36.52,20.5Zm-3.65.28L38,23.61l-.93.53-.93-.74-1.71,1,.21,1.15-.91.51L32.87,21ZM28.5,25.57a1.65,1.65,0,0,1,1.3-.41,2.36,2.36,0,0,1,1.38.91l-1.79,1.5a1,1,0,0,0,.6.34.79.79,0,0,0,.57-.17.64.64,0,0,0,.2-.33.81.81,0,0,0-.08-.43l.81-.48a1.41,1.41,0,0,1,.08.94,1.87,1.87,0,0,1-2,1.25A2.06,2.06,0,0,1,28.5,28a1.92,1.92,0,0,1-.56-1.32,1.48,1.48,0,0,1,.56-1.12m-4.87,5.52a1.94,1.94,0,0,1,1.63-1.57,1.89,1.89,0,0,1,1.37.41,1.78,1.78,0,0,1,.73,1.21A1.7,1.7,0,0,1,27,32.46a2.17,2.17,0,0,1-.76.58,1.56,1.56,0,0,1-.93.13,2.38,2.38,0,0,1-1-.45,1.88,1.88,0,0,1-.57-.73,1.41,1.41,0,0,1-.12-.9m-1.55,2.12a1,1,0,0,1,.54-.19,2,2,0,0,1,.8.3l.95.54a4.6,4.6,0,0,0,.62.3,1.86,1.86,0,0,0,.5.09L25,35,24.75,35l-.11,0a1.79,1.79,0,0,1,.05.6,1.43,1.43,0,0,1-.19.56,1.17,1.17,0,0,1-.69.58,1,1,0,0,1-1.2-.47.93.93,0,0,1-.12-.52,2.77,2.77,0,0,1,.18-.74,4.48,4.48,0,0,0,.25-.88L22.84,34a.55.55,0,0,0-.41-.08.82.82,0,0,0-.35.38.6.6,0,0,0-.11.38.7.7,0,0,0,.19.36l-.55.65a1.34,1.34,0,0,1-.42-.79,1.71,1.71,0,0,1,.3-1,2.07,2.07,0,0,1,.59-.72m-1.9.54a.83.83,0,0,1,.13-.18,2.44,2.44,0,0,1,.31-.24,1.11,1.11,0,0,0,.31-.3.28.28,0,0,0,0-.18.42.42,0,0,0-.15-.19L21,32.3a1,1,0,0,1,.48.45.5.5,0,0,1,0,.46.75.75,0,0,1-.13.18l-.31.26a1.43,1.43,0,0,0-.33.32.21.21,0,0,0,0,.17.33.33,0,0,0,.17.16l-.21.37-.11-.06a.73.73,0,0,1-.38-.4.5.5,0,0,1,.05-.46m-.55,3.84a1.65,1.65,0,0,1,.65-.83,1.51,1.51,0,0,1,1-.19l-.19.9a.64.64,0,0,0-.46,0,.58.58,0,0,0-.29.34.68.68,0,0,0,0,.59,1.25,1.25,0,0,0,.69.49,1.53,1.53,0,0,0,.91.13.7.7,0,0,0,.45-.42.62.62,0,0,0,0-.46.89.89,0,0,0-.4-.4L22.5,37a1.6,1.6,0,0,1,.69.84,1.34,1.34,0,0,1,0,.77.74.74,0,0,1,.2-.16.59.59,0,0,1,.5,0,.62.62,0,0,1,.36.4,1.51,1.51,0,0,1-.11.93,2.85,2.85,0,0,1-.3.57l-.37-.14a4.71,4.71,0,0,0,.27-.56.68.68,0,0,0,.07-.44.25.25,0,0,0-.15-.18.28.28,0,0,0-.23,0,.5.5,0,0,0-.19.26,1.18,1.18,0,0,0-.1.42l-.28-.2a1.11,1.11,0,0,1,0-.17,1.49,1.49,0,0,1-.72.57,2,2,0,0,1-1.44-.07,1.94,1.94,0,0,1-1.11-.92,1.6,1.6,0,0,1,0-1.32m-1.39,4a2.18,2.18,0,0,1,.41-.84.9.9,0,0,1,.48-.3,2,2,0,0,1,.85.11l1.05.31a4.07,4.07,0,0,0,.68.14,2.2,2.2,0,0,0,.5,0l-.26.88h-.29a.39.39,0,0,0-.11,0,1.6,1.6,0,0,1,.2.58,1.38,1.38,0,0,1-.05.57,1.17,1.17,0,0,1-.52.73,1,1,0,0,1-.82.1,1.15,1.15,0,0,1-.48-.28.94.94,0,0,1-.23-.48,2.71,2.71,0,0,1,0-.76,5.23,5.23,0,0,0,0-.92l-.1,0a.47.47,0,0,0-.41,0,.72.72,0,0,0-.25.44.53.53,0,0,0,.26.7l-.38.76a1.34,1.34,0,0,1-.61-.67,1.75,1.75,0,0,1,0-1m-.93,12.59a1.47,1.47,0,0,1,0-.56.86.86,0,0,1,.24-.42,1.11,1.11,0,0,1,.36-.23,3.75,3.75,0,0,1,.63-.13l2.19-.27.12.91-1.8.22a3,3,0,0,0-.73.15.54.54,0,0,0-.24.23.53.53,0,0,0-.05.33.74.74,0,0,0,.19.41.7.7,0,0,0,.39.22,3.15,3.15,0,0,0,.82,0l1.6-.2.12.91-3.54.45-.11-.85.52-.06a1.4,1.4,0,0,1-.75-1.07m0-7.58,1.89-.42.63-.11-.29-.14-.29-.13-1.72-.89.12-.93L21,45.76l-.11.82-3.72.94Zm.28,2.11A1.8,1.8,0,0,1,19,48.21a1.88,1.88,0,0,1,1.33.53,1.66,1.66,0,0,1,.5,1.29,2,2,0,0,1-.24.91,1.53,1.53,0,0,1-.67.64,2.27,2.27,0,0,1-1.05.2,2,2,0,0,1-.9-.24,1.61,1.61,0,0,1-.66-.66,1.78,1.78,0,0,1-.21-.92,1.73,1.73,0,0,1,.56-1.28m-1,9,4.8-1.07.22.94-4.79,1.08Zm3.06,3.84a2.32,2.32,0,0,1,1.34-1l.86,2.14a.93.93,0,0,0,.52-.44.67.67,0,0,0,0-.57.63.63,0,0,0-.25-.3.85.85,0,0,0-.45-.07l-.19-.91a1.54,1.54,0,0,1,.94.25,1.61,1.61,0,0,1,.61.79A1.52,1.52,0,0,1,23,62.85a2,2,0,0,1-1,.75,2,2,0,0,1-1.46.07,1.5,1.5,0,0,1-.9-.88,1.49,1.49,0,0,1,0-1.32m4.48,5.87a2,2,0,0,1-1.41.3,1.39,1.39,0,0,1-.94-.68,1.29,1.29,0,0,1-.09-1.12l-1.54.86-.46-.79L24,63.53l.43.74-.45.25a1.51,1.51,0,0,1,.65.21,1.26,1.26,0,0,1,.43.43,1.3,1.3,0,0,1,.1,1.14,2,2,0,0,1-1,1m3.23,5.29a1.66,1.66,0,0,1-.94-.06,1.86,1.86,0,0,1-.79-.55,1.67,1.67,0,0,1-.47-1.31,1.72,1.72,0,0,1,.67-1.22A1.85,1.85,0,0,1,27.23,69a1.77,1.77,0,0,1,1.26.63,2,2,0,0,1,.44.83,1.49,1.49,0,0,1-.05.91,2.19,2.19,0,0,1-.64.83,2,2,0,0,1-.84.41M29,75.14a1.53,1.53,0,0,1-.6-1.19,2.27,2.27,0,0,1,.73-1.46L30.86,74a.93.93,0,0,0,.26-.62.68.68,0,0,0-.26-.52.58.58,0,0,0-.36-.15.7.7,0,0,0-.42.14l-.61-.72a1.52,1.52,0,0,1,1-.21,1.69,1.69,0,0,1,.92.43A1.56,1.56,0,0,1,32,73.68a2,2,0,0,1-.55,1.12,1.9,1.9,0,0,1-1.26.72A1.54,1.54,0,0,1,29,75.14m1.37,2.6,2.87-3.89.77.54-2.87,3.89Zm5.11,1.09a1.67,1.67,0,0,1-1.34-.2,1.71,1.71,0,0,1-.75-.73,1.44,1.44,0,0,1-.05-1l.88.31a.64.64,0,0,0,0,.45.6.6,0,0,0,.3.33.7.7,0,0,0,.61.07,1.22,1.22,0,0,0,.59-.59,1.42,1.42,0,0,0,.27-.86.68.68,0,0,0-.37-.49A.62.62,0,0,0,35.1,76a.94.94,0,0,0-.48.33l-.72-.59A1.54,1.54,0,0,1,36,75.5a1.61,1.61,0,0,1,.84,1,1.85,1.85,0,0,1-.28,1.38,1.88,1.88,0,0,1-1.1.93m2.36,3-1-.37,1.24-.58.54.21Zm2.86-2.8-.84,2-.87-.34.6-1.48a4,4,0,0,0,.29-.86.48.48,0,0,0-.07-.31.62.62,0,0,0-.3-.21.77.77,0,0,0-.45,0,.65.65,0,0,0-.36.21,3.77,3.77,0,0,0-.42.84l-.56,1.37-.87-.34,1.31-3.23.81.31-.2.49a1.49,1.49,0,0,1,.65-.23,1.3,1.3,0,0,1,.68.09,1.28,1.28,0,0,1,.55.37.91.91,0,0,1,.22.55,1.88,1.88,0,0,1-.17.76m4.16,4.66-.94-.21-1.23-3.57-.75,3.13L41,82.85l1.11-4.66,1,.22,1.21,3.5L45,78.85l.9.2Zm5.42,0a4.63,4.63,0,0,1-.77-.4,6.21,6.21,0,0,1,.06.87l-.59,0a6.6,6.6,0,0,1,.11-.87l-.29.12-.56.21L48,83.05c.25,0,.54-.1.87-.14l-.39-.45-.18-.23.52-.32.42.75c.14-.23.31-.48.49-.74l.5.4-.52.49-.14.12.48.12.37.11Zm2.94-.06a4.46,4.46,0,0,1-.79-.35,5.54,5.54,0,0,1,.1.86l-.59,0a8.65,8.65,0,0,1,.07-.88l-.29.13-.54.25-.2-.58c.25-.06.53-.13.86-.19l-.42-.43-.19-.22.5-.34.47.72c.12-.24.27-.5.44-.77l.52.37c-.16.18-.32.36-.49.52l-.13.13L53,83l.38.09ZM50.7,77.14C35.39,77.14,23,65.06,23,50.17s12.41-27,27.72-27,27.72,12.07,27.72,27-12.42,27-27.72,27M59,81.39a1.54,1.54,0,0,1-1,.73,1.62,1.62,0,0,1-1.34-.22,2.27,2.27,0,0,1-.79-1.44l2.3-.51a.94.94,0,0,0-.37-.57.7.7,0,0,0-.58-.1.58.58,0,0,0-.34.19.72.72,0,0,0-.13.42l-.95.06a1.45,1.45,0,0,1,.38-.88,1.77,1.77,0,0,1,.89-.47,1.65,1.65,0,0,1,1.48.28A2,2,0,0,1,59.15,80,1.92,1.92,0,0,1,59,81.39m4.29-1.32a1.41,1.41,0,0,1-2,.65l.58,1.64-.89.29-1.6-4.52.82-.28.17.48a1.63,1.63,0,0,1,.34-.59,1.53,1.53,0,0,1,.52-.33,1.4,1.4,0,0,1,1.16.12,2,2,0,0,1,.86,1.14,1.85,1.85,0,0,1,0,1.4m2.86.68.37-1.28.53-.26,0,1.07Zm.85-2-.75-1.43a4.1,4.1,0,0,0-.46-.77.46.46,0,0,0-.3-.15.51.51,0,0,0-.35.07.74.74,0,0,0-.33.3.67.67,0,0,0-.08.41,3.81,3.81,0,0,0,.37.86l.69,1.31-.84.42-1.62-3.09.77-.39.25.46a1.34,1.34,0,0,1,.25-.62,1.38,1.38,0,0,1,.52-.44,1.25,1.25,0,0,1,.64-.15.93.93,0,0,1,.58.2,2,2,0,0,1,.47.63l1,2ZM71,76a1.75,1.75,0,0,1-.71.79,2.38,2.38,0,0,1-.85.41.88.88,0,0,1-.57-.06,1.73,1.73,0,0,1-.59-.6l-.63-.87a3.66,3.66,0,0,0-.44-.53,1.84,1.84,0,0,0-.41-.28l.76-.53a1.62,1.62,0,0,1,.23.17l.09.06a1.78,1.78,0,0,1,.22-.57,1.37,1.37,0,0,1,.41-.42,1.2,1.2,0,0,1,.87-.25,1,1,0,0,1,.7.42.92.92,0,0,1,.19.51.78.78,0,0,1-.12.51,3,3,0,0,1-.48.6,5.18,5.18,0,0,0-.61.7l0,.07a.5.5,0,0,0,.34.24.8.8,0,0,0,.48-.19.57.57,0,0,0,.25-.71l.78-.36A1.26,1.26,0,0,1,71,76m4.5-2a2.42,2.42,0,0,1-.57.78,2.09,2.09,0,0,1-1.29.65,1.48,1.48,0,0,1-1.11-.44l.7-.69a.85.85,0,0,0,.57.19.94.94,0,0,0,.57-.3,1.16,1.16,0,0,0,.36-.58.38.38,0,0,0-.1-.32.41.41,0,0,0-.32-.11,2.67,2.67,0,0,0-.88.38,4.81,4.81,0,0,1-1,.48,1.55,1.55,0,0,1-.74,0,1.43,1.43,0,0,1-.68-.42,1.41,1.41,0,0,1-.38-.71,1.36,1.36,0,0,1,.09-.84,2.79,2.79,0,0,1,.65-.85,2.13,2.13,0,0,1,1.33-.66A1.87,1.87,0,0,1,74,71l-.63.72a1.22,1.22,0,0,0-.75-.26,1.11,1.11,0,0,0-.68.33,1.05,1.05,0,0,0-.37.63.54.54,0,0,0,.15.49A.44.44,0,0,0,72,73a.84.84,0,0,0,.4-.09c.12,0,.35-.18.72-.39a2.85,2.85,0,0,1,1.15-.41,1.33,1.33,0,0,1,1,.39,1.29,1.29,0,0,1,.34.64,1.2,1.2,0,0,1-.1.76m3.91-6.75a1.17,1.17,0,0,1-.44.42,1.2,1.2,0,0,1-.58.11,1.63,1.63,0,0,1,.08.64,1.21,1.21,0,0,1-.19.55,1.33,1.33,0,0,1-.49.46,1.07,1.07,0,0,1-.62.09,2.17,2.17,0,0,1-.67-.31L74.6,68l.51-.77,1.71,1.07a1.49,1.49,0,0,0,.63.28.46.46,0,0,0,.39-.23.63.63,0,0,0,.1-.36.72.72,0,0,0-.16-.4,3.08,3.08,0,0,0-.58-.45l-1.44-.89.51-.78,1.64,1a3.1,3.1,0,0,0,.59.31.52.52,0,0,0,.28,0,.49.49,0,0,0,.21-.2.66.66,0,0,0,.12-.38.64.64,0,0,0-.16-.38,2.41,2.41,0,0,0-.57-.45l-1.46-.91.51-.77,3,1.87-.47.71L79.55,66a1.32,1.32,0,0,1-.12,1.2" transform="translate(-0.8 -1.39)"/><path class="cls-1" d="M29.15,74.1a.6.6,0,0,0,.23.47.65.65,0,0,0,.53.17.92.92,0,0,0,.55-.33l-1.05-.9a.9.9,0,0,0-.26.59" transform="translate(-0.8 -1.39)"/><path class="cls-1" d="M23.77,65a1.33,1.33,0,0,0-.83.2,1.38,1.38,0,0,0-.66.62.66.66,0,0,0,0,.61.73.73,0,0,0,.51.35,1.28,1.28,0,0,0,.81-.2,1.73,1.73,0,0,0,.64-.53.69.69,0,0,0,0-.72.68.68,0,0,0-.52-.33" transform="translate(-0.8 -1.39)"/><path class="cls-1" d="M20.7,62.86a.89.89,0,0,0,.64,0l-.51-1.28a.92.92,0,0,0-.5.41.66.66,0,0,0,.37.9" transform="translate(-0.8 -1.39)"/><path class="cls-1" d="M81.56,56.55a1.54,1.54,0,0,0,0-.52.37.37,0,0,0-.28-.25.45.45,0,0,0-.37.07.5.5,0,0,0-.22.32.8.8,0,0,0,0,.5A.59.59,0,0,0,81,57a1.87,1.87,0,0,0,.44.14l.18,0a4.91,4.91,0,0,1,0-.58" transform="translate(-0.8 -1.39)"/><path class="cls-2" d="M87.82,81.16a2.8,2.8,0,0,0,0-4l-6.66-6.48A36.29,36.29,0,0,0,87.44,55.9h9.43A2.89,2.89,0,0,0,99.79,53v-7a2.89,2.89,0,0,0-2.92-2.85H87.44a36.29,36.29,0,0,0-6.28-14.74L87.82,22a2.8,2.8,0,0,0,0-4L82.76,13a3,3,0,0,0-4.13,0L72,19.53A38.37,38.37,0,0,0,56.8,13.41V4.24a2.89,2.89,0,0,0-2.92-2.85H46.71a2.89,2.89,0,0,0-2.92,2.85v9.17a38.37,38.37,0,0,0-15.16,6.12L22,13a3,3,0,0,0-4.13,0L12.77,18a2.8,2.8,0,0,0,0,4l6.66,6.48a36.29,36.29,0,0,0-6.28,14.74H3.72A2.89,2.89,0,0,0,.8,46.07v7A2.89,2.89,0,0,0,3.72,55.9h9.43a36.29,36.29,0,0,0,6.28,14.74l-6.66,6.48a2.8,2.8,0,0,0,0,4l5.06,4.93a3,3,0,0,0,4.13,0l6.67-6.5a38.37,38.37,0,0,0,15.16,6.12v9.17a2.89,2.89,0,0,0,2.92,2.85h7.17a2.89,2.89,0,0,0,2.92-2.85V85.71A38.31,38.31,0,0,0,72,79.59l6.67,6.5a3,3,0,0,0,4.13,0Zm-8.35,4.09-7.38-7.19-.41.29a37.06,37.06,0,0,1-15.57,6.28l-.5.08V94.88a1.71,1.71,0,0,1-1.73,1.67H46.71A1.71,1.71,0,0,1,45,94.88V84.71l-.5-.08a37.06,37.06,0,0,1-15.57-6.28l-.41-.29-7.38,7.19a1.76,1.76,0,0,1-2.45,0L13.6,80.32a1.65,1.65,0,0,1-.5-1.18A1.63,1.63,0,0,1,13.6,78l7.4-7.2-.31-.41a35.12,35.12,0,0,1-6.45-15.14l-.08-.49H3.72A1.71,1.71,0,0,1,2,53v-7A1.71,1.71,0,0,1,3.72,44.4H14.16l.08-.49a35.12,35.12,0,0,1,6.45-15.14l.31-.41-7.4-7.2a1.64,1.64,0,0,1,0-2.36l5.07-4.93a1.76,1.76,0,0,1,2.45,0l7.38,7.18.41-.28a37.06,37.06,0,0,1,15.57-6.28l.5-.08V4.24a1.71,1.71,0,0,1,1.73-1.67h7.17a1.71,1.71,0,0,1,1.73,1.67V14.41l.5.08a37.06,37.06,0,0,1,15.57,6.28l.41.28,7.38-7.18a1.76,1.76,0,0,1,2.45,0L87,18.8a1.64,1.64,0,0,1,0,2.36l-7.4,7.2.31.41a35.12,35.12,0,0,1,6.45,15.14l.08.49H96.87a1.71,1.71,0,0,1,1.73,1.67v7a1.71,1.71,0,0,1-1.73,1.68H86.43l-.08.49A35.12,35.12,0,0,1,79.9,70.35l-.31.41L87,78a1.63,1.63,0,0,1,.5,1.18,1.65,1.65,0,0,1-.5,1.18l-5.07,4.93a1.76,1.76,0,0,1-2.45,0" transform="translate(-0.8 -1.39)"/><path class="cls-3" d="M78.42,50.17c0-14.9-12.41-27-27.72-27S23,35.27,23,50.17s12.41,27,27.72,27,27.72-12.08,27.72-27m-27.72,24C37.05,74.22,26,63.45,26,50.17a23.63,23.63,0,0,1,.46-4.64v-.35h.08a24.87,24.87,0,0,1,48.36,0H75v.33a23.83,23.83,0,0,1,.46,4.66c0,13.28-11.06,24-24.71,24" transform="translate(-0.8 -1.39)"/><polygon class="cls-3" points="45.67 19.86 44.78 15.15 43.86 15.31 44.74 20.02 45.67 19.86"/><polygon class="cls-3" points="20.63 55.17 15.84 56.24 16.06 57.19 20.85 56.11 20.63 55.17"/><path class="cls-3" d="M20.55,63.67A2,2,0,0,0,22,63.6a2,2,0,0,0,1-.75,1.52,1.52,0,0,0,.07-1.46,1.61,1.61,0,0,0-.61-.79,1.54,1.54,0,0,0-.94-.25l.19.91a.85.85,0,0,1,.45.07.56.56,0,0,1,.24.3.67.67,0,0,1,0,.57.93.93,0,0,1-.52.44L21,60.5a2.29,2.29,0,0,0-1.34,1,1.49,1.49,0,0,0,0,1.32,1.5,1.5,0,0,0,.9.88M20.33,62a.92.92,0,0,1,.5-.41l.51,1.28a.89.89,0,0,1-.64,0,.66.66,0,0,1-.37-.9" transform="translate(-0.8 -1.39)"/><polygon class="cls-3" points="46.63 19.75 47.57 19.68 47.3 16.22 46.36 16.29 46.63 19.75"/><path class="cls-3" d="M17.65,56.13l3.54-.45-.12-.91-1.6.21a4.19,4.19,0,0,1-.82,0,.7.7,0,0,1-.39-.22.74.74,0,0,1-.19-.41.53.53,0,0,1,.05-.33.47.47,0,0,1,.24-.22,2.49,2.49,0,0,1,.73-.16l1.8-.22-.12-.91-2.19.27a3.75,3.75,0,0,0-.63.13,1.11,1.11,0,0,0-.36.23,1,1,0,0,0-.24.42,1.47,1.47,0,0,0,0,.56,1.4,1.4,0,0,0,.75,1.07l-.52.07Z" transform="translate(-0.8 -1.39)"/><polygon class="cls-3" points="32.39 72.46 29.52 76.35 30.29 76.89 33.16 73 32.39 72.46"/><path class="cls-3" d="M18.8,43.28l.38-.76a.53.53,0,0,1-.26-.7.72.72,0,0,1,.25-.44.47.47,0,0,1,.41,0l.09,0a3.78,3.78,0,0,1,0,.92,3.65,3.65,0,0,0,0,.76.94.94,0,0,0,.23.48,1.15,1.15,0,0,0,.48.28,1,1,0,0,0,.81-.1A1.15,1.15,0,0,0,21.7,43a1.48,1.48,0,0,0,.05-.59,1.62,1.62,0,0,0-.2-.57H22l.26-.88a2.2,2.2,0,0,1-.5,0,4.07,4.07,0,0,1-.68-.14L20,40.53a1.93,1.93,0,0,0-.84-.11,1,1,0,0,0-.49.3,2.34,2.34,0,0,0-.4.84,1.75,1.75,0,0,0,0,1,1.34,1.34,0,0,0,.61.67m1.44-1.16a4.18,4.18,0,0,0,0-.57l.18.05a1.55,1.55,0,0,1,.43.16.54.54,0,0,1,.24.29.72.72,0,0,1,0,.5.48.48,0,0,1-.24.31.49.49,0,0,1-.37,0,.41.41,0,0,1-.27-.26,1.58,1.58,0,0,1,0-.53" transform="translate(-0.8 -1.39)"/><polygon class="cls-3" points="47.26 15.76 47.2 14.91 46.26 14.98 46.32 15.82 47.26 15.76"/><path class="cls-3" d="M17.93,51.54a2,2,0,0,0,.9.24,2.27,2.27,0,0,0,1.05-.2,1.53,1.53,0,0,0,.67-.64,2,2,0,0,0,.24-.91,1.66,1.66,0,0,0-.5-1.29A1.88,1.88,0,0,0,19,48.21a1.8,1.8,0,0,0-1.34.47A1.7,1.7,0,0,0,17.06,50a1.78,1.78,0,0,0,.21.92,1.61,1.61,0,0,0,.66.66m.2-2.17a1.22,1.22,0,0,1,.81-.22,1.24,1.24,0,0,1,.81.26A.74.74,0,0,1,20,50a.76.76,0,0,1-.29.6,1.27,1.27,0,0,1-.82.22,1.19,1.19,0,0,1-.81-.26.77.77,0,0,1-.27-.61.8.8,0,0,1,.3-.6" transform="translate(-0.8 -1.39)"/><path class="cls-3" d="M29.57,28.69a1.84,1.84,0,0,0,2-1.25,1.41,1.41,0,0,0-.08-.94l-.81.48a.81.81,0,0,1,.08.43.57.57,0,0,1-.21.33.75.75,0,0,1-.56.17,1,1,0,0,1-.6-.34l1.79-1.5a2.36,2.36,0,0,0-1.38-.91,1.65,1.65,0,0,0-1.3.41,1.48,1.48,0,0,0-.56,1.12A1.92,1.92,0,0,0,28.5,28a2.06,2.06,0,0,0,1.07.68M29,26.07a.65.65,0,0,1,.51-.15,1,1,0,0,1,.57.32L29,27.13a.83.83,0,0,1-.25-.57.6.6,0,0,1,.24-.49" transform="translate(-0.8 -1.39)"/><polygon class="cls-3" points="43.49 80.52 42.28 77.02 41.31 76.8 40.2 81.46 41.09 81.67 41.84 78.54 43.07 82.11 44.01 82.32 45.12 77.66 44.22 77.45 43.49 80.52"/><path class="cls-3" d="M21,45.76,17.68,44l-.12.93,1.72.89.29.13.29.14-.63.11-1.89.42-.13,1,3.72-.94Z" transform="translate(-0.8 -1.39)"/><path class="cls-3" d="M25.06,65.17a1.29,1.29,0,0,0-.43-.44,1.51,1.51,0,0,0-.65-.21l.45-.25L24,63.53l-4.27,2.38.46.79,1.54-.86A1.29,1.29,0,0,0,21.82,67a1.37,1.37,0,0,0,.94.68,2,2,0,0,0,1.41-.3,2,2,0,0,0,1-1,1.27,1.27,0,0,0-.1-1.13m-.78.84a1.65,1.65,0,0,1-.64.54,1.26,1.26,0,0,1-.81.19.69.69,0,0,1-.51-.34.66.66,0,0,1,0-.61,1.32,1.32,0,0,1,.66-.61,1.28,1.28,0,0,1,.83-.21.66.66,0,0,1,.52.33.67.67,0,0,1,0,.71" transform="translate(-0.8 -1.39)"/><path class="cls-3" d="M24.32,32.72a2.32,2.32,0,0,0,1,.45,1.58,1.58,0,0,0,.93-.13,2.17,2.17,0,0,0,.76-.58,1.7,1.7,0,0,0,.39-1.32,1.78,1.78,0,0,0-.73-1.21,1.89,1.89,0,0,0-1.37-.41,1.94,1.94,0,0,0-1.63,1.57,1.41,1.41,0,0,0,.12.9,1.79,1.79,0,0,0,.57.73m.32-2a.77.77,0,0,1,.6-.3,1.16,1.16,0,0,1,.79.29,1.22,1.22,0,0,1,.49.69.74.74,0,0,1-.16.64.77.77,0,0,1-.61.3A1.18,1.18,0,0,1,25,32a1.13,1.13,0,0,1-.48-.69.74.74,0,0,1,.16-.64" transform="translate(-0.8 -1.39)"/><path class="cls-3" d="M28.88,71.39a1.49,1.49,0,0,0,.05-.91,2,2,0,0,0-.44-.83A1.79,1.79,0,0,0,27.23,69a1.85,1.85,0,0,0-1.36.47,1.72,1.72,0,0,0-.67,1.22A1.67,1.67,0,0,0,25.67,72a1.86,1.86,0,0,0,.79.55,1.66,1.66,0,0,0,.94.06,2,2,0,0,0,.84-.41,2.12,2.12,0,0,0,.64-.83m-.78-.62a1.2,1.2,0,0,1-.46.71,1.21,1.21,0,0,1-.78.33.86.86,0,0,1-.62-.28.74.74,0,0,1-.18-.64,1.12,1.12,0,0,1,.44-.69,1.26,1.26,0,0,1,.79-.34.8.8,0,0,1,.62.28.76.76,0,0,1,.19.63" transform="translate(-0.8 -1.39)"/><path class="cls-3" d="M31.42,74.8A2,2,0,0,0,32,73.68a1.55,1.55,0,0,0-.63-1.33,1.69,1.69,0,0,0-.92-.43,1.52,1.52,0,0,0-1,.21l.61.72a.7.7,0,0,1,.42-.14.64.64,0,0,1,.36.15.71.71,0,0,1,.26.52.93.93,0,0,1-.26.62l-1.78-1.51A2.27,2.27,0,0,0,28.35,74a1.67,1.67,0,0,0,1.81,1.57,1.94,1.94,0,0,0,1.26-.72m-1.51-.06a.69.69,0,0,1-.76-.64.9.9,0,0,1,.26-.59l1.05.9a.92.92,0,0,1-.55.33" transform="translate(-0.8 -1.39)"/><path class="cls-3" d="M34.6,25.51l-.21-1.15,1.71-1,.93.74.93-.53-4.18-3.18-.91.52L33.69,26Zm.8-2.65-1.16.66-.34-1.86Z" transform="translate(-0.8 -1.39)"/><path class="cls-3" d="M40,22.92l0-3.73-.9.34,0,1.89c0,.11,0,.21,0,.31s0,.15,0,.31l-.4-.48-1.29-1.41-.92.35,2.63,2.72Z" transform="translate(-0.8 -1.39)"/><path class="cls-3" d="M36.81,76.52a1.61,1.61,0,0,0-.84-1,1.54,1.54,0,0,0-2.07.28l.72.59A.94.94,0,0,1,35.1,76a.62.62,0,0,1,.45.09.68.68,0,0,1,.37.49,1.42,1.42,0,0,1-.27.86,1.22,1.22,0,0,1-.59.59.7.7,0,0,1-.61-.07.6.6,0,0,1-.3-.33.64.64,0,0,1,0-.45l-.88-.31a1.44,1.44,0,0,0,.05,1,1.71,1.71,0,0,0,.75.73,1.67,1.67,0,0,0,1.34.2,1.88,1.88,0,0,0,1.1-.93,1.85,1.85,0,0,0,.28-1.38" transform="translate(-0.8 -1.39)"/><path class="cls-3" d="M42,19.39a.69.69,0,0,1,.35-.2.85.85,0,0,1,.52,0,.45.45,0,0,1,.23.33l0,.09a5.78,5.78,0,0,1-.82.46,3.23,3.23,0,0,0-.66.4.92.92,0,0,0-.28,1,1,1,0,0,0,.51.62,1.22,1.22,0,0,0,.91.05,1.46,1.46,0,0,0,.53-.26,1.54,1.54,0,0,0,.4-.47l.06.09c.07.11.12.19.16.24l.9-.25a2.35,2.35,0,0,1-.29-.4,4.24,4.24,0,0,1-.23-.64l-.28-1a2,2,0,0,0-.35-.76,1,1,0,0,0-.53-.24,2.3,2.3,0,0,0-.94.11,1.77,1.77,0,0,0-.94.51,1.29,1.29,0,0,0-.27.85l.86-.08a.63.63,0,0,1,.13-.39m1.3.77.05.18a2,2,0,0,1,.09.44.68.68,0,0,1-.13.35.85.85,0,0,1-.43.28.5.5,0,0,1-.4,0,.45.45,0,0,1-.23-.28.37.37,0,0,1,.08-.36,2,2,0,0,1,.45-.29,5.84,5.84,0,0,0,.52-.29" transform="translate(-0.8 -1.39)"/><polygon class="cls-3" points="36.01 80.08 36.99 80.46 37.8 79.72 37.24 79.51 36.01 80.08"/><path class="cls-3" d="M40.05,77.37a1.3,1.3,0,0,0-.68-.09,1.49,1.49,0,0,0-.65.23l.2-.49-.81-.31L36.8,79.94l.87.34.56-1.37a3.36,3.36,0,0,1,.42-.84.65.65,0,0,1,.36-.21.8.8,0,0,1,.46,0,.64.64,0,0,1,.29.21.48.48,0,0,1,.07.31,4,4,0,0,1-.29.86l-.6,1.48.87.34.83-2a1.76,1.76,0,0,0,.18-.76.91.91,0,0,0-.22-.55,1.28,1.28,0,0,0-.55-.37" transform="translate(-0.8 -1.39)"/><path class="cls-3" d="M54.21,21.23a2.67,2.67,0,0,1,.4,0,1.38,1.38,0,0,1,.39.11,1.57,1.57,0,0,0,.77-.2,1.62,1.62,0,0,0,.66-.87l-.9-.26a.92.92,0,0,1-.3.48.69.69,0,0,1-.45.1.71.71,0,0,1-.54-.33,1.37,1.37,0,0,1-.1-.89,1.2,1.2,0,0,1,.31-.76.7.7,0,0,1,.58-.17.64.64,0,0,1,.42.19.67.67,0,0,1,.16.43l.94,0a1.46,1.46,0,0,0-.45-.89,1.67,1.67,0,0,0-1-.4,1.71,1.71,0,0,0-1.31.33,1.83,1.83,0,0,0-.63,1.27,1.88,1.88,0,0,0,.29,1.38,1.57,1.57,0,0,0,.75.53" transform="translate(-0.8 -1.39)"/><path class="cls-3" d="M72.54,29.54A1.6,1.6,0,0,0,73,30.77a1.68,1.68,0,0,0,1,.6A1.71,1.71,0,0,0,75,31.16l-.49-.78a1,1,0,0,1-.55.16.71.71,0,0,1-.58-.82A1.39,1.39,0,0,1,74,29a1.24,1.24,0,0,1,.76-.37.72.72,0,0,1,.55.26.64.64,0,0,1,.17.41.63.63,0,0,1-.17.42l.73.58a1.49,1.49,0,0,0,.28-.95,1.62,1.62,0,0,0-.46-.94,1.65,1.65,0,0,0-1.19-.62,2,2,0,0,0-1.35.53,1.9,1.9,0,0,0-.74,1.22" transform="translate(-0.8 -1.39)"/><path class="cls-3" d="M77.57,35.51a1.43,1.43,0,0,0-.28.87,2,2,0,0,0,.22.91,1.78,1.78,0,0,0,1.07.91A1.89,1.89,0,0,0,80,38.06a1.79,1.79,0,0,0,1-1,1.69,1.69,0,0,0-.13-1.38,2,2,0,0,0-.63-.72,1.68,1.68,0,0,0-.9-.28,2,2,0,0,0-.92.2,2.13,2.13,0,0,0-.82.66m1.22.2a1.17,1.17,0,0,1,.83-.13.79.79,0,0,1,.54.41.73.73,0,0,1,0,.66,1.12,1.12,0,0,1-.6.57,1.26,1.26,0,0,1-.85.15A.81.81,0,0,1,78.2,37a.76.76,0,0,1,0-.66,1.18,1.18,0,0,1,.62-.58" transform="translate(-0.8 -1.39)"/><path class="cls-3" d="M80.51,43.92a1.89,1.89,0,0,0,1.43.14,1.78,1.78,0,0,0,1.14-.84,1.69,1.69,0,0,0,.15-1.38,2,2,0,0,0-.48-.82,1.6,1.6,0,0,0-.83-.44,2,2,0,0,0-.94,0,2.27,2.27,0,0,0-.94.49,1.47,1.47,0,0,0-.44.81,1.94,1.94,0,0,0,0,.93,1.68,1.68,0,0,0,.87,1.09m0-2a1.48,1.48,0,0,1,1.57-.43.8.8,0,0,1,.44.51.75.75,0,0,1-.1.65,1.19,1.19,0,0,1-.71.45,1.24,1.24,0,0,1-.86,0,.76.76,0,0,1-.44-.5.78.78,0,0,1,.1-.66" transform="translate(-0.8 -1.39)"/><path class="cls-3" d="M75.08,33.18l1.31-.92a2.89,2.89,0,0,1,.71-.4.66.66,0,0,1,.44,0,.76.76,0,0,1,.37.27.7.7,0,0,1,.12.32.49.49,0,0,1-.1.3,2.52,2.52,0,0,1-.57.47l-1.48,1,.55.75,1.8-1.26a2.39,2.39,0,0,0,.48-.4.91.91,0,0,0,.21-.37.82.82,0,0,0,0-.47,1.44,1.44,0,0,0-.24-.52,1.47,1.47,0,0,0-1.18-.59l.43-.3-.51-.69-2.9,2Z" transform="translate(-0.8 -1.39)"/><polygon class="cls-3" points="78.18 39 82.75 37.24 82.41 36.39 77.83 38.15 78.18 39"/><path class="cls-3" d="M20.51,34.62l.11.05.21-.37a.33.33,0,0,1-.17-.16.26.26,0,0,1,0-.17,1.24,1.24,0,0,1,.33-.32,3.68,3.68,0,0,0,.31-.26.75.75,0,0,0,.13-.18.5.5,0,0,0,0-.46A1.05,1.05,0,0,0,21,32.3l-.22.36a.43.43,0,0,1,.16.19.29.29,0,0,1,0,.18,1.11,1.11,0,0,1-.31.3,2.44,2.44,0,0,0-.31.24.83.83,0,0,0-.13.18.5.5,0,0,0-.05.46.78.78,0,0,0,.38.41" transform="translate(-0.8 -1.39)"/><path class="cls-3" d="M21.19,34.94a1.34,1.34,0,0,0,.42.79l.55-.65a.7.7,0,0,1-.19-.36.6.6,0,0,1,.11-.38.82.82,0,0,1,.35-.38.55.55,0,0,1,.41.08l.08.05a4.48,4.48,0,0,1-.25.88,2.77,2.77,0,0,0-.18.74,1,1,0,0,0,.11.52,1.13,1.13,0,0,0,.4.38,1,1,0,0,0,.81.09,1.17,1.17,0,0,0,.69-.58,1.29,1.29,0,0,0,.19-.56,1.57,1.57,0,0,0-.06-.6l.12,0L25,35l.46-.79a1.86,1.86,0,0,1-.5-.09,4.6,4.6,0,0,1-.62-.3l-.95-.54a2.08,2.08,0,0,0-.79-.3,1,1,0,0,0-.55.19,2.07,2.07,0,0,0-.59.72,1.71,1.71,0,0,0-.3,1m2.1,0a3.15,3.15,0,0,0,.16-.55l.17.09a2.21,2.21,0,0,1,.38.25.6.6,0,0,1,.16.34.77.77,0,0,1-.1.5.49.49,0,0,1-.31.24.44.44,0,0,1-.37,0,.38.38,0,0,1-.2-.31,1.9,1.9,0,0,1,.11-.52" transform="translate(-0.8 -1.39)"/><polygon class="cls-3" points="82.84 40.5 84.06 41.11 83.78 40.12 82.69 39.95 82.84 40.5"/><path class="cls-3" d="M50.45,18.94a3.08,3.08,0,0,0-.76.19.92.92,0,0,0-.41.34.94.94,0,0,0-.16.52,1,1,0,0,0,.29.74,1.22,1.22,0,0,0,.86.32,1.61,1.61,0,0,0,.58-.1,1.67,1.67,0,0,0,.53-.33.39.39,0,0,1,0,.11c0,.12.06.21.08.27l.94,0a1.87,1.87,0,0,1-.16-.47,4.18,4.18,0,0,1,0-.67l0-1.07a1.77,1.77,0,0,0-.1-.83,1,1,0,0,0-.42-.38,2.35,2.35,0,0,0-.94-.17,1.83,1.83,0,0,0-1,.22,1.31,1.31,0,0,0-.52.73l.85.17a.62.62,0,0,1,.24-.33.7.7,0,0,1,.39-.09.85.85,0,0,1,.51.13.5.5,0,0,1,.12.39v.09a5.94,5.94,0,0,1-.92.2m.89.58a1.37,1.37,0,0,1-.05.44.56.56,0,0,1-.23.3.91.91,0,0,1-.49.15.57.57,0,0,1-.37-.15.45.45,0,0,1-.14-.34.38.38,0,0,1,.19-.32,1.72,1.72,0,0,1,.52-.14,4.93,4.93,0,0,0,.58-.13Z" transform="translate(-0.8 -1.39)"/><path class="cls-3" d="M58.89,17.79a.22.22,0,0,1,.18,0,1.24,1.24,0,0,1,.4.23l.33.24.21.08a.53.53,0,0,0,.47-.07,1,1,0,0,0,.34-.57l-.42-.11a.38.38,0,0,1-.15.19.25.25,0,0,1-.19,0,1.17,1.17,0,0,1-.37-.22l-.31-.24a1,1,0,0,0-.21-.08.55.55,0,0,0-.47.06.77.77,0,0,0-.32.46.61.61,0,0,1,0,.11l.42.12a.34.34,0,0,1,.12-.2" transform="translate(-0.8 -1.39)"/><path class="cls-3" d="M57.82,21.89a1.52,1.52,0,0,0,.6,0,1.69,1.69,0,0,0,.59-.19.39.39,0,0,1,0,.11c0,.12,0,.22,0,.28l.9.25a2.11,2.11,0,0,1,0-.49,6.4,6.4,0,0,1,.15-.66l.32-1a1.86,1.86,0,0,0,.11-.82.92.92,0,0,0-.31-.48,2.23,2.23,0,0,0-.86-.39,1.94,1.94,0,0,0-1.08-.05,1.38,1.38,0,0,0-.69.59l.78.37a.65.65,0,0,1,.31-.26.64.64,0,0,1,.41,0,.84.84,0,0,1,.46.24.51.51,0,0,1,0,.41l0,.09a5.47,5.47,0,0,1-.94,0,3.33,3.33,0,0,0-.78,0,1,1,0,0,0-.78.69,1,1,0,0,0,.09.8,1.24,1.24,0,0,0,.75.51m.09-1.15a.41.41,0,0,1,.27-.26,2.11,2.11,0,0,1,.54,0c.27,0,.46,0,.59,0l-.05.17a1.83,1.83,0,0,1-.16.42.64.64,0,0,1-.31.24.81.81,0,0,1-.51,0A.5.5,0,0,1,58,21.1a.45.45,0,0,1-.05-.36" transform="translate(-0.8 -1.39)"/><path class="cls-3" d="M22.89,39.33a1.11,1.11,0,0,0,0,.17l.28.2a1.18,1.18,0,0,1,.1-.42.5.5,0,0,1,.19-.26.28.28,0,0,1,.23,0,.25.25,0,0,1,.15.18.68.68,0,0,1-.07.44,5.59,5.59,0,0,1-.27.56l.37.14a2.85,2.85,0,0,0,.3-.57,1.51,1.51,0,0,0,.11-.93.62.62,0,0,0-.36-.4.59.59,0,0,0-.5,0,.74.74,0,0,0-.2.16,1.67,1.67,0,0,1-.11.34,1.52,1.52,0,0,1-.2.38" transform="translate(-0.8 -1.39)"/><path class="cls-3" d="M20.73,39.83a2,2,0,0,0,1.44.07,1.49,1.49,0,0,0,.72-.57A1.7,1.7,0,0,1,23,39a1.3,1.3,0,0,1,.21-.35,1.44,1.44,0,0,0,0-.77,1.68,1.68,0,0,0-.7-.84l-.49.78a.82.82,0,0,1,.4.41.55.55,0,0,1,0,.45.72.72,0,0,1-.45.42,1.53,1.53,0,0,1-.91-.13,1.25,1.25,0,0,1-.69-.49.64.64,0,0,1,0-.59.58.58,0,0,1,.29-.34.64.64,0,0,1,.46,0l.19-.9a1.51,1.51,0,0,0-1,.19,1.65,1.65,0,0,0-.65.83,1.6,1.6,0,0,0,0,1.32,1.9,1.9,0,0,0,1.11.92" transform="translate(-0.8 -1.39)"/><path class="cls-3" d="M54.21,21.23l-.18,0-.12.31a2.17,2.17,0,0,1,.44,0,.53.53,0,0,1,.31.12.21.21,0,0,1,.08.2.22.22,0,0,1-.13.19.73.73,0,0,1-.46.05,6,6,0,0,1-.63-.11l0,.38a2.71,2.71,0,0,0,.64.14,1.58,1.58,0,0,0,1-.14.56.56,0,0,0,.3-.43.54.54,0,0,0-.16-.46.71.71,0,0,0-.22-.15,2.3,2.3,0,0,1-.36,0,2.72,2.72,0,0,1-.43-.09" transform="translate(-0.8 -1.39)"/><path class="cls-3" d="M71.39,25a2.27,2.27,0,0,0-1.8,1.85,1.54,1.54,0,0,0,.64,1.33,1.64,1.64,0,0,0,.92.42,1.48,1.48,0,0,0,.94-.21l-.6-.72a.73.73,0,0,1-.43.14.53.53,0,0,1-.36-.15.65.65,0,0,1-.25-.51.9.9,0,0,1,.25-.63L72.48,28a2.27,2.27,0,0,0,.73-1.47,1.54,1.54,0,0,0-.61-1.18A1.51,1.51,0,0,0,71.39,25m.78.94a.6.6,0,0,1,.23.47.83.83,0,0,1-.25.59l-1.06-.89a.92.92,0,0,1,.55-.33.68.68,0,0,1,.53.16" transform="translate(-0.8 -1.39)"/><polygon class="cls-3" points="67.11 24.85 69.32 21.5 70.54 22.26 70.99 21.58 67.7 19.53 67.25 20.21 68.48 20.97 66.28 24.32 67.11 24.85"/><path class="cls-3" d="M61.31,22.72a2.11,2.11,0,0,0,.78.54,1.79,1.79,0,0,0,1.42,0,1.76,1.76,0,0,0,1-1,1.73,1.73,0,0,0,0-1.39,1.75,1.75,0,0,0-1-.95,1.93,1.93,0,0,0-1-.13,1.52,1.52,0,0,0-.85.37,1.82,1.82,0,0,0-.56.74,2,2,0,0,0-.17,1,1.43,1.43,0,0,0,.39.83M62,21.26a1.17,1.17,0,0,1,.54-.64.85.85,0,0,1,.68,0,.8.8,0,0,1,.47.48,1.41,1.41,0,0,1-.6,1.47.81.81,0,0,1-.68,0,.77.77,0,0,1-.47-.48,1.11,1.11,0,0,1,.06-.83" transform="translate(-0.8 -1.39)"/><path class="cls-3" d="M80.61,60.74a2.16,2.16,0,0,0-1.27-.18,1.62,1.62,0,0,0-1.12,1,1.59,1.59,0,0,0-.15,1,1.52,1.52,0,0,0,.48.82l.53-.77a.75.75,0,0,1-.26-.36.57.57,0,0,1,0-.38.69.69,0,0,1,.44-.38,1,1,0,0,1,.69,0l-1,2.1a2.4,2.4,0,0,0,1.65.25,1.52,1.52,0,0,0,1-.9,1.42,1.42,0,0,0,0-1.24,2,2,0,0,0-1.08-1m.37,2a.64.64,0,0,1-.39.35,1,1,0,0,1-.66-.06l.58-1.25a.92.92,0,0,1,.48.42.6.6,0,0,1,0,.54" transform="translate(-0.8 -1.39)"/><path class="cls-3" d="M82.94,55.32l-.34.78a.55.55,0,0,1,.3.69.78.78,0,0,1-.23.45.5.5,0,0,1-.41,0l-.1,0a5.08,5.08,0,0,1,0-.92,3.13,3.13,0,0,0-.05-.75.91.91,0,0,0-.26-.47,1,1,0,0,0-.49-.25,1,1,0,0,0-.81.13,1.23,1.23,0,0,0-.49.75,1.42,1.42,0,0,0,0,.58,1.4,1.4,0,0,0,.23.57h-.12l-.29,0-.21.88a1.87,1.87,0,0,1,.51,0,3.41,3.41,0,0,1,.68.11l1.07.25a2.12,2.12,0,0,0,.85.07,1,1,0,0,0,.47-.33,2.27,2.27,0,0,0,.36-.86,1.75,1.75,0,0,0,0-1,1.32,1.32,0,0,0-.64-.64m-1.55,1.77A1.87,1.87,0,0,1,81,57a.55.55,0,0,1-.26-.28.8.8,0,0,1,0-.5.5.5,0,0,1,.22-.32.45.45,0,0,1,.37-.07.37.37,0,0,1,.28.25,1.54,1.54,0,0,1,0,.52,4.91,4.91,0,0,0,0,.58Z" transform="translate(-0.8 -1.39)"/><path class="cls-3" d="M79.55,66l.41.25.47-.7-3-1.88-.51.77,1.46.91a2.41,2.41,0,0,1,.57.45.59.59,0,0,1,.15.38.57.57,0,0,1-.11.38.49.49,0,0,1-.21.2.52.52,0,0,1-.28,0,2.58,2.58,0,0,1-.59-.31l-1.64-1-.51.78,1.44.89a3.08,3.08,0,0,1,.58.45.72.72,0,0,1,.16.4.63.63,0,0,1-.1.36.46.46,0,0,1-.39.23,1.49,1.49,0,0,1-.63-.28l-1.71-1.07L74.6,68l1.92,1.2a2.17,2.17,0,0,0,.67.31,1.07,1.07,0,0,0,.62-.09,1.33,1.33,0,0,0,.49-.46,1.21,1.21,0,0,0,.19-.55,1.63,1.63,0,0,0-.08-.64,1.2,1.2,0,0,0,.58-.11,1.17,1.17,0,0,0,.44-.42,1.32,1.32,0,0,0,.12-1.2" transform="translate(-0.8 -1.39)"/><path class="cls-3" d="M75.28,72.54a1.33,1.33,0,0,0-1-.39,2.85,2.85,0,0,0-1.15.41c-.37.21-.6.34-.72.39A.84.84,0,0,1,72,73a.44.44,0,0,1-.28-.14.54.54,0,0,1-.15-.49,1,1,0,0,1,.37-.63,1,1,0,0,1,.68-.33,1.22,1.22,0,0,1,.75.26L74,71a1.87,1.87,0,0,0-1.3-.47,2.13,2.13,0,0,0-1.33.66,2.79,2.79,0,0,0-.65.85,1.44,1.44,0,0,0,1.71,2,4.81,4.81,0,0,0,1-.48,2.67,2.67,0,0,1,.88-.38.41.41,0,0,1,.32.11.34.34,0,0,1,.09.32,1.07,1.07,0,0,1-.35.58.94.94,0,0,1-.57.3.89.89,0,0,1-.58-.19l-.69.69a1.48,1.48,0,0,0,1.12.44A2.1,2.1,0,0,0,75,74.72a2.42,2.42,0,0,0,.57-.78,1.2,1.2,0,0,0,.1-.76,1.29,1.29,0,0,0-.34-.64" transform="translate(-0.8 -1.39)"/><rect class="cls-3" x="84.73" y="49.19" width="0.87" height="0.92" transform="translate(-2.17 1.04) rotate(-1.62)"/><polygon class="cls-3" points="79.87 47.93 79.9 48.84 83.46 48.74 83.43 47.83 79.87 47.93"/><path class="cls-3" d="M82.47,51.11a2,2,0,0,0-1.4.35,1.59,1.59,0,0,0-.59,1.17,1.69,1.69,0,0,0,.24,1.09,1.71,1.71,0,0,0,.93.61l.22-.89a.88.88,0,0,1-.5-.27.56.56,0,0,1-.12-.44.68.68,0,0,1,.3-.53,1.46,1.46,0,0,1,.91-.14,1.22,1.22,0,0,1,.8.26.68.68,0,0,1,.2.56.6.6,0,0,1-.17.41.71.71,0,0,1-.43.18l.09.91a1.56,1.56,0,0,0,.89-.47,1.63,1.63,0,0,0,.36-1,1.61,1.61,0,0,0-.39-1.27,2,2,0,0,0-1.34-.55" transform="translate(-0.8 -1.39)"/><path class="cls-3" d="M58.53,78.88a1.65,1.65,0,0,0-1.48-.28,1.77,1.77,0,0,0-.89.47,1.45,1.45,0,0,0-.38.88l.95-.06a.72.72,0,0,1,.13-.42.58.58,0,0,1,.34-.19.7.7,0,0,1,.58.1.94.94,0,0,1,.37.57l-2.3.51a2.27,2.27,0,0,0,.79,1.44,1.62,1.62,0,0,0,1.34.22,1.54,1.54,0,0,0,1-.73A1.92,1.92,0,0,0,59.15,80a2,2,0,0,0-.62-1.09m-.32,2.25a.68.68,0,0,1-.45.32.64.64,0,0,1-.52-.1.83.83,0,0,1-.35-.54l1.37-.31a.89.89,0,0,1,0,.63" transform="translate(-0.8 -1.39)"/><path class="cls-3" d="M70.2,75.43a.57.57,0,0,1-.25.71.8.8,0,0,1-.48.19.5.5,0,0,1-.34-.24l0-.07a4.53,4.53,0,0,1,.61-.7,3,3,0,0,0,.48-.6.78.78,0,0,0,.12-.51.92.92,0,0,0-.19-.51,1,1,0,0,0-.7-.42,1.2,1.2,0,0,0-.87.25,1.37,1.37,0,0,0-.41.42,1.78,1.78,0,0,0-.22.57l-.09-.06a1.62,1.62,0,0,0-.23-.17l-.76.53a1.84,1.84,0,0,1,.41.28,3.66,3.66,0,0,1,.44.53l.63.87a1.73,1.73,0,0,0,.59.6.88.88,0,0,0,.57.06,2.38,2.38,0,0,0,.85-.41A1.75,1.75,0,0,0,71,76a1.26,1.26,0,0,0,0-.89Zm-1.48.1-.1-.15a1.77,1.77,0,0,1-.24-.38.62.62,0,0,1,0-.38.76.76,0,0,1,.3-.4.52.52,0,0,1,.39-.1.45.45,0,0,1,.32.19.37.37,0,0,1,0,.37,1.87,1.87,0,0,1-.32.42c-.18.19-.31.33-.39.43" transform="translate(-0.8 -1.39)"/><path class="cls-3" d="M49.6,82.93l.14-.12.52-.49-.5-.4c-.18.26-.35.51-.49.74l-.42-.75-.52.32.18.23.38.45c-.32,0-.61.09-.86.14l.16.59.56-.21.29-.12a6.6,6.6,0,0,0-.11.87l.59,0a6.21,6.21,0,0,0-.06-.87,5.53,5.53,0,0,0,.77.4l.22-.57-.37-.11-.48-.12" transform="translate(-0.8 -1.39)"/><path class="cls-3" d="M79.2,45.67A1.94,1.94,0,0,0,79.05,47a2.25,2.25,0,0,0,.2.75,1.15,1.15,0,0,0,.33.45,1.29,1.29,0,0,0,.53.23,3,3,0,0,0,.94,0L84.23,48l-.11-.85-.5.06a1.22,1.22,0,0,0,.44-1.12,1.34,1.34,0,0,0-.6-1,2,2,0,0,0-1.41-.25,2.07,2.07,0,0,0-1.15.46,1.27,1.27,0,0,0-.46,1.17,1.23,1.23,0,0,0,.71,1l-.52.06a1.25,1.25,0,0,1-.43,0,.47.47,0,0,1-.26-.15,1.05,1.05,0,0,1-.18-.52.7.7,0,0,1,0-.43.45.45,0,0,1,.24-.15v-1h-.11a1,1,0,0,0-.74.46m2.23.4a1.72,1.72,0,0,1,1.62-.19.69.69,0,0,1,.33.51.73.73,0,0,1-.2.59,1.35,1.35,0,0,1-.79.32,1.22,1.22,0,0,1-.82-.14.73.73,0,0,1-.34-.53.65.65,0,0,1,.2-.56" transform="translate(-0.8 -1.39)"/><path class="cls-3" d="M52.49,82.91l.13-.13c.17-.16.33-.34.49-.52l-.52-.37c-.17.27-.32.53-.44.77l-.47-.72-.5.34.19.22.42.43c-.33.06-.61.13-.86.19l.2.58.54-.25.29-.13a8.65,8.65,0,0,0-.07.88l.59,0a5.54,5.54,0,0,0-.1-.86,4.46,4.46,0,0,0,.79.35l.18-.58L53,83l-.48-.1" transform="translate(-0.8 -1.39)"/><path class="cls-3" d="M62.39,77.54a1.37,1.37,0,0,0-1.16-.13,1.42,1.42,0,0,0-.52.34,1.51,1.51,0,0,0-.34.58l-.17-.48-.82.28L61,82.65l.89-.3-.58-1.63a1.33,1.33,0,0,0,1.14.13,1.39,1.39,0,0,0,.87-.77,1.88,1.88,0,0,0,0-1.41,1.94,1.94,0,0,0-.86-1.13m0,2.3a.74.74,0,0,1-.45.43.72.72,0,0,1-.62-.07,1.4,1.4,0,0,1-.5-.75,1.19,1.19,0,0,1-.05-.84.66.66,0,0,1,.43-.43.71.71,0,0,1,.72.14,1.54,1.54,0,0,1,.42.71,1.22,1.22,0,0,1,0,.81" transform="translate(-0.8 -1.39)"/><path class="cls-3" d="M66.35,75.72a.93.93,0,0,0-.58-.2,1.25,1.25,0,0,0-.64.15,1.38,1.38,0,0,0-.52.44,1.34,1.34,0,0,0-.25.62l-.24-.46-.78.38L65,79.75l.84-.42L65.11,78a3.81,3.81,0,0,1-.37-.86.67.67,0,0,1,.08-.41.74.74,0,0,1,.33-.3.51.51,0,0,1,.35-.07.46.46,0,0,1,.3.15,4.77,4.77,0,0,1,.46.77L67,78.73l.84-.42-1-2a2,2,0,0,0-.47-.63" transform="translate(-0.8 -1.39)"/><polygon class="cls-3" points="65.73 78.08 65.36 79.36 66.3 78.89 66.26 77.81 65.73 78.08"/><path class="cls-4" d="M68.45,58.55a.56.56,0,0,0-.25.15.48.48,0,0,0-.08.27.44.44,0,0,0,.13.32.51.51,0,0,0,.37.13.69.69,0,0,0,.53-.22,1.45,1.45,0,0,0,.36-.81,6.54,6.54,0,0,1-.67.1,1.25,1.25,0,0,0-.39.06" transform="translate(-0.8 -1.39)"/><path class="cls-4" d="M51,63.07a.84.84,0,0,0-.54.2,1.21,1.21,0,0,0-.37.6h1.54v-.1a.76.76,0,0,0-.17-.52.62.62,0,0,0-.46-.18" transform="translate(-0.8 -1.39)"/><path class="cls-4" d="M71.26,57.42a.61.61,0,0,0-.32-.08.81.81,0,0,0-.52.21,1.15,1.15,0,0,0-.37.59h1.51V58a.87.87,0,0,0-.08-.37.54.54,0,0,0-.22-.25" transform="translate(-0.8 -1.39)"/><path class="cls-4" d="M75,45.51v7H26.44V45.53A23.63,23.63,0,0,0,26,50.17c0,13.28,11.07,24,24.72,24s24.71-10.77,24.71-24A23.83,23.83,0,0,0,75,45.51M62.6,57H63l-.09.47a2,2,0,0,1,.52-.4,1.07,1.07,0,0,1,.49-.12.78.78,0,0,1,.53.17.61.61,0,0,1,.19.47,2.19,2.19,0,0,1-.07.47l-.37,1.61h-.46L64.14,58a1.64,1.64,0,0,0,.06-.36.27.27,0,0,0-.1-.22.43.43,0,0,0-.28-.08,1,1,0,0,0-.65.25,1.61,1.61,0,0,0-.42.86l-.26,1.24H62Zm-3.2.75a1.44,1.44,0,0,1,.54-.6,1.27,1.27,0,0,1,.71-.2,1.1,1.1,0,0,1,.79.29,1.13,1.13,0,0,1,.29.81,1.87,1.87,0,0,1,0,.4h-2a.71.71,0,0,0,0,.14.81.81,0,0,0,.18.57.55.55,0,0,0,.43.2.84.84,0,0,0,.48-.16,1,1,0,0,0,.36-.43l.45,0a1.33,1.33,0,0,1-.45.62,1.25,1.25,0,0,1-.84.3,1.19,1.19,0,0,1-.56-.14.89.89,0,0,1-.39-.4,1.25,1.25,0,0,1-.13-.59,1.87,1.87,0,0,1,.21-.85M58.7,56h.47l-.11.52h-.47Zm-.21,1H59l-.57,2.67h-.47Zm-10,.75a1.44,1.44,0,0,1,.54-.6,1.31,1.31,0,0,1,.72-.2,1.06,1.06,0,0,1,.78.29,1.09,1.09,0,0,1,.3.81,2.85,2.85,0,0,1,0,.4h-2a.71.71,0,0,0,0,.14.86.86,0,0,0,.17.57.59.59,0,0,0,.44.2.78.78,0,0,0,.47-.16.9.9,0,0,0,.36-.43l.46,0a1.4,1.4,0,0,1-.45.62,1.27,1.27,0,0,1-.84.3,1.16,1.16,0,0,1-.56-.14.89.89,0,0,1-.39-.4,1.25,1.25,0,0,1-.13-.59,2,2,0,0,1,.2-.85M46.3,57l-.1.47a2.34,2.34,0,0,1,.52-.4,1.11,1.11,0,0,1,.5-.12.8.8,0,0,1,.53.17.65.65,0,0,1,.19.47,3.12,3.12,0,0,1-.07.47l-.37,1.61H47L47.42,58a2.29,2.29,0,0,0,0-.36.29.29,0,0,0-.09-.22.47.47,0,0,0-.28-.08,1,1,0,0,0-.65.25,1.61,1.61,0,0,0-.42.86l-.27,1.24H45.3L45.87,57Zm-1.39-1h.47l-.11.52H44.8Zm-4.6,1h.46l-.1.44a2,2,0,0,1,.47-.38.85.85,0,0,1,.44-.11.67.67,0,0,1,.43.13.62.62,0,0,1,.23.37,1.4,1.4,0,0,1,.44-.38,1,1,0,0,1,.48-.12.79.79,0,0,1,.52.15.61.61,0,0,1,.17.45,2.25,2.25,0,0,1-.06.4l-.38,1.72H43L43.33,58a1.87,1.87,0,0,0,.05-.31.25.25,0,0,0-.09-.2.33.33,0,0,0-.24-.08.84.84,0,0,0-.42.12.9.9,0,0,0-.34.33,2,2,0,0,0-.21.61l-.28,1.29h-.46l.38-1.8a1.16,1.16,0,0,0,0-.26.26.26,0,0,0-.08-.21.33.33,0,0,0-.22-.08.83.83,0,0,0-.41.12,1,1,0,0,0-.36.35,2,2,0,0,0-.23.62l-.27,1.26h-.46Zm-3.26,1.54L37.41,57h.46l-.39,1.73a1.21,1.21,0,0,0,0,.34.26.26,0,0,0,.09.21.47.47,0,0,0,.28.08.76.76,0,0,0,.39-.1.9.9,0,0,0,.33-.25,1.14,1.14,0,0,0,.22-.37,2.7,2.7,0,0,0,.14-.48L39.14,57h.46L39,59.71h-.43l.11-.48a1.4,1.4,0,0,1-1,.54.72.72,0,0,1-.51-.18.57.57,0,0,1-.2-.43,2.74,2.74,0,0,1,.1-.58m-6.66,1.13h-.5L30.68,56h.5Zm3.4-1.61-.38,1.61H33L33.34,58a2.29,2.29,0,0,0,0-.36.29.29,0,0,0-.09-.22.47.47,0,0,0-.28-.08,1,1,0,0,0-.65.25,1.61,1.61,0,0,0-.42.86l-.27,1.24h-.46L31.79,57h.43l-.1.47a2.34,2.34,0,0,1,.52-.4,1.11,1.11,0,0,1,.5-.12.76.76,0,0,1,.52.17.62.62,0,0,1,.2.47,3.12,3.12,0,0,1-.07.47m2.27,1.61h-.47L36.38,56h.47Zm3.55,4.84a1.58,1.58,0,0,1-.35.55,1.43,1.43,0,0,1-.41.31,1.15,1.15,0,0,1-.44.09.83.83,0,0,1-.76-.49l-.31,1.46h-.47l.79-3.69h.44l-.08.37a1.59,1.59,0,0,1,.43-.33.88.88,0,0,1,1,.18,1.14,1.14,0,0,1,.26.79,1.87,1.87,0,0,1-.15.76m1.5-1.13a2.06,2.06,0,0,0-.41,1l-.23,1.07H40l.57-2.67H41l-.12.55a1.92,1.92,0,0,1,.41-.46.72.72,0,0,1,.42-.15.9.9,0,0,1,.34.1l-.19.42a.43.43,0,0,0-.27-.08.7.7,0,0,0-.5.26m3.16,1.27a1.43,1.43,0,0,1-.54.6,1.47,1.47,0,0,1-.75.21,1.2,1.2,0,0,1-.57-.13A.9.9,0,0,1,42,65a1.07,1.07,0,0,1-.14-.57,1.83,1.83,0,0,1,.47-1.29,1.36,1.36,0,0,1,1-.42,1,1,0,0,1,1.1,1.12,1.89,1.89,0,0,1-.19.85m-.15-5L44.7,57h.46l-.57,2.67ZM47,65.35a2.06,2.06,0,0,1-.24.67.93.93,0,0,1-.4.36,1.33,1.33,0,0,1-.61.13,1.64,1.64,0,0,1-.57-.08.69.69,0,0,1-.35-.24.61.61,0,0,1-.12-.37s0-.08,0-.13l.48,0a.38.38,0,0,0,0,.23.2.2,0,0,0,.13.12.81.81,0,0,0,.33.06.79.79,0,0,0,.61-.21,1.73,1.73,0,0,0,.22-.63l0-.21a1.09,1.09,0,0,1-.77.36.92.92,0,0,1-.7-.3,1.21,1.21,0,0,1-.28-.84,1.69,1.69,0,0,1,.22-.83,1.51,1.51,0,0,1,.53-.56,1.14,1.14,0,0,1,.62-.2.92.92,0,0,1,.83.49l.1-.43h.43Zm2.27-2.19a.7.7,0,0,0-.5.26,2.06,2.06,0,0,0-.41,1l-.23,1.07h-.44l.57-2.67h.42l-.12.55a1.92,1.92,0,0,1,.41-.46.72.72,0,0,1,.42-.15,1,1,0,0,1,.34.1l-.19.42a.43.43,0,0,0-.27-.08M52,64.22H50a.76.76,0,0,0,0,.14.86.86,0,0,0,.18.58.56.56,0,0,0,.43.19.9.9,0,0,0,.48-.15,1.06,1.06,0,0,0,.36-.44l.45,0a1.37,1.37,0,0,1-1.29.92,1.18,1.18,0,0,1-.56-.13,1,1,0,0,1-.39-.4,1.38,1.38,0,0,1-.13-.59,1.84,1.84,0,0,1,.21-.85,1.54,1.54,0,0,1,.54-.61,1.39,1.39,0,0,1,.71-.2,1.06,1.06,0,0,1,.79.3,1.11,1.11,0,0,1,.29.81,1.72,1.72,0,0,1,0,.39m1.32-.58a2.3,2.3,0,0,0,.4.2,2.48,2.48,0,0,1,.67.35.67.67,0,0,1,.22.51.74.74,0,0,1-.12.39,1,1,0,0,1-.38.3,1.42,1.42,0,0,1-.61.11,1.32,1.32,0,0,1-.8-.23.81.81,0,0,1-.32-.74l.47,0a.81.81,0,0,0,.07.33.49.49,0,0,0,.22.23.8.8,0,0,0,.39.08A.74.74,0,0,0,54,65a.35.35,0,0,0,.15-.28.33.33,0,0,0-.09-.22,1.42,1.42,0,0,0-.46-.26,3.14,3.14,0,0,1-.47-.22.76.76,0,0,1-.26-.24.57.57,0,0,1-.09-.32A.7.7,0,0,1,53,63a1.05,1.05,0,0,1,.72-.23,1.14,1.14,0,0,1,.78.24.79.79,0,0,1,.28.61l-.46,0a.51.51,0,0,0-.17-.39.7.7,0,0,0-.46-.14.59.59,0,0,0-.38.11.3.3,0,0,0-.13.24.31.31,0,0,0,.11.22m1.46-4.29a.84.84,0,0,1-.38.3A1.55,1.55,0,0,1,53,59.54a.81.81,0,0,1-.31-.75l.47,0a.81.81,0,0,0,.06.33.49.49,0,0,0,.22.23.8.8,0,0,0,.39.09.68.68,0,0,0,.46-.13.33.33,0,0,0,.15-.28.35.35,0,0,0-.09-.22,1.31,1.31,0,0,0-.46-.26,3.14,3.14,0,0,1-.47-.22.67.67,0,0,1-.26-.24.57.57,0,0,1-.09-.32.7.7,0,0,1,.26-.54,1.05,1.05,0,0,1,.72-.22,1.14,1.14,0,0,1,.78.23.8.8,0,0,1,.28.61l-.45,0a.51.51,0,0,0-.18-.38.65.65,0,0,0-.46-.14.61.61,0,0,0-.38.1.31.31,0,0,0-.13.24.29.29,0,0,0,.11.22,2.78,2.78,0,0,0,.4.2,2.82,2.82,0,0,1,.67.35.67.67,0,0,1,.22.51.74.74,0,0,1-.12.39M56,63.64a2.3,2.3,0,0,0,.4.2,2.66,2.66,0,0,1,.67.35.67.67,0,0,1,.22.51.74.74,0,0,1-.12.39,1,1,0,0,1-.38.3,1.42,1.42,0,0,1-.61.11,1.32,1.32,0,0,1-.8-.23.81.81,0,0,1-.32-.74l.47,0a.67.67,0,0,0,.07.33.49.49,0,0,0,.22.23.8.8,0,0,0,.39.08.74.74,0,0,0,.46-.12.35.35,0,0,0,.15-.28.33.33,0,0,0-.09-.22,1.42,1.42,0,0,0-.46-.26,2.69,2.69,0,0,1-.47-.22.76.76,0,0,1-.26-.24.57.57,0,0,1-.09-.32.67.67,0,0,1,.26-.54,1.05,1.05,0,0,1,.72-.23,1.14,1.14,0,0,1,.78.24.79.79,0,0,1,.28.61l-.46,0a.51.51,0,0,0-.17-.39.72.72,0,0,0-.46-.14.59.59,0,0,0-.38.11.3.3,0,0,0-.13.24.31.31,0,0,0,.11.22m1.17-4.12a1.22,1.22,0,0,1-.74.25,1,1,0,0,1-.72-.29,1,1,0,0,1-.28-.78,2.13,2.13,0,0,1,.18-.85,1.38,1.38,0,0,1,.51-.64,1.3,1.3,0,0,1,.75-.22,1,1,0,0,1,.7.24.84.84,0,0,1,.26.64l-.46,0a.5.5,0,0,0-.15-.39.53.53,0,0,0-.39-.15.77.77,0,0,0-.49.17,1.06,1.06,0,0,0-.32.53,2.08,2.08,0,0,0-.12.68.78.78,0,0,0,.15.51.52.52,0,0,0,.39.17.69.69,0,0,0,.43-.17,1.08,1.08,0,0,0,.33-.51l.47,0a1.54,1.54,0,0,1-.5.74m2.68,5.93h-.43L59.5,65a1.4,1.4,0,0,1-1,.54.77.77,0,0,1-.51-.17.57.57,0,0,1-.2-.43,2.55,2.55,0,0,1,.1-.58l.36-1.54h.47l-.4,1.73a1.19,1.19,0,0,0-.05.33.28.28,0,0,0,.09.22.47.47,0,0,0,.28.07A.86.86,0,0,0,59,65a.9.9,0,0,0,.33-.25,1.14,1.14,0,0,0,.22-.37,2.7,2.7,0,0,0,.14-.48L60,62.78h.46Zm4.8-1.72-.38,1.72h-.46l.38-1.76a2,2,0,0,0,0-.31.27.27,0,0,0-.09-.21.33.33,0,0,0-.24-.07.84.84,0,0,0-.42.12.88.88,0,0,0-.34.32,2.24,2.24,0,0,0-.21.61l-.28,1.3h-.46l.38-1.8a1.16,1.16,0,0,0,0-.26.25.25,0,0,0-.08-.21.33.33,0,0,0-.22-.08.83.83,0,0,0-.41.12,1,1,0,0,0-.36.34,1.91,1.91,0,0,0-.22.63L61,65.45h-.46l.57-2.67h.47l-.1.44a1.84,1.84,0,0,1,.47-.39,1,1,0,0,1,.44-.11.67.67,0,0,1,.43.14.6.6,0,0,1,.23.36,1.5,1.5,0,0,1,.44-.37,1,1,0,0,1,.48-.13.79.79,0,0,1,.52.16.59.59,0,0,1,.17.44,2.2,2.2,0,0,1-.06.41m1-4.4a.22.22,0,0,0,.16,0,1.12,1.12,0,0,0,.27,0l-.08.37a1.25,1.25,0,0,1-.32,0,.66.66,0,0,1-.44-.14.35.35,0,0,1-.13-.27,3.75,3.75,0,0,1,.07-.41l.33-1.55h-.37l.08-.35h.37l.14-.65.53-.31L66,57h.46l-.08.35H66l-.32,1.48a2.64,2.64,0,0,0-.06.33.17.17,0,0,0,.05.13m1.27.38h-.47L67,57h.46Zm.21-3.16.11-.52h.47l-.11.52ZM72,58.49H70v.15a.81.81,0,0,0,.17.57.56.56,0,0,0,.43.19.75.75,0,0,0,.44-.15,1,1,0,0,0,.37-.44l.47,0a1.81,1.81,0,0,1-.54.68,1.24,1.24,0,0,1-.75.24,1.09,1.09,0,0,1-.56-.15,1,1,0,0,1-.43-.45,1.14,1.14,0,0,1-.48.45,1.16,1.16,0,0,1-.57.15.94.94,0,0,1-.64-.22.72.72,0,0,1-.22-.56.76.76,0,0,1,.1-.39.69.69,0,0,1,.25-.26,1.19,1.19,0,0,1,.39-.13l.58-.07a2.74,2.74,0,0,0,.61-.09,1,1,0,0,0,.06-.31.37.37,0,0,0-.12-.29.51.51,0,0,0-.37-.11.91.91,0,0,0-.49.12.82.82,0,0,0-.29.38l-.46,0a1.19,1.19,0,0,1,.45-.6,1.44,1.44,0,0,1,.8-.21,1.31,1.31,0,0,1,.5.09,1,1,0,0,1,.36.27,1.22,1.22,0,0,1,.9-.36,1.1,1.1,0,0,1,.57.14.85.85,0,0,1,.37.4,1.2,1.2,0,0,1,.14.57,3.67,3.67,0,0,1,0,.39" transform="translate(-0.8 -1.39)"/><path class="cls-4" d="M35.3,42.08c.21,0,1.75,1.2,3.45.3a2.42,2.42,0,0,0-1.48-4.57,2,2,0,0,0,.1,4c2,.17,2.41-2.54.68-2.81-1.53-.24-1.85,1.94-.51,2,1.16.08.88-1.57.2-.86,0-.17,0-.35.24-.38.66-.06.79,1.11-.08,1.36a1.12,1.12,0,0,1-.77-2.1,1.44,1.44,0,0,1,1.64,2.33c-1.6,1.53-4.22-.6-3-2.66a2.49,2.49,0,0,1,4.54,1.69c-.24,2.13-2.4,2.42-2.61,2.69a10.08,10.08,0,0,0-.08,2h4.77c1.24-1.22,3.15-3.09,3.24-3.1s1.76,1.2,3.45.3a2.42,2.42,0,0,0-1.47-4.57,2,2,0,0,0,.09,4c2,.17,2.42-2.54.68-2.81-1.53-.24-1.84,1.94-.5,2,1.16.08.87-1.57.19-.86,0-.17,0-.35.24-.38.67-.06.79,1.11-.08,1.36a1.12,1.12,0,0,1-.77-2.1,1.43,1.43,0,0,1,1.64,2.33c-1.59,1.53-4.22-.6-3-2.66s4.82-1,4.53,1.69c-.23,2.13-2.39,2.42-2.61,2.69a10.92,10.92,0,0,0-.08,2H52.7c1.24-1.22,3.15-3.09,3.24-3.1s1.76,1.2,3.46.3a2.42,2.42,0,0,0-1.48-4.57,2,2,0,0,0,.09,4c2,.17,2.42-2.54.68-2.81-1.52-.24-1.84,1.94-.5,2,1.16.08.88-1.57.2-.86,0-.17,0-.35.24-.38.66-.06.78,1.11-.08,1.36a1.13,1.13,0,0,1-.78-2.1,1.44,1.44,0,0,1,1.65,2.33c-1.6,1.53-4.22-.6-3-2.66s4.83-1,4.53,1.69c-.23,2.13-2.39,2.42-2.6,2.69a10.08,10.08,0,0,0-.08,2H63c1.24-1.22,3.15-3.09,3.24-3.1s1.75,1.2,3.45.3a2.42,2.42,0,0,0-1.47-4.57,2,2,0,0,0,.09,4c2,.17,2.41-2.54.68-2.81-1.53-.24-1.85,1.94-.51,2,1.17.08.88-1.57.2-.86,0-.17,0-.35.24-.38.66-.06.79,1.11-.08,1.36a1.12,1.12,0,0,1-.77-2.1,1.43,1.43,0,0,1,1.64,2.33c-1.6,1.53-4.22-.6-3-2.66a2.49,2.49,0,0,1,4.54,1.69c-.24,2.13-2.4,2.42-2.61,2.69a10.08,10.08,0,0,0-.08,2h6.3a24.87,24.87,0,0,0-48.36,0h5.54c1.23-1.22,3.15-3.09,3.24-3.1" transform="translate(-0.8 -1.39)"/><path class="cls-4" d="M46.19,63.09a.63.63,0,0,0-.33.09,1,1,0,0,0-.3.27,1.44,1.44,0,0,0-.21.43,1.52,1.52,0,0,0-.07.39,1.37,1.37,0,0,0,0,.41.61.61,0,0,0,.22.29.54.54,0,0,0,.32.11.76.76,0,0,0,.46-.16,1.1,1.1,0,0,0,.37-.48,1.67,1.67,0,0,0,.14-.63.72.72,0,0,0-.19-.53.6.6,0,0,0-.46-.19" transform="translate(-0.8 -1.39)"/><path class="cls-4" d="M50.44,58a.7.7,0,0,0-.18-.52.61.61,0,0,0-.45-.18.83.83,0,0,0-.55.2,1.19,1.19,0,0,0-.37.6h1.54a.46.46,0,0,0,0-.1" transform="translate(-0.8 -1.39)"/><path class="cls-4" d="M61.29,58a.7.7,0,0,0-.18-.52.58.58,0,0,0-.45-.18.83.83,0,0,0-.55.2,1.26,1.26,0,0,0-.37.6h1.55V58" transform="translate(-0.8 -1.39)"/><path class="cls-4" d="M38.71,63.09a.63.63,0,0,0-.33.09,1,1,0,0,0-.29.27,1.71,1.71,0,0,0-.21.45,1.48,1.48,0,0,0-.09.46,1.19,1.19,0,0,0,.05.41.49.49,0,0,0,.21.26.57.57,0,0,0,.34.1.72.72,0,0,0,.65-.44,1.74,1.74,0,0,0,.25-.89.78.78,0,0,0-.17-.53.54.54,0,0,0-.41-.18" transform="translate(-0.8 -1.39)"/><path class="cls-4" d="M43.34,63.07a.8.8,0,0,0-.4.11,1,1,0,0,0-.33.29,1.5,1.5,0,0,0-.21.46,1.61,1.61,0,0,0-.07.46.77.77,0,0,0,.19.57.61.61,0,0,0,.47.19.8.8,0,0,0,.3-.06.65.65,0,0,0,.27-.17,1.18,1.18,0,0,0,.22-.28,1.22,1.22,0,0,0,.14-.33,1.4,1.4,0,0,0,.09-.48.82.82,0,0,0-.19-.56.64.64,0,0,0-.48-.2" transform="translate(-0.8 -1.39)"/><path class="cls-2" d="M42.07,62.82a1,1,0,0,0-.34-.1.67.67,0,0,0-.41.15,1.74,1.74,0,0,0-.42.46l.12-.55H40.6L40,65.45h.44l.23-1.07a2.06,2.06,0,0,1,.41-1,.7.7,0,0,1,.51-.26.5.5,0,0,1,.26.08Z" transform="translate(-0.8 -1.39)"/><polygon class="cls-2" points="34.79 58.32 35.26 58.32 36.05 54.64 35.58 54.64 34.79 58.32"/><path class="cls-2" d="M38.85,62.72a.91.91,0,0,0-.4.1,1.59,1.59,0,0,0-.43.33l.08-.37h-.44l-.79,3.69h.47L37.65,65a.83.83,0,0,0,.76.48,1.12,1.12,0,0,0,.44-.09,1.43,1.43,0,0,0,.41-.31,1.58,1.58,0,0,0,.35-.55,1.87,1.87,0,0,0,.14-.76A1.14,1.14,0,0,0,39.5,63a.88.88,0,0,0-.65-.28m.19,2a.72.72,0,0,1-.65.44.57.57,0,0,1-.34-.1.49.49,0,0,1-.21-.26,1.24,1.24,0,0,1-.05-.41,1.48,1.48,0,0,1,.09-.46,1.71,1.71,0,0,1,.21-.45,1,1,0,0,1,.29-.27.63.63,0,0,1,.33-.09.54.54,0,0,1,.41.18.74.74,0,0,1,.17.53,1.74,1.74,0,0,1-.25.89" transform="translate(-0.8 -1.39)"/><path class="cls-2" d="M43.36,62.72a1.36,1.36,0,0,0-1,.42,1.83,1.83,0,0,0-.47,1.29A1,1,0,0,0,42,65a.89.89,0,0,0,.39.38,1.28,1.28,0,0,0,.59.13,1.46,1.46,0,0,0,.74-.21,1.43,1.43,0,0,0,.54-.6,1.92,1.92,0,0,0,.19-.85,1.12,1.12,0,0,0-.3-.82,1.15,1.15,0,0,0-.8-.3m.56,1.59a1.22,1.22,0,0,1-.14.33,1.18,1.18,0,0,1-.22.28.65.65,0,0,1-.27.17.8.8,0,0,1-.3.06.61.61,0,0,1-.47-.19.77.77,0,0,1-.19-.57,2.06,2.06,0,0,1,.07-.46,1.5,1.5,0,0,1,.21-.46,1,1,0,0,1,.33-.29.8.8,0,0,1,.4-.11.66.66,0,0,1,.48.2.82.82,0,0,1,.18.56,1.38,1.38,0,0,1-.08.48" transform="translate(-0.8 -1.39)"/><path class="cls-2" d="M40.46,58.45a2,2,0,0,1,.23-.62,1,1,0,0,1,.36-.35.83.83,0,0,1,.41-.12.33.33,0,0,1,.22.08.26.26,0,0,1,.08.21,1.16,1.16,0,0,1,0,.26l-.38,1.8h.46l.28-1.29a2,2,0,0,1,.21-.61.9.9,0,0,1,.34-.33.84.84,0,0,1,.42-.12.33.33,0,0,1,.24.08.25.25,0,0,1,.09.2,1.87,1.87,0,0,1-.05.31L43,59.71h.46L43.79,58a2.25,2.25,0,0,0,.06-.4.61.61,0,0,0-.17-.45.79.79,0,0,0-.52-.15,1,1,0,0,0-.48.12,1.4,1.4,0,0,0-.44.38.62.62,0,0,0-.23-.37.67.67,0,0,0-.43-.13.85.85,0,0,0-.44.11,2,2,0,0,0-.47.38l.1-.44h-.46l-.58,2.67h.46Z" transform="translate(-0.8 -1.39)"/><path class="cls-2" d="M37.66,59.77a1.44,1.44,0,0,0,1-.54l-.11.48H39L39.6,57h-.46l-.26,1.16a2.7,2.7,0,0,1-.14.48,1.19,1.19,0,0,1-.22.38,1,1,0,0,1-.33.24.87.87,0,0,1-.39.1.47.47,0,0,1-.28-.08.27.27,0,0,1-.09-.22,1.19,1.19,0,0,1,0-.33L37.87,57h-.46l-.36,1.54a2.74,2.74,0,0,0-.1.58.57.57,0,0,0,.2.43.72.72,0,0,0,.51.18" transform="translate(-0.8 -1.39)"/><polygon class="cls-2" points="29.09 58.32 29.59 58.32 30.38 54.64 29.88 54.64 29.09 58.32"/><path class="cls-2" d="M33.14,57a1.11,1.11,0,0,0-.5.12,2.34,2.34,0,0,0-.52.4l.1-.47h-.43l-.57,2.67h.46L32,58.47a1.61,1.61,0,0,1,.42-.86,1,1,0,0,1,.65-.25.47.47,0,0,1,.28.08.29.29,0,0,1,.09.22,2.29,2.29,0,0,1,0,.36L33,59.71h.47l.37-1.61a3.12,3.12,0,0,0,.07-.47.65.65,0,0,0-.19-.47.8.8,0,0,0-.53-.17" transform="translate(-0.8 -1.39)"/><polygon class="cls-2" points="43.9 55.65 43.32 58.32 43.79 58.32 44.36 55.65 43.9 55.65"/><path class="cls-2" d="M54,58.1a2.78,2.78,0,0,1-.4-.2.29.29,0,0,1-.11-.22.31.31,0,0,1,.13-.24.61.61,0,0,1,.38-.1.65.65,0,0,1,.46.14.47.47,0,0,1,.17.38l.46,0a.8.8,0,0,0-.28-.61,1.14,1.14,0,0,0-.78-.23,1.05,1.05,0,0,0-.72.22.7.7,0,0,0-.26.54.57.57,0,0,0,.09.32.67.67,0,0,0,.26.24,3.14,3.14,0,0,0,.47.22,1.31,1.31,0,0,1,.46.26.35.35,0,0,1,.09.22.36.36,0,0,1-.15.29.74.74,0,0,1-.46.12.8.8,0,0,1-.39-.09.45.45,0,0,1-.22-.23.81.81,0,0,1-.06-.33l-.47,0a.8.8,0,0,0,.31.74,1.55,1.55,0,0,0,1.41.11.84.84,0,0,0,.38-.3.74.74,0,0,0,.12-.39.67.67,0,0,0-.22-.51A2.82,2.82,0,0,0,54,58.1" transform="translate(-0.8 -1.39)"/><path class="cls-2" d="M56.84,59.25a.69.69,0,0,1-.43.17.52.52,0,0,1-.39-.17.78.78,0,0,1-.15-.51,2.08,2.08,0,0,1,.12-.68,1.06,1.06,0,0,1,.32-.53.77.77,0,0,1,.49-.17.53.53,0,0,1,.39.15.5.5,0,0,1,.15.39l.46,0a.8.8,0,0,0-.26-.64,1,1,0,0,0-.7-.24,1.3,1.3,0,0,0-.75.22,1.38,1.38,0,0,0-.51.64,2.13,2.13,0,0,0-.18.85,1,1,0,0,0,.28.78,1,1,0,0,0,.72.29,1.16,1.16,0,0,0,.74-.25,1.56,1.56,0,0,0,.5-.73l-.47,0a1.08,1.08,0,0,1-.33.51" transform="translate(-0.8 -1.39)"/><path class="cls-2" d="M56,63.18a.59.59,0,0,1,.38-.11.7.7,0,0,1,.46.14.51.51,0,0,1,.17.39l.46,0a.79.79,0,0,0-.28-.61,1.14,1.14,0,0,0-.78-.24,1.05,1.05,0,0,0-.72.23.67.67,0,0,0-.26.54.57.57,0,0,0,.09.32.76.76,0,0,0,.26.24,2.69,2.69,0,0,0,.47.22,1.42,1.42,0,0,1,.46.26.33.33,0,0,1,.09.22.35.35,0,0,1-.15.28.74.74,0,0,1-.46.12.93.93,0,0,1-.39-.08.49.49,0,0,1-.22-.23.67.67,0,0,1-.07-.33l-.47,0a.8.8,0,0,0,.32.74,1.32,1.32,0,0,0,.8.23,1.42,1.42,0,0,0,.61-.11,1,1,0,0,0,.38-.3.74.74,0,0,0,.12-.39.67.67,0,0,0-.22-.51,3.06,3.06,0,0,0-.67-.35,2.3,2.3,0,0,1-.4-.2.31.31,0,0,1-.11-.22.3.3,0,0,1,.13-.24" transform="translate(-0.8 -1.39)"/><path class="cls-2" d="M51,62.72a1.39,1.39,0,0,0-.71.2,1.54,1.54,0,0,0-.54.61,1.87,1.87,0,0,0-.21.85,1.25,1.25,0,0,0,.14.59.92.92,0,0,0,.38.4,1.18,1.18,0,0,0,.56.13,1.37,1.37,0,0,0,1.29-.92l-.45,0a1.06,1.06,0,0,1-.36.44.9.9,0,0,1-.48.15.56.56,0,0,1-.43-.19.85.85,0,0,1-.18-.57c0-.05,0-.09,0-.15h2a2.69,2.69,0,0,0,0-.4,1.11,1.11,0,0,0-.29-.8,1.06,1.06,0,0,0-.79-.3m.64,1.16H50.07a1.2,1.2,0,0,1,.37-.61.84.84,0,0,1,.54-.2.62.62,0,0,1,.46.18.77.77,0,0,1,.17.52v.11" transform="translate(-0.8 -1.39)"/><path class="cls-2" d="M47,63.21a.92.92,0,0,0-.83-.49,1.14,1.14,0,0,0-.62.2,1.51,1.51,0,0,0-.53.56,1.69,1.69,0,0,0-.22.83,1.21,1.21,0,0,0,.28.84.92.92,0,0,0,.7.3,1.09,1.09,0,0,0,.77-.36l0,.21a1.73,1.73,0,0,1-.22.63.79.79,0,0,1-.61.21.81.81,0,0,1-.33-.06.2.2,0,0,1-.13-.12.38.38,0,0,1,0-.23l-.48,0s0,.09,0,.13a.61.61,0,0,0,.12.37.69.69,0,0,0,.35.24,1.62,1.62,0,0,0,.57.09,1.34,1.34,0,0,0,.61-.14.93.93,0,0,0,.4-.36,2.06,2.06,0,0,0,.24-.67l.56-2.57H47.1Zm-.3,1.23a1.16,1.16,0,0,1-.37.48.83.83,0,0,1-.46.16.54.54,0,0,1-.32-.11.61.61,0,0,1-.22-.29,1.37,1.37,0,0,1,0-.41,1.46,1.46,0,0,1,.07-.39,1.44,1.44,0,0,1,.21-.43,1,1,0,0,1,.3-.27.63.63,0,0,1,.33-.09.6.6,0,0,1,.46.19.72.72,0,0,1,.19.53,1.67,1.67,0,0,1-.14.63" transform="translate(-0.8 -1.39)"/><path class="cls-2" d="M49.36,62.72a.72.72,0,0,0-.42.15,1.92,1.92,0,0,0-.41.46l.12-.55h-.42l-.57,2.67h.44l.23-1.07a2.06,2.06,0,0,1,.41-1,.74.74,0,0,1,.5-.26.43.43,0,0,1,.27.08l.19-.42a1,1,0,0,0-.34-.1" transform="translate(-0.8 -1.39)"/><path class="cls-2" d="M53.35,63.18a.59.59,0,0,1,.38-.11.7.7,0,0,1,.46.14.51.51,0,0,1,.17.39l.46,0a.79.79,0,0,0-.28-.61,1.14,1.14,0,0,0-.78-.24A1.05,1.05,0,0,0,53,63a.7.7,0,0,0-.26.54.57.57,0,0,0,.09.32.76.76,0,0,0,.26.24,3.14,3.14,0,0,0,.47.22,1.42,1.42,0,0,1,.46.26.33.33,0,0,1,.09.22A.35.35,0,0,1,54,65a.74.74,0,0,1-.46.12.93.93,0,0,1-.39-.08.49.49,0,0,1-.22-.23.81.81,0,0,1-.07-.33l-.47,0a.8.8,0,0,0,.32.74,1.32,1.32,0,0,0,.8.23,1.42,1.42,0,0,0,.61-.11,1,1,0,0,0,.38-.3.74.74,0,0,0,.12-.39.67.67,0,0,0-.22-.51,2.82,2.82,0,0,0-.67-.35,2.3,2.3,0,0,1-.4-.2.31.31,0,0,1-.11-.22.3.3,0,0,1,.13-.24" transform="translate(-0.8 -1.39)"/><path class="cls-2" d="M66,57.39h.45l.08-.35H66l.21-1-.53.31-.14.65h-.37l-.08.35h.37l-.33,1.55a3.75,3.75,0,0,0-.07.41.34.34,0,0,0,.13.27.66.66,0,0,0,.44.14,1.25,1.25,0,0,0,.32,0l.08-.37a1.12,1.12,0,0,1-.27,0,.22.22,0,0,1-.16,0,.17.17,0,0,1-.05-.13,2.64,2.64,0,0,1,.06-.33Z" transform="translate(-0.8 -1.39)"/><path class="cls-2" d="M64,62.72a1,1,0,0,0-.48.13,1.5,1.5,0,0,0-.44.37.6.6,0,0,0-.23-.36.67.67,0,0,0-.43-.14,1,1,0,0,0-.44.11,1.84,1.84,0,0,0-.47.39l.1-.44h-.46l-.58,2.67H61l.27-1.26a1.91,1.91,0,0,1,.22-.63,1,1,0,0,1,.36-.34.83.83,0,0,1,.41-.12.31.31,0,0,1,.22.08.26.26,0,0,1,.09.21,1.38,1.38,0,0,1-.05.26l-.38,1.8h.46l.28-1.3a2.24,2.24,0,0,1,.21-.61.88.88,0,0,1,.34-.32.84.84,0,0,1,.42-.12.29.29,0,0,1,.24.08.23.23,0,0,1,.09.2,2,2,0,0,1,0,.31l-.38,1.76h.46l.38-1.72a2.2,2.2,0,0,0,.06-.41.59.59,0,0,0-.17-.44.79.79,0,0,0-.52-.16" transform="translate(-0.8 -1.39)"/><path class="cls-2" d="M59.71,63.94a2.7,2.7,0,0,1-.14.48,1.14,1.14,0,0,1-.22.37A.9.9,0,0,1,59,65a.86.86,0,0,1-.39.09.47.47,0,0,1-.28-.07.28.28,0,0,1-.09-.22,1.19,1.19,0,0,1,.05-.33l.4-1.73h-.47l-.36,1.54a2.55,2.55,0,0,0-.1.58.57.57,0,0,0,.2.43.72.72,0,0,0,.51.17,1.4,1.4,0,0,0,1-.54l-.11.49h.43l.61-2.67H60Z" transform="translate(-0.8 -1.39)"/><polygon class="cls-2" points="44.58 54.64 44.11 54.64 44 55.15 44.47 55.15 44.58 54.64"/><polygon class="cls-2" points="66.41 54.64 66.3 55.15 66.77 55.15 66.88 54.64 66.41 54.64"/><path class="cls-2" d="M71.49,57.13a1.1,1.1,0,0,0-.57-.14,1.22,1.22,0,0,0-.9.36,1,1,0,0,0-.36-.27,1.31,1.31,0,0,0-.5-.09,1.42,1.42,0,0,0-.8.21,1.19,1.19,0,0,0-.45.6l.46,0a.76.76,0,0,1,.29-.38.91.91,0,0,1,.49-.12.53.53,0,0,1,.37.11.37.37,0,0,1,.12.29,1,1,0,0,1-.06.31,2.74,2.74,0,0,1-.61.09l-.58.07a1.19,1.19,0,0,0-.39.13.63.63,0,0,0-.25.26.76.76,0,0,0-.1.39.72.72,0,0,0,.22.56.94.94,0,0,0,.65.22,1.27,1.27,0,0,0,1-.6,1,1,0,0,0,.43.45,1.09,1.09,0,0,0,.56.15,1.24,1.24,0,0,0,.75-.24,1.81,1.81,0,0,0,.54-.68l-.47,0a1.09,1.09,0,0,1-.37.44.75.75,0,0,1-.44.15.6.6,0,0,1-.44-.19.86.86,0,0,1-.17-.57s0-.1,0-.15h2a3.67,3.67,0,0,0,0-.39,1.2,1.2,0,0,0-.14-.57.85.85,0,0,0-.37-.4M69.15,59.2a.71.71,0,0,1-.53.22.54.54,0,0,1-.37-.13.44.44,0,0,1-.13-.32.4.4,0,0,1,.08-.26.49.49,0,0,1,.25-.16,1.31,1.31,0,0,1,.39-.06,6.54,6.54,0,0,0,.67-.1,1.45,1.45,0,0,1-.36.81m2.41-1.06H70.05a1.15,1.15,0,0,1,.37-.59.81.81,0,0,1,.52-.21.72.72,0,0,1,.32.08.54.54,0,0,1,.22.25.87.87,0,0,1,.08.37v.1" transform="translate(-0.8 -1.39)"/><polygon class="cls-2" points="65.62 57.21 66.09 57.21 66.66 55.65 66.2 55.65 65.62 57.21"/><path class="cls-2" d="M48.86,59.63a1.16,1.16,0,0,0,.56.14,1.27,1.27,0,0,0,.84-.3,1.46,1.46,0,0,0,.45-.62l-.46-.05a.88.88,0,0,1-.36.44.78.78,0,0,1-.47.16.59.59,0,0,1-.44-.2.81.81,0,0,1-.17-.57.71.71,0,0,1,0-.14h2a2.8,2.8,0,0,0,0-.4,1.09,1.09,0,0,0-.29-.81A1,1,0,0,0,49.8,57a1.31,1.31,0,0,0-.72.2,1.44,1.44,0,0,0-.54.6,2,2,0,0,0-.2.85,1.25,1.25,0,0,0,.13.59.89.89,0,0,0,.39.4m.4-2.09a.83.83,0,0,1,.55-.2.61.61,0,0,1,.45.18.7.7,0,0,1,.18.52.46.46,0,0,1,0,.1H48.89a1.19,1.19,0,0,1,.37-.6" transform="translate(-0.8 -1.39)"/><polygon class="cls-2" points="58.15 55.65 57.69 55.65 57.11 58.32 57.58 58.32 58.15 55.65"/><path class="cls-2" d="M62.75,58.47a1.57,1.57,0,0,1,.42-.86,1,1,0,0,1,.65-.25.43.43,0,0,1,.28.08.27.27,0,0,1,.1.22,1.64,1.64,0,0,1-.06.36l-.38,1.69h.46l.37-1.61a2.19,2.19,0,0,0,.07-.47.61.61,0,0,0-.19-.47.78.78,0,0,0-.53-.17,1.07,1.07,0,0,0-.49.12,2.2,2.2,0,0,0-.52.4L63,57H62.6L62,59.71h.46Z" transform="translate(-0.8 -1.39)"/><path class="cls-2" d="M45.76,59.71,46,58.47a1.57,1.57,0,0,1,.42-.86,1,1,0,0,1,.65-.25.47.47,0,0,1,.28.08.29.29,0,0,1,.09.22,2.29,2.29,0,0,1,0,.36L47,59.71h.47l.37-1.61a3.12,3.12,0,0,0,.07-.47.65.65,0,0,0-.19-.47.8.8,0,0,0-.53-.17,1.11,1.11,0,0,0-.5.12,2.69,2.69,0,0,0-.52.4l.1-.47h-.43l-.57,2.67Z" transform="translate(-0.8 -1.39)"/><path class="cls-2" d="M59.71,59.63a1.19,1.19,0,0,0,.56.14,1.25,1.25,0,0,0,.84-.3,1.31,1.31,0,0,0,.45-.62l-.45-.05a1,1,0,0,1-.37.44.78.78,0,0,1-.47.16.57.57,0,0,1-.43-.2.81.81,0,0,1-.18-.57.71.71,0,0,1,0-.14h2a1.87,1.87,0,0,0,0-.4,1.13,1.13,0,0,0-.29-.81,1.06,1.06,0,0,0-.79-.29,1.27,1.27,0,0,0-.71.2,1.44,1.44,0,0,0-.54.6,1.87,1.87,0,0,0-.21.85,1.25,1.25,0,0,0,.13.59.89.89,0,0,0,.39.4m.41-2.09a.79.79,0,0,1,.54-.2.62.62,0,0,1,.46.18.74.74,0,0,1,.17.52v.1H59.74a1.2,1.2,0,0,1,.38-.6" transform="translate(-0.8 -1.39)"/><polygon class="cls-2" points="58.37 54.64 57.9 54.64 57.79 55.15 58.26 55.15 58.37 54.64"/><path class="cls-4" d="M58.57,39.88a.07.07,0,1,0,0,.14.07.07,0,1,0,0-.14" transform="translate(-0.8 -1.39)"/><path class="cls-4" d="M48.24,39.88a.07.07,0,1,0,0,.14.07.07,0,1,0,0-.14" transform="translate(-0.8 -1.39)"/><path class="cls-4" d="M68.89,39.88a.07.07,0,1,0,0,.14.07.07,0,1,0,0-.14" transform="translate(-0.8 -1.39)"/><path class="cls-4" d="M37.92,39.88a.07.07,0,1,0,0,.14.07.07,0,1,0,0-.14" transform="translate(-0.8 -1.39)"/><path class="cls-2" d="M75,52.48v-7.3H68.58a10.08,10.08,0,0,1,.08-2c.21-.27,2.37-.55,2.61-2.69a2.49,2.49,0,0,0-4.54-1.69c-1.21,2.06,1.41,4.19,3,2.66a1.43,1.43,0,0,0-1.64-2.33,1.12,1.12,0,0,0,.77,2.1c.87-.26.74-1.42.08-1.36-.25,0-.23.21-.24.38.68-.71,1,.94-.2.86-1.34-.09-1-2.27.51-2,1.73.27,1.31,3-.68,2.81a2,2,0,0,1-.09-4,2.42,2.42,0,0,1,1.47,4.57c-1.7.9-3.23-.33-3.45-.3s-2,1.88-3.24,3.1H58.26a10.08,10.08,0,0,1,.08-2c.21-.27,2.37-.55,2.6-2.69.3-2.68-3.23-3.9-4.53-1.69s1.41,4.19,3,2.66a1.44,1.44,0,0,0-1.65-2.33,1.13,1.13,0,0,0,.78,2.1c.86-.26.74-1.42.08-1.36-.26,0-.24.21-.24.38.68-.71,1,.94-.2.86-1.34-.09-1-2.27.5-2,1.74.27,1.32,3-.68,2.81a2,2,0,0,1-.09-4,2.42,2.42,0,0,1,1.48,4.57c-1.7.9-3.24-.33-3.46-.3s-2,1.88-3.24,3.1H47.93a10.92,10.92,0,0,1,.08-2c.22-.27,2.38-.55,2.61-2.69.29-2.68-3.23-3.9-4.53-1.69s1.41,4.19,3,2.66a1.43,1.43,0,0,0-1.64-2.33,1.12,1.12,0,0,0,.77,2.1c.87-.26.75-1.42.08-1.36-.25,0-.23.21-.24.38.68-.71,1,.94-.19.86-1.34-.09-1-2.27.5-2,1.74.27,1.31,3-.68,2.81a2,2,0,0,1-.09-4,2.42,2.42,0,0,1,1.47,4.57c-1.69.9-3.23-.33-3.45-.3s-2,1.88-3.24,3.1H37.61a10.08,10.08,0,0,1,.08-2c.21-.27,2.37-.55,2.61-2.69a2.49,2.49,0,0,0-4.54-1.69c-1.21,2.06,1.41,4.19,3,2.66a1.44,1.44,0,0,0-1.64-2.33,1.12,1.12,0,0,0,.77,2.1c.87-.26.74-1.42.08-1.36-.25,0-.23.21-.24.38.68-.71,1,.94-.2.86-1.34-.09-1-2.27.51-2,1.73.27,1.31,3-.68,2.81a2,2,0,0,1-.1-4,2.42,2.42,0,0,1,1.48,4.57c-1.7.9-3.24-.33-3.45-.3s-2,1.88-3.24,3.1H26.44v7.3ZM68.89,40a.07.07,0,1,1,0-.14.07.07,0,1,1,0,.14M58.57,40a.07.07,0,1,1,0-.14.07.07,0,1,1,0,.14M48.24,40a.07.07,0,1,1,0-.14.07.07,0,1,1,0,.14M37.92,40a.07.07,0,1,1,0-.14.07.07,0,1,1,0,.14" transform="translate(-0.8 -1.39)"/></svg>