<?xml version="1.0" encoding="utf-8"?>
<!-- Generator: Adobe Illustrator 26.0.3, SVG Export Plug-In . SVG Version: 6.00 Build 0)  -->
<svg version="1.1" id="Camada_2_00000149367301377667598250000001755010546506733491_"
	 xmlns="http://www.w3.org/2000/svg" xmlns:xlink="http://www.w3.org/1999/xlink" x="0px" y="0px" viewBox="0 0 1522.6 924"
	 style="enable-background:new 0 0 1522.6 924;" xml:space="preserve">
<style type="text/css">
	.st0{opacity:0.15;fill:#3F4242;enable-background:new    ;}
	.st1{fill:none;}
	.st2{fill:#F7F7F7;}
	.st3{font-family:'OpenSans-SemiBold';}
	.st4{font-size:44px;}
	.st5{fill:#FFFFFF;}
	.st6{fill:#020203;}
	.st7{fill:#0D0E0E;}
	.st8{fill:#B7DDF6;}
	.st9{fill:#DBEFFA;}
	.st10{fill:#7FAADB;}
	.st11{fill:#4C6E9D;}
	.st12{fill:#5D84B8;}
	.st13{fill:#3AAEE4;}
	.st14{fill:#4A78A9;}
	.st15{fill:#FEFEFF;}
	.st16{fill:#2C0D0E;}
	.st17{fill:#F4981A;}
	.st18{fill:#FFEFA4;}
	.st19{fill:#BB9C48;}
	.st20{fill:#8C76A1;}
	.st21{fill:#DCD5EB;}
	.st22{fill:#B691C2;}
	.st23{fill:#F4CD2A;}
	.st24{fill:#98C33C;}
	.st25{fill:none;stroke:#FCE012;stroke-width:7;stroke-linecap:round;stroke-miterlimit:10;}
	.st26{fill:none;stroke:#F39579;stroke-width:7;stroke-linecap:round;stroke-miterlimit:10;}
	.st27{fill:none;stroke:#D4636C;stroke-width:7;stroke-linecap:round;stroke-miterlimit:10;}
	.st28{fill:none;stroke:#87BAE5;stroke-width:7;stroke-linecap:round;stroke-miterlimit:10;}
	.st29{fill:none;stroke:#1976BC;stroke-width:7;stroke-linecap:round;stroke-miterlimit:10;}
	.st30{fill:none;stroke:#51609B;stroke-width:7;stroke-linecap:round;stroke-miterlimit:10;}
	.st31{fill:#495F88;}
	.st32{fill:#221E20;}
	.st33{fill:#E7E8E9;}
	.st34{fill:url(#SVGID_1_);}
</style>
<path class="st0" d="M1456.2,922.9H66.4c-35.6,0-64.5-28.9-64.5-64.5V65.6C1.8,30,30.7,1.1,66.4,1.1h1389.8
	c35.6,0,64.5,28.9,64.5,64.5v792.8C1520.7,894,1491.8,922.9,1456.2,922.9z"/>
<g>
	<rect x="882.2" y="213.5" class="st1" width="480.3" height="44.2"/>
	<text transform="matrix(1 0 0 1 882.2358 246.9467)" class="st2 st3 st4">Arquivos de Programa</text>
	<rect x="1036.6" y="657.2" class="st1" width="387.8" height="44.2"/>
	<text transform="matrix(1 0 0 1 1022.6324 693.6853)" class="st2 st3 st4">Vídeos e Imagens</text>
	<rect x="291.7" y="148.1" class="st1" width="131.3" height="44.2"/>
	<text transform="matrix(1 0 0 1 291.6721 172.0069)" class="st2 st3 st4">Códigos</text>
	<rect x="98.1" y="433.6" class="st1" width="275.5" height="34.5"/>
	<text transform="matrix(1 0 0 1 98.1282 467.0208)" class="st2 st3 st4">Documentos</text>
	<rect x="206.2" y="690.7" class="st1" width="218.5" height="34.5"/>
	<text transform="matrix(1 0 0 1 206.1653 714.6045)" class="st2 st3 st4">Art Digital</text>
	<g>
		<path class="st5" d="M195.7,421.2v-96.7h50.6l24.1,24.1v72.7L195.7,421.2L195.7,421.2z"/>
		<path class="st6" d="M245.7,325.8l23.2,23.2v70.7H197v-94L245.7,325.8 M246.9,323.1h-52.5v99.5h77.4V348L246.9,323.1L246.9,323.1z
			"/>
		<path class="st5" d="M245.5,349.3v-24.9h0.8l24.1,24.1v0.8H245.5z"/>
		<path class="st6" d="M246.9,327l21,21h-21V327 M246.9,323.1h-2.8v27.6h27.6v-2.8L246.9,323.1L246.9,323.1z M210.9,361.7h44.2v2.8
			h-44.2V361.7z M210.9,370h33.2v2.8h-33.2V370z M210.9,378.3h44.2v2.8h-44.2V378.3z M210.9,386.6h33.2v2.8h-33.2V386.6z
			 M210.9,394.9h44.2v2.8h-44.2V394.9z"/>
	</g>
	<g>
		<path class="st5" d="M336,128.5V31.7h50.6l24.1,24.1v72.7H336z"/>
		<path class="st6" d="M386,33.1l23.2,23.2V127h-71.9V33L386,33.1 M387.1,30.3h-52.5v99.5H412V55.2L387.1,30.3L387.1,30.3z"/>
		<path class="st5" d="M385.8,56.6V31.7h0.8l24.1,24.1v0.8C410.7,56.6,385.8,56.6,385.8,56.6z"/>
		<path class="st6" d="M387.1,34.3l21,21h-21V34.3 M387.1,30.3h-2.8V58H412v-2.8L387.1,30.3L387.1,30.3z"/>
	</g>
	<g>
		<path d="M366,106.7l3.1,1.1c0.1,0,0.1,0,0.2-0.1l11.5-31.8c0-0.1,0-0.1-0.1-0.2l-3.1-1.1c-0.1,0-0.1,0-0.2,0.1l-11.5,31.8
			C365.9,106.6,365.9,106.7,366,106.7z"/>
		<path d="M365.5,100l-1.5,1.6c-0.3,0.3-0.7,0.3-1,0L352.9,92c-0.1-0.1-0.1-0.1-0.1-0.2l0,0c-0.2-0.3-0.1-0.6,0.1-0.8l9.7-10.1
			c0.3-0.3,0.7-0.3,1,0l1.6,1.5c0.3,0.3,0.3,0.7,0,1l-7.8,8l8.1,7.7C365.8,99.3,365.8,99.7,365.5,100z"/>
		<path d="M381.1,100l1.5,1.6c0.3,0.3,0.7,0.3,1,0l10.2-9.6c0.1-0.1,0.1-0.1,0.1-0.2l0,0c0.2-0.3,0.1-0.6-0.1-0.8l-9.7-10.1
			c-0.3-0.3-0.7-0.3-1,0l-1.6,1.5c-0.3,0.3-0.3,0.7,0,1l7.8,8l-8.1,7.7C380.9,99.3,380.9,99.7,381.1,100z"/>
	</g>
	<g>
		<g>
			<path class="st5" d="M1185.5,646.1v-96.7h50.6l24.1,24.1v72.7L1185.5,646.1L1185.5,646.1z"/>
			<path class="st7" d="M1235.4,550.7l23.2,23.2v70.7h-71.9v-94L1235.4,550.7 M1236.6,548h-52.5v99.5h77.4v-74.6L1236.6,548
				L1236.6,548z"/>
			<path class="st5" d="M1235.2,574.2v-24.9h0.8l24.1,24.1v0.8L1235.2,574.2L1235.2,574.2z"/>
			<path class="st6" d="M1236.6,551.9l21,21h-21V551.9 M1236.6,548h-2.8v27.6h27.6v-2.8L1236.6,548L1236.6,548z"/>
			<g>
				<path class="st8" d="M1195.2,585h54.9v35.1h-54.9V585z"/>
				<path class="st9" d="M1195.2,604.7h54.9v15.7h-54.9V604.7z"/>
				<path class="st10" d="M1195.2,620.4h54.9v7.8h-54.9V620.4z"/>
				<path class="st9" d="M1212.4,596.8c-3.8,0-6.9,2.8-6.9,6.2s3.1,6.2,6.9,6.2l0,0c3.8,0,6.9-2.8,6.9-6.2
					S1216.2,596.8,1212.4,596.8L1212.4,596.8z"/>
				<path class="st9" d="M1205.5,598.4c-2.8,0-5.2,2.1-5.2,4.6s2.3,4.6,5.2,4.6l0,0c2.8,0,5.2-2.1,5.2-4.6
					S1208.4,598.4,1205.5,598.4L1205.5,598.4z M1222.7,599.9c-3.8,0-6.9,2.8-6.9,6.2s3.1,6.2,6.9,6.2s6.9-2.8,6.9-6.2
					S1226.5,599.9,1222.7,599.9z"/>
				<path class="st9" d="M1233,596.8c-3.8,0-6.9,2.8-6.9,6.2s3.1,6.2,6.9,6.2l0,0c3.8,0,6.9-2.8,6.9-6.2S1236.8,596.8,1233,596.8
					L1233,596.8z M1246.7,599.9c-1.9,0-3.4,1.4-3.4,3.1s1.5,3.1,3.4,3.1s3.4-1.4,3.4-3.1S1248.6,599.9,1246.7,599.9z M1198.7,599.9
					c-1.9,0-3.4,1.4-3.4,3.1s1.5,3.1,3.4,3.1s3.4-1.4,3.4-3.1S1200.6,599.9,1198.7,599.9z"/>
				<path class="st9" d="M1239.8,598.4c-2.8,0-5.2,2.1-5.2,4.6s2.3,4.6,5.2,4.6l0,0c2.8,0,5.2-2.1,5.2-4.6
					C1245,600.4,1242.7,598.4,1239.8,598.4C1239.9,598.4,1239.9,598.4,1239.8,598.4z"/>
				<path class="st11" d="M1195.2,620.4h54.9v-3.2l-17.2-10.6L1195.2,620.4z"/>
				<path class="st12" d="M1236.4,620.4h-41.2v-7.8l17.2-7.8L1236.4,620.4z"/>
			</g>
		</g>
		<g>
			<path class="st5" d="M1132.6,596.5v-96.7h50.6l24.1,24.1v72.7L1132.6,596.5L1132.6,596.5z"/>
			<path class="st7" d="M1182.6,501.1l23.2,23.2V595H1134v-94L1182.6,501.1 M1183.7,498.3h-52.5v99.5h77.4v-74.6L1183.7,498.3
				L1183.7,498.3z"/>
			<path class="st5" d="M1182.4,524.6v-24.9h0.8l24.1,24.1v0.8H1182.4z"/>
			<path class="st6" d="M1183.7,502.3l21,21h-21V502.3 M1183.7,498.3h-2.8V526h27.6v-2.8L1183.7,498.3L1183.7,498.3z"/>
			<g>
				<g>
					<path class="st13" d="M1142,539.6h54.9v35.1H1142V539.6z"/>
					<path class="st10" d="M1142,574.9h54.9v7.8H1142V574.9z"/>
					<path class="st11" d="M1142,574.9h54.9v-3.2l-17.2-10.6L1142,574.9z"/>
					<path class="st14" d="M1183.2,574.9H1142V567l17.2-7.8L1183.2,574.9z"/>
				</g>
				<g>
					<rect x="1144.7" y="542.9" class="st15" width="6.4" height="5.7"/>
					<rect x="1144.7" y="553.1" class="st15" width="6.4" height="5.7"/>
					<rect x="1144.7" y="573.4" class="st15" width="6.4" height="5.7"/>
					<rect x="1144.7" y="563.2" class="st15" width="6.4" height="5.7"/>
				</g>
				<g>
					<rect x="1187.9" y="542.9" class="st15" width="6.4" height="5.7"/>
					<rect x="1187.9" y="553.1" class="st15" width="6.4" height="5.7"/>
					<rect x="1187.9" y="573.4" class="st15" width="6.4" height="5.7"/>
					<rect x="1187.9" y="563.2" class="st15" width="6.4" height="5.7"/>
				</g>
			</g>
		</g>
	</g>
	<g>
		<g>
			<path class="st5" d="M302.4,661.4v-96.7H353l24.1,24.1v72.7L302.4,661.4L302.4,661.4z"/>
			<path class="st6" d="M352.4,566.1l23.2,23.2V660h-71.9v-94L352.4,566.1 M353.6,563.3H301v99.5h77.4v-74.6L353.6,563.3
				L353.6,563.3z"/>
			<path class="st5" d="M352.2,589.6v-24.9h0.8l24.1,24.1v0.8L352.2,589.6L352.2,589.6z"/>
			<path class="st6" d="M353.6,567.2l21,21h-21V567.2 M353.6,563.3h-2.8v27.6h27.6v-2.8L353.6,563.3L353.6,563.3z"/>
		</g>
		<g>
			<path class="st16" d="M359.8,637.3c0,3.3-2.7,6-6,6h-31.3c-3.3,0-6-2.7-6-6V606c0-3.3,2.7-6,6-6h31.3c3.3,0,6,2.7,6,6V637.3z"/>
			<path class="st17" d="M338.2,625.7h-6.5l-1.3,4.1c0,0.2-0.2,0.3-0.3,0.2h-3.3c-0.2,0-0.2-0.1-0.2-0.3l5.6-16.2
				c0-0.2,0.1-0.4,0.2-0.6c0.1-0.4,0.1-0.8,0.1-1.1c0-0.1,0-0.2,0.1-0.2l0,0h4.5c0.1,0,0.2,0,0.2,0.1l6.4,18c0,0.2,0,0.3-0.2,0.3
				h-3.6c-0.1,0-0.2-0.1-0.3-0.2L338.2,625.7L338.2,625.7z M332.7,622.1h4.4c-0.1-0.4-0.2-0.8-0.4-1.2c-0.2-0.5-0.3-1-0.5-1.5
				s-0.3-1.1-0.5-1.6s-0.3-1-0.5-1.5c-0.1-0.5-0.3-0.9-0.4-1.4l0,0c-0.2,0.8-0.4,1.5-0.6,2.2c-0.3,0.8-0.5,1.7-0.8,2.6
				C333.2,620.6,332.9,621.4,332.7,622.1z"/>
			<path class="st17" d="M347.6,614.7c-0.6,0-1.1-0.2-1.5-0.6c-0.4-0.4-0.6-1-0.6-1.6s0.2-1.2,0.6-1.5c0.4-0.4,1-0.6,1.5-0.6
				c0.7,0,1.2,0.2,1.6,0.6c0.4,0.4,0.6,1,0.6,1.5c0,0.6-0.2,1.2-0.6,1.6C348.8,614.5,348.2,614.7,347.6,614.7L347.6,614.7z
				 M345.6,629.8v-13.4c0-0.2,0.1-0.2,0.2-0.2h3.5c0.2,0,0.2,0.1,0.2,0.2v13.4c0,0.2-0.1,0.3-0.2,0.3h-3.4
				C345.7,630.1,345.6,630,345.6,629.8z"/>
		</g>
	</g>
	<g>
		<g>
			<path class="st5" d="M1086.9,190.3V93.5h50.6l24.1,24.1v72.7L1086.9,190.3L1086.9,190.3z"/>
			<path class="st6" d="M1136.9,94.9l23.2,23.2v70.7h-71.9v-94L1136.9,94.9 M1138,92.2h-52.5v99.5h77.4V117L1138,92.2L1138,92.2z"/>
			<path class="st5" d="M1136.7,118.4V93.5h0.8l24.1,24.1v0.8H1136.7L1136.7,118.4z"/>
			<path class="st6" d="M1138,96.1l21,21h-21V96.1 M1138,92.2h-2.8v27.6h27.6V117L1138,92.2L1138,92.2z"/>
		</g>
		<g>
			<path class="st18" d="M1115.8,161.4v-2.2c0-2.3-1.4-4.5-3-7.1c-2-3.1-4.2-6.6-4.2-10.9c0-7.6,6.2-13.8,13.8-13.8
				c7.6,0,13.8,6.2,13.8,13.8c0,4.3-2.2,7.8-4.2,10.9c-1.6,2.6-3,4.8-3,7.1v2.2H1115.8z"/>
			<path class="st19" d="M1122.4,128c7.3,0,13.2,5.9,13.2,13.2c0,4.2-2.2,7.6-4.1,10.6c-1.6,2.5-3.1,4.9-3.1,7.4v1.6h-6h-6v-1.6
				c0-2.5-1.5-4.9-3.1-7.4c-1.9-3-4.1-6.4-4.1-10.6C1109.2,133.9,1115.1,128,1122.4,128 M1122.4,126.8c-7.9,0-14.4,6.4-14.4,14.4
				s7.2,13.1,7.2,18v2.8h7.2h7.2v-2.8c0-4.8,7.2-10,7.2-18C1136.8,133.3,1130.3,126.8,1122.4,126.8L1122.4,126.8z"/>
			<path class="st5" d="M1125.6,139.2c0.6,0,1.2,0.2,1.6,0.7c0.9,0.9,0.9,2.3,0,3.2l-2.1,2.1l-0.3,0.3v0.5v14.4h-4.8V146v-0.5
				l-0.3-0.3l-2.1-2.1c-0.9-0.9-0.9-2.3,0-3.2c0.4-0.4,1-0.7,1.6-0.7s1.2,0.2,1.6,0.7l0.8,0.8l0.8,0.9l0.8-0.9l0.8-0.8
				C1124.5,139.4,1125,139.2,1125.6,139.2 M1125.6,138c-0.9,0-1.8,0.3-2.4,1l-0.8,0.8l-0.8-0.8c-0.7-0.7-1.6-1-2.4-1
				c-0.9,0-1.8,0.3-2.4,1c-1.3,1.3-1.3,3.5,0,4.9l2.1,2.1v15.6h7.2V146l2.1-2.1c1.3-1.4,1.3-3.5,0-4.9
				C1127.4,138.3,1126.5,138,1125.6,138L1125.6,138z"/>
			<path class="st20" d="M1122.4,162.8c-2.7,0-4.8,2.1-4.8,4.8c0,2.6,2.2,4.8,4.8,4.8s4.8-2.1,4.8-4.8
				C1127.2,164.9,1125,162.8,1122.4,162.8z"/>
			<path class="st21" d="M1118.8,169.4c-1.7,0-3-1.4-3-3v-6.6h13.2v6.6c0,1.6-1.3,3-3,3H1118.8z"/>
			<path class="st20" d="M1128.4,160.4v6c0,1.3-1.1,2.4-2.4,2.4h-7.2c-1.3,0-2.4-1.1-2.4-2.4v-6H1128.4 M1129.6,159.2h-14.4v7.2
				c0,2,1.6,3.6,3.6,3.6h7.2c2,0,3.6-1.6,3.6-3.6L1129.6,159.2L1129.6,159.2z"/>
			<path class="st20" d="M1121.2,166.4h7.8v1.2h-7.8V166.4z M1115.8,166.4h2.9v1.2h-2.9V166.4z M1121.2,164h8.4v1.2h-8.4V164z
				 M1115.2,164h3.6v1.2h-3.6V164z M1121.2,161.6h8.4v1.2h-8.4V161.6z M1115.2,161.6h3.6v1.2h-3.6V161.6z"/>
		</g>
	</g>
	<path class="st1" d="M906.1,870.1H756.3c-2.2,0-3.9-1.3-3.9-3v-28.6c0-1.6,1.8-3,3.9-3h149.9c2.2,0,3.9,1.3,3.9,3v28.6
		C910,868.8,908.3,870.1,906.1,870.1z"/>
	<text transform="matrix(1 0 0 1 752.2508 874.0858)" class="st2 st3 st4">Fontes</text>
	<g>
		<g>
			<path class="st5" d="M790.3,825.5v-90.8c0-1.6,1.3-3,3-3h46.4c0.8,0,1.5,0.3,2.1,0.9l22.3,22.3c0.6,0.6,0.9,1.3,0.9,2.1v68.5
				c0,1.6-1.3,3-3,3h-68.7C791.6,828.5,790.3,827.1,790.3,825.5z"/>
			<path class="st6" d="M840.3,733.1l22.4,22.4c0.6,0.6,0.9,1.3,0.9,2.1v66.5c0,1.6-1.3,3-3,3h-65.9c-1.6,0-3-1.3-3-3v-88
				c0-1.6,1.3-3,3-3H840.3 M841.4,730.4h-49.5c-1.6,0-3,1.3-3,3V827c0,1.6,1.3,3,3,3h71.5c1.6,0,3-1.3,3-3v-70.4
				c0-0.8-0.3-1.5-0.9-2.1L841.4,730.4L841.4,730.4z"/>
			<path class="st5" d="M843,756.6c-1.6,0-3-1.3-3-3v-21.9h0.8l24.1,24.1v0.8L843,756.6L843,756.6z"/>
			<path class="st6" d="M841.4,734.3l15.9,15.9c1.9,1.9,0.5,5.1-2.1,5.1h-10.9c-1.6,0-3-1.3-3-3L841.4,734.3 M841.4,730.4h-2.8V755
				c0,1.6,1.3,3,3,3h24.7v-1.5c0-0.8-0.3-1.5-0.9-2.1L841.4,730.4L841.4,730.4z"/>
		</g>
		<g>
			<path class="st22" d="M847.6,801.4c0,5-4,9-9,9h-25.4c-5,0-9-4-9-9V776c0-5,4-9,9-9h25.4c5,0,9,4,9,9V801.4z"/>
			<path class="st23" d="M820.7,786.3h-4.3c-1.3,0-2.4,0.8-2.8,2l0,0c-1.2,0.8-2,1.5-3.2,2.3h-1.1c-0.2,0-0.2-0.1-0.2-0.3l5.6-16.2
				c0-0.2,0.1-0.4,0.2-0.6c0.1-0.4,0.1-0.8,0.1-1.1c0-0.1,0-0.2,0.1-0.2l0,0h4.5c0.1,0,0.2,0,0.2,0.1l6.4,18c0,0.2,0,0.3-0.2,0.3
				h-1.5c-1.1-0.8-2-1.4-3.1-2.2L820.7,786.3L820.7,786.3z M815.2,782.8h4.4c-0.1-0.4-0.2-0.8-0.4-1.2c-0.2-0.5-0.3-1-0.5-1.5
				s-0.3-1.1-0.5-1.6s-0.3-1-0.5-1.5c-0.1-0.5-0.3-0.9-0.4-1.4l0,0c-0.2,0.8-0.3,1.5-0.6,2.2c-0.3,0.8-0.5,1.7-0.8,2.6
				C815.7,781.2,815.5,782,815.2,782.8z"/>
			<g>
				<path class="st24" d="M833.7,804.8c-1.5-0.9-1.8-4.8-1.8-8.3c0-1.8,0.1-3.6,0.2-4.7c-1.2,3.8-2.7,8.3-4.4,8.6l-0.5,0.1
					c-2.8,0-3.6-3.3-3.6-6.1l0.1-1.5c0.3-3.3,2-8.8,5.7-8.8l0.8,0.1c1,0.2,2,1,2.5,1.8l0.2-1.2c0.2-0.7,1-1.1,1.9-1.1
					s1.8,0.5,1.8,1.5l-0.1,0.2c-0.1,1.2-1.2,9.3-1.2,14.6c0,1.2,0.1,2.2,0.2,3c0.1,0.7,0.2,1.2,0.4,1.2c2.3-0.7,6.1-11.6,7.6-14.6
					c0.1-0.2,0.2-0.2,0.4-0.2c0.1,0,0.4,0.1,0.4,0.4c0,0,0,0.1-0.1,0.2c-1.6,3.3-5.3,14.2-8.1,15c-0.4,0.1-0.7,0.2-1.1,0.2
					C834.7,805.3,834.2,805.2,833.7,804.8z M832.4,787.5c-0.2-0.6-0.5-1.2-0.9-1.6c-0.4-0.4-0.9-0.7-1.4-0.9c-1.3,0.7-3,9.3-3,13
					c0,0.7,0.1,1.2,0.2,1.5l0.2,0.1C829.2,799.6,831.8,789.5,832.4,787.5z"/>
			</g>
		</g>
	</g>
	<polyline class="st25" points="538.4,301.4 457.5,197.3 449.3,197.3 295.2,198.8 	"/>
	<polyline class="st26" points="498.5,392.2 386,484.8 377.8,484.8 223.7,486.2 	"/>
	<polyline class="st27" points="570.1,535.3 463.1,742.8 454.9,742.8 300.8,744.2 	"/>
	<polyline class="st28" points="875.5,364.7 1005.4,269 1013.6,269 1167.7,270.4 	"/>
	<polyline class="st29" points="850.7,535.3 1008.9,719.1 1017.1,719.1 1171.2,720.6 	"/>
	<polyline class="st30" points="682.9,604.1 726.9,893 794.6,893.7 833,893.7 	"/>
	<g>
		<g>
			<path class="st31" d="M717.9,311.6c0.4,0.8,1.1,1.3,1.9,1.5c1,0.2,2.1,0,3-0.5c1-0.4,1.8-1.1,2.2-2.1c0.4-0.7,0.4-1.6,0-2.4
				c-0.4-0.8-1.1-1.3-1.9-1.5c-1-0.2-2.1-0.1-3,0.5c-1,0.4-1.8,1.1-2.2,2.1C717.5,310,717.5,310.8,717.9,311.6"/>
			<path class="st31" d="M544.2,272.7c-0.5-0.6-1.3-1-2.1-1.2c-0.7-0.1-1.3,0.1-1.8,0.5c-0.6,0.4-0.9,1.1-0.9,1.8
				c0,0.8,0.3,1.5,0.9,2.1L544.2,272.7z"/>
			<path class="st31" d="M525.8,293.5c0.8,0.7,1.8,1.1,2.9,1c0.9,0,1.7-0.4,2.2-1.1c0.5-0.6,0.8-1.5,0.6-2.3
				c-0.6-2.1-2.5-3.5-4.6-3.6c-0.8,0-1.6,0.4-2.2,1.1c-0.5,0.6-0.8,1.5-0.6,2.3C524.3,292,524.9,292.9,525.8,293.5"/>
			<path class="st31" d="M730,348.3c0.9,0.5,1.9,0.7,3,0.5c1.1-0.1,2.1-0.5,2.9-1.2c0.6-0.6,0.8-1.4,0.7-2.1
				c-0.1-0.8-0.5-1.5-1.2-1.8c-0.9-0.5-2-0.6-3-0.4c-1.1,0-2.1,0.4-2.9,1.1c-0.5,0.5-0.8,1.3-0.7,2
				C728.9,347.2,729.4,347.9,730,348.3"/>
			<path class="st31" d="M727.3,333.7c1,0.4,2.1,0.4,3.1,0c1-0.2,1.9-0.8,2.6-1.6c0.5-0.7,0.6-1.6,0.4-2.3c-0.2-0.8-0.8-1.5-1.6-1.8
				c-2-0.7-4.3-0.1-5.7,1.6c-0.5,0.7-0.6,1.6-0.4,2.4C726,332.7,726.6,333.3,727.3,333.7"/>
			<path class="st31" d="M519.9,307.1c0.4,0.2,0.9,0.2,1.3,0c0.5-0.1,0.9-0.4,1.1-0.9c0.3-0.5,0.4-1.2,0.4-1.8
				c-0.1-0.5-0.3-0.9-0.6-1.2c-0.4-0.3-0.9-0.6-1.4-0.9l-0.6-0.3c-0.1,0.7-0.3,1.3-0.6,2c-0.2,0.6-0.4,1.2-0.4,1.9
				c0,0.5,0.3,0.9,0.7,1.1"/>
			<path class="st31" d="M640.9,469.8c0.1,0.8,0.6,1.5,1.3,1.9c0.5,0.4,1.2,0.5,1.9,0.4c0.7-0.1,1.3-0.6,1.6-1.2
				c0.3-0.7,0.3-1.5,0-2.3L640.9,469.8z"/>
			<path class="st31" d="M692.2,272.1l3.8,3.2c0.6-0.6,0.9-1.4,0.9-2.2c0-0.7-0.3-1.3-0.8-1.7c-0.5-0.5-1.2-0.7-1.9-0.6
				C693.4,271.1,692.7,271.5,692.2,272.1"/>
			<path class="st31" d="M645.9,255c0.6,0.2,1.3,0.2,1.9,0c0.4-0.2,0.8-0.5,1.1-0.9c0.3-0.5,0.4-1,0.6-1.5l0.2-0.6
				c-0.5,0-1.2,0-2.1,0c-0.6-0.1-1.3-0.1-1.9,0c-0.5,0.1-0.8,0.5-1,0.9c-0.1,0.4-0.1,0.9,0.2,1.3c0.2,0.4,0.7,0.8,1.2,0.9"/>
			<path class="st31" d="M503.8,361.6c1,0.1,2.1-0.2,3-0.8c0.7-0.6,1-1.4,1-2.2c0-0.8-0.3-1.7-1-2.2c-0.8-0.6-1.9-1-2.9-0.9
				c-1-0.1-2.1,0.2-2.9,0.8c-0.7,0.5-1.1,1.3-1.1,2.2c0,0.8,0.3,1.7,1,2.2C501.6,361.2,502.7,361.5,503.8,361.6"/>
			<polygon class="st31" points="563.3,260.5 557.9,256.2 559.1,262.9 			"/>
			<path class="st31" d="M617,248.8c-0.4,0.2-0.7,0.7-0.7,1.2c0,0.5,0.2,0.9,0.5,1.2c0.4,0.3,0.8,0.5,1.3,0.5c0.6,0,1.2-0.2,1.8-0.5
				c0.4-0.2,0.7-0.6,0.8-1.1c0.1-0.5,0.2-1.1,0.2-1.6v-0.7c-0.7,0.2-1.4,0.4-2.1,0.5C618.2,248.3,617.5,248.5,617,248.8"/>
			<path class="st31" d="M659.2,460.8c-0.7-0.6-1.7-0.8-2.6-0.5c-0.7,0.2-1.3,0.8-1.6,1.6c-0.3,1-0.2,2.1,0.2,3
				c0.3,1.1,0.9,2,1.8,2.7c1.3,0.8,2.9,0.4,3.7-0.9c0.1-0.1,0.1-0.3,0.2-0.4c0.4-0.9,0.4-2,0-2.9c-0.3-1-0.8-1.9-1.5-2.6"/>
			<path class="st31" d="M631.2,254.6c0.5,0.2,1,0.3,1.6,0.3c0.4,0,0.9,0,1.3,0c-0.4-0.2-0.9-0.3-1.4-0.4
				C632.2,254.5,631.7,254.5,631.2,254.6"/>
			<path class="st31" d="M509.6,332.9c0.4,0.2,0.9,0.2,1.3,0c0.4-0.2,0.8-0.6,0.9-1.1c0.2-0.6,0.2-1.2,0-1.8c-0.2-0.4-0.5-0.8-0.9-1
				c-0.5-0.3-1-0.5-1.6-0.6l-0.6-0.2c0,0.7,0,1.4,0,2.1c-0.1,0.6-0.1,1.3,0,1.9c0.2,0.5,0.5,0.8,1,0.9"/>
			<path class="st31" d="M518.2,320c0.3-0.4,0.5-0.9,0.7-1.4c0.2-0.4,0.3-0.8,0.4-1.2c-0.3,0.4-0.6,0.9-0.7,1.4
				c-0.2,0.4-0.3,0.9-0.4,1.3"/>
			<path class="st31" d="M660.8,259.5c0.8,0.4,1.7,0.4,2.5,0c1.7-1.2,2.6-3.3,2.2-5.3c-0.3-0.8-0.9-1.4-1.7-1.7
				c-0.8-0.3-1.7-0.3-2.5,0c-0.9,0.5-1.6,1.3-1.9,2.3c-0.5,0.9-0.5,2-0.2,3C659.3,258.6,659.9,259.2,660.8,259.5"/>
			<path class="st31" d="M588.2,252.9c-0.3,0.4-0.4,0.8-0.3,1.3c0.1,0.4,0.4,0.8,0.8,1c0.5,0.2,1,0.2,1.4,0c0.6-0.2,1.1-0.5,1.5-1
				c0.3-0.4,0.5-0.8,0.5-1.3c0-0.5-0.2-1.1-0.3-1.6l-0.2-0.6c-0.6,0.4-1.2,0.7-1.9,1c-0.6,0.3-1.1,0.6-1.6,1"/>
			<path class="st31" d="M534,430.2c-1.1,0.1-2.1,0.5-2.9,1.2c-0.8,0.6-1.4,1.5-1.6,2.5c-0.2,0.8,0.1,1.7,0.6,2.3
				c0.6,0.6,1.4,1,2.2,1c2.1-0.2,3.8-1.6,4.5-3.6c0.1-0.8-0.1-1.7-0.7-2.3c-0.6-0.7-1.4-1-2.2-1"/>
			<path class="st31" d="M686.2,447.6c0.2-0.4,0.2-0.9,0-1.3c-0.3-0.4-0.7-0.6-1.2-0.7c-0.5-0.1-1,0.1-1.4,0.4
				c-0.5,0.3-0.9,0.9-1.1,1.4c-0.1,0.4-0.1,0.9,0,1.4c0.2,0.5,0.5,1,0.9,1.4l0.4,0.5c0.3-0.4,0.8-0.9,1.4-1.6c0.5-0.4,0.8-1,1.2-1.5
				"/>
			<path class="st31" d="M726.2,401l-2.1,4.5c0.7,0.3,1.6,0.4,2.4,0.2c0.6-0.2,1.1-0.7,1.4-1.3c0.3-0.6,0.3-1.3,0-1.9
				C727.5,401.8,726.9,401.2,726.2,401"/>
			<path class="st31" d="M749.6,468c1.2-1.1,1.8-2.7,1.8-4.3c0-1.6-0.7-3-1.8-4.1l-26.7-26l1.1-1.5c12-16.1,20-34.9,23.3-54.7
				l0.3-1.8h37.7c3.4,0,6.2-2.7,6.2-6.1c0-0.1,0-0.2,0-0.3v-25.3c-0.1-3.4-2.9-6.1-6.2-6.1h-37.7l-0.3-1.8
				c-3.4-19.7-11.3-38.3-23.3-54.4l-1.1-1.5l26.7-26c2.4-2.3,2.4-6,0.1-8.4c0-0.1-0.1-0.1-0.1-0.1l-18.3-17.8
				c-2.5-2.4-6.4-2.4-8.8,0l-26.6,26l-1.5-1c-16.8-11.8-36-19.5-56.2-22.7l-1.8-0.3v-36.7c-0.1-3.4-2.9-6.1-6.2-6h-25.9
				c-3.4,0-6.1,2.7-6.2,6V230l-1.8,0.3c-20.2,3.2-39.5,10.9-56.2,22.7l-1.5,1l-26.6-26c-2.5-2.4-6.4-2.4-8.8,0l-18.4,17.8
				c-2.4,2.3-2.4,6-0.1,8.4c0,0.1,0.1,0.1,0.1,0.1l26.7,26l-1.1,1.5c-12,16.1-20,34.9-23.3,54.7l-0.3,1.8h-37.7
				c-3.4,0-6.2,2.7-6.2,6.1v25.3c0.1,3.4,2.9,6.1,6.2,6.1h37.7l0.3,1.8c3.3,19.8,11.3,38.5,23.3,54.7l1.1,1.5l-26.7,26
				c-1.2,1.1-1.8,2.7-1.8,4.3c0,1.6,0.7,3.1,1.8,4.3l18.3,17.8c2.5,2.4,6.4,2.4,8.8,0l26.6-26l1.5,1c16.8,11.8,36,19.5,56.2,22.7
				l1.8,0.3v36.6c0.1,3.4,2.9,6.1,6.2,6h25.9c3.4,0,6.2-2.6,6.2-6v-36.7l1.8-0.3c20.2-3.2,39.5-10.9,56.2-22.7l1.5-1l26.6,26
				c2.5,2.4,6.4,2.4,8.8,0L749.6,468z M730.4,405.5c-0.7,1.6-2,2.8-3.6,3.2c-2.1,0.4-4.2,0-6-1.1l3.6-7.6c-0.8-0.3-1.7-0.3-2.5,0
				c-0.7,0.2-1.3,0.7-1.6,1.4c-0.2,0.4-0.2,0.9,0,1.4c0.2,0.5,0.5,1,0.9,1.3l-1.9,2.8c-0.9-0.8-1.5-1.8-1.7-3
				c-0.2-1.2,0-2.5,0.5-3.6c0.7-1.8,2.2-3.1,4-3.6c1.6-0.3,3.2,0,4.6,0.6c1.7,0.7,3.1,2,3.9,3.6c0.7,1.4,0.7,3.1,0,4.5 M724.2,341.2
				h0.4v3.6c-0.3,0.1-0.7,0.3-0.9,0.6c-0.2,0.5-0.2,1,0,1.5c0,0.7,0.3,1.3,0.6,1.9c0.2,0.3,0.6,0.5,0.9,0.5c0.5,0.1,1,0.1,1.6,0
				l1.9-0.2c-2.3-1.1-3.2-3.8-2.2-6.1c0.3-0.6,0.7-1.2,1.3-1.6c1.2-1,2.6-1.6,4.1-1.7c1.8-0.3,3.6,0,5.1,0.9c1.2,0.8,2,2.1,2.2,3.6
				c0.2,1.5-0.4,3.1-1.6,4l1.8-0.2l0.4,3.1l-11.5,1.4c-1.1,0.2-2.3,0.2-3.4,0c-0.7-0.1-1.3-0.4-1.9-0.8c-0.5-0.4-0.9-1-1.2-1.6
				c-0.4-0.9-0.6-1.8-0.7-2.7c-0.4-1.6-0.2-3.2,0.5-4.6c0.6-0.9,1.6-1.5,2.7-1.7 M722.9,329.3c0.2-1.1,0.8-2.1,1.6-2.9
				c1-0.9,2.2-1.5,3.5-1.8c1.1-0.3,2.3-0.3,3.4,0c1.1,0.2,2.2,0.8,3,1.6c0.8,0.8,1.4,1.8,1.7,3c0.5,1.7,0.3,3.5-0.5,5
				c-0.9,1.5-2.4,2.6-4.1,3c-1.7,0.5-3.6,0.3-5.2-0.5c-1.6-0.8-2.7-2.2-3.1-3.9c-0.3-1.1-0.3-2.3,0-3.4 M737.6,383.9
				c-0.2,1.1-0.7,2.2-1.3,3.1c-0.4,0.6-1,1-1.7,1.2c-1,0.1-2.1,0-3.1-0.3l-3.9-0.9c-0.8-0.2-1.6-0.3-2.5-0.4c-0.6-0.1-1.2-0.1-1.8,0
				l0.8-3.2h1h0.4c-0.4-0.6-0.7-1.3-0.8-2c-0.1-0.7-0.1-1.4,0-2.1c0.2-1.1,0.9-2.1,1.8-2.7c0.9-0.6,1.9-0.7,2.9-0.5
				c0.7,0.1,1.3,0.4,1.8,0.9c0.5,0.4,0.8,1,0.9,1.7c0.2,0.9,0.2,1.8,0.2,2.7c-0.1,1.1-0.1,2.2,0,3.3h0.4c0.5,0.2,1,0.2,1.5,0
				c0.4-0.4,0.7-1,0.8-1.6c0.4-1-0.1-2.1-1.1-2.5l1.2-2.8c1,0.5,1.8,1.3,2.3,2.3c0.4,1.2,0.4,2.4,0,3.6 M739.7,369
				c0,1.3-0.5,2.6-1.3,3.6c-0.9,0.9-2,1.5-3.2,1.7l-0.3-3.3c0.6,0,1.1-0.3,1.6-0.6c0.4-0.4,0.6-0.9,0.6-1.5c0.1-0.7-0.2-1.5-0.7-2
				c-0.8-0.6-1.8-1-2.9-0.9c-1.1-0.2-2.3,0-3.3,0.5c-0.6,0.4-1,1.1-1.1,1.9c-0.1,0.6,0.1,1.1,0.4,1.6c0.5,0.5,1.1,0.9,1.8,1
				l-0.8,3.2c-1.3-0.3-2.5-1.1-3.4-2.2c-0.7-1.2-1-2.6-0.9-3.9c0.1-1.6,0.8-3.2,2.1-4.2c3.1-1.9,7.1-1.7,9.9,0.7
				C739.4,365.7,739.9,367.4,739.7,369 M727,359.4V356l12.9-0.4v3.3L727,359.4z M744.8,358.9h-3.1v-3.3h3.2L744.8,358.9z
				 M742.1,331.4l-4.4-2.2l-0.6-2l4,0.6L742.1,331.4z M737.3,317.4l-16.6,6.4l-1.3-3.1l16.5-6.4L737.3,317.4z M725.3,304.1
				c1,0.7,1.7,1.6,2.3,2.6c0.8,1.5,1,3.3,0.4,4.9c-0.7,1.6-2,3-3.6,3.6c-1.6,0.8-3.4,1-5.2,0.5c-1.7-0.5-3.1-1.7-3.9-3.3
				c-0.5-1-0.8-2.1-0.8-3.3c0-1.1,0.3-2.2,1-3.1c0.8-1,1.8-1.8,3-2.4c1-0.5,2.2-0.7,3.3-0.7c1.2,0,2.3,0.4,3.2,1 M716.9,290.3
				l-1.6,1.1c1.7,0,3.3,0.8,4.3,2.1c0.4,0.6,0.7,1.2,0.9,1.9c0.2,0.6,0.2,1.1,0,1.7c-0.1,0.5-0.4,1-0.8,1.3c-0.5,0.6-1.1,1-1.7,1.4
				l-6.5,4.5l-2-2.7l5.3-3.6c0.8-0.5,1.5-1,2.1-1.7c0.2-0.3,0.4-0.7,0.4-1.1c0-0.4-0.2-0.8-0.4-1.2c-0.3-0.5-0.8-0.8-1.3-1
				c-0.5-0.2-1.1-0.2-1.6,0c-0.9,0.4-1.8,0.8-2.6,1.4l-4.7,3.3l-2-2.7l10.5-7.2L716.9,290.3z M705,278.3c1.7,0.1,3.2,0.9,4.3,2.2
				c0.9,0.9,1.5,2.1,1.7,3.4c0.1,1.2-0.3,2.4-1,3.4l-2.6-2.1c0.4-0.4,0.6-0.9,0.6-1.5c0-0.6-0.2-1.1-0.6-1.5c-0.5-0.6-1.2-0.9-2-0.9
				c-1,0.1-1.9,0.6-2.6,1.3c-0.9,0.6-1.6,1.6-1.9,2.6c-0.2,1.4,0.7,2.7,2.1,3c0,0,0,0,0,0c0.7,0,1.4-0.2,2-0.6l1.8,2.8
				c-1.2,0.7-2.6,1-3.9,0.8c-1.4-0.3-2.7-1-3.6-2.2c-1.1-1.2-1.7-2.8-1.6-4.4c0.3-1.8,1.2-3.3,2.7-4.4
				C701.5,279.1,703.2,278.4,705,278.3 M697.8,269.5c1.3,1,2.1,2.6,2.2,4.3c-0.2,2.1-1.2,4-2.8,5.3l-6.4-5.5
				c-0.6,0.6-0.9,1.4-0.9,2.3c0,0.7,0.3,1.4,0.9,1.8c0.3,0.3,0.8,0.5,1.3,0.5c0.6,0,1.1-0.2,1.6-0.5l2.2,2.6c-1,0.6-2.2,0.9-3.4,0.8
				c-1.2-0.1-2.4-0.7-3.3-1.5c-1.5-1.1-2.4-2.9-2.3-4.8c0.6-3.3,3.2-5.9,6.5-6.5c1.6-0.2,3.2,0.3,4.4,1.3 M681.2,256l1.6-2.5
				l11.9,7.2l-1.6,2.5l-4.4-2.7l-8,12.1l-3-1.9l8-12.1L681.2,256z M655.9,253.3c0.4-1.1,1.1-2,2-2.7c0.9-0.8,1.9-1.2,3.1-1.3
				c1.2-0.2,2.5,0,3.6,0.5c1.6,0.6,2.9,1.8,3.6,3.4c0.7,1.6,0.7,3.4,0,5c-0.6,1.7-2,3-3.6,3.6c-1.6,0.7-3.5,0.7-5.1,0
				c-1.1-0.4-2-1.1-2.8-1.9c-0.8-0.8-1.3-1.9-1.4-3C655.2,255.7,655.4,254.4,655.9,253.3 M646.1,242.1c0.2-0.7,0.6-1.3,1.2-1.7
				c0.5-0.3,1.1-0.4,1.7-0.2c0.3,0.1,0.5,0.2,0.8,0.3l1.1,0.9c0.4,0.3,0.8,0.6,1.3,0.8c0.2,0.1,0.5,0.1,0.7,0
				c0.3-0.2,0.4-0.4,0.5-0.7l1.5,0.4c-0.2,0.8-0.6,1.5-1.2,2.1c-0.5,0.3-1.1,0.4-1.7,0.3l-0.8-0.3l-1-0.9c-0.4-0.4-0.9-0.6-1.4-0.8
				c-0.2-0.1-0.4-0.1-0.6,0c-0.2,0.2-0.4,0.4-0.4,0.7l-1.5-0.4C646.2,242.3,646.2,242.2,646.1,242.1 M641.3,252.3
				c0.4-1.3,1.5-2.3,2.8-2.5c0.9-0.1,1.9-0.1,2.8,0c1.1,0.1,2.3,0.1,3.4,0v-0.3c0.2-0.5,0.2-1,0-1.5c-0.4-0.5-1-0.8-1.7-0.9
				c-0.5-0.2-1-0.2-1.5,0c-0.5,0.2-0.9,0.5-1.1,0.9l-2.8-1.3c0.6-1,1.4-1.7,2.5-2.1c1.3-0.3,2.6-0.2,3.9,0.2
				c1.1,0.2,2.2,0.7,3.1,1.4c0.5,0.4,0.9,1.1,1.1,1.7c0.1,1,0,2-0.4,3l-1.2,3.6c-0.2,0.8-0.4,1.6-0.5,2.4c-0.1,0.6-0.1,1.2,0,1.8
				l-3.2-0.9c0-0.2,0-0.6,0-1c0-0.1,0-0.3,0-0.4c-0.7,0.4-1.4,0.6-2.1,0.7c-0.7,0.1-1.5,0.1-2.2,0c-1.1-0.2-2.1-0.9-2.7-1.8
				c-0.5-0.9-0.6-1.9-0.3-2.9 M627.5,247.7c0.1-1.8,0.9-3.4,2.3-4.6c1.3-1,3.1-1.5,4.7-1.2c1.3,0.1,2.6,0.6,3.6,1.4
				c0.9,0.8,1.5,2,1.6,3.2h-3.4c0-0.6-0.2-1.1-0.6-1.6c-0.4-0.4-0.9-0.7-1.5-0.7c-0.8-0.1-1.5,0.1-2.1,0.6c-0.7,0.8-1.1,1.7-1.1,2.7
				c-0.2,1.1-0.1,2.2,0.4,3.2c0.8,1.2,2.4,1.6,3.6,0.8c0.5-0.4,0.9-1.1,1.1-1.7l3.2,0.9c-0.4,1.3-1.2,2.4-2.4,3.1
				c-0.8,0.5-1.8,0.7-2.8,0.7c0.3,0.1,0.6,0.3,0.8,0.5c0.4,0.4,0.7,1,0.6,1.7c-0.1,0.7-0.5,1.2-1.1,1.6c-1.1,0.6-2.4,0.7-3.6,0.5
				c-0.8-0.1-1.6-0.2-2.3-0.5v-1.4c0.8,0.2,1.5,0.3,2.3,0.4c0.6,0.1,1.1,0.1,1.7-0.2c0.3-0.1,0.5-0.4,0.5-0.7c0-0.3-0.1-0.6-0.3-0.7
				c-0.3-0.3-0.7-0.4-1.1-0.4c-0.5-0.1-1.1-0.1-1.6,0l0.4-1.1h0.6c-1.1-0.4-2-1-2.7-1.9c-1-1.5-1.4-3.2-1-5 M620.3,243.8
				c-0.5-0.3-1.2-0.5-1.8-0.5c-0.5,0-1,0.1-1.4,0.3c-0.4,0.3-0.7,0.7-0.9,1.2l-3.1-0.6c0.3-1.1,1-2,1.9-2.6c1.1-0.6,2.4-0.9,3.6-0.8
				c1.2,0,2.3,0.2,3.4,0.6c0.6,0.3,1.2,0.8,1.5,1.4c0.4,1,0.5,2,0.4,3v3.9c-0.1,0.8-0.1,1.6,0,2.4c0.1,0.6,0.3,1.2,0.6,1.7h-3.4
				c0-0.2-0.2-0.5-0.3-1c0-0.1,0-0.3,0-0.4c-0.6,0.5-1.2,0.9-1.9,1.2c-0.7,0.2-1.4,0.4-2.1,0.4c-1.1,0-2.3-0.4-3.1-1.2
				c-0.7-0.7-1.1-1.7-1-2.7c0-0.7,0.2-1.3,0.6-1.9c0.4-0.5,0.9-1,1.5-1.2c0.9-0.3,1.8-0.6,2.7-0.7c1.1-0.2,2.2-0.4,3.3-0.7v-0.3
				C620.8,244.7,620.6,244.2,620.3,243.8 M609.9,254l-3.4,0.2l-1-12.5l3.4-0.3L609.9,254z M608.8,236.8l0.2,3.1l-3.4,0.3l-0.2-3.1
				L608.8,236.8z M600.1,237.7l3.2,17l-3.4,0.6l-3.2-17L600.1,237.7z M584.4,246.6c0.9-0.9,2.1-1.6,3.4-1.8c1.1-0.4,2.2-0.5,3.4-0.4
				c0.7,0.1,1.4,0.4,1.9,0.9c0.6,0.8,1,1.8,1.3,2.7l1,3.6c0.2,0.8,0.5,1.6,0.8,2.3c0.3,0.5,0.6,1,1,1.4l-3.2,0.9
				c0-0.2-0.3-0.5-0.6-0.9l-0.2-0.3c-0.4,0.7-0.9,1.2-1.4,1.7c-0.6,0.4-1.2,0.8-1.9,0.9c-1.1,0.4-2.3,0.3-3.3-0.2
				c-0.9-0.5-1.6-1.3-1.8-2.2c-0.4-1.3,0-2.7,1-3.6c0.7-0.6,1.5-1.1,2.4-1.4c1-0.5,2-1,3-1.7v-0.3c-0.1-0.5-0.4-0.9-0.8-1.2
				c-0.6-0.2-1.3-0.2-1.9,0c-0.5,0.1-0.9,0.4-1.3,0.7c-0.3,0.4-0.5,0.9-0.5,1.4l-3.1,0.3c-0.1-1.1,0.3-2.2,1-3.1 M570.8,250.5
				l4.7,5.1l1.4,1.7c0-0.6,0-0.9,0-1.1s0-0.7,0-1.1v-6.8l3.2-1.2v13.5l-2.9,1.1l-9.9-9.6L570.8,250.5z M557.6,251.5l15.1,11.7
				l-3.4,1.9l-3.4-2.7l-6.2,3.6l0.8,4.2l-3.3,1.8l-3.1-18.3L557.6,251.5z M538.4,270.3c1.3-1.1,3-1.7,4.7-1.5c2,0.5,3.8,1.6,5,3.3
				l-6.5,5.4c0.6,0.7,1.3,1.1,2.2,1.2c0.7,0.1,1.5-0.1,2.1-0.6c0.4-0.3,0.6-0.7,0.7-1.2c0-0.5-0.1-1.1-0.3-1.6l2.9-1.7
				c0.5,1.1,0.6,2.3,0.3,3.4c-1,3-4,4.9-7.2,4.5c-1.5-0.4-2.9-1.3-3.9-2.5c-1.3-1.3-2-3-2-4.8C536.4,272.7,537.2,271.3,538.4,270.3
				 M520.8,290.2c0.5-3,2.9-5.2,5.9-5.7c1.8-0.2,3.6,0.4,4.9,1.5c1.4,1,2.4,2.6,2.6,4.4c0.3,1.7-0.2,3.5-1.3,4.8
				c-0.7,0.9-1.7,1.6-2.7,2.1c-1,0.5-2.2,0.7-3.4,0.5c-1.3-0.3-2.6-0.8-3.6-1.6c-0.9-0.7-1.6-1.6-2.1-2.6
				C520.7,292.5,520.6,291.3,520.8,290.2 M515.2,297.9c0.6-0.4,1.2-0.7,1.9-0.7c1,0.1,2,0.5,2.9,1.1l3.4,1.9
				c0.7,0.4,1.5,0.8,2.2,1.1c0.6,0.2,1.2,0.3,1.8,0.3l-1.7,2.7h-0.9h-0.4c0.2,0.7,0.2,1.4,0.2,2.2c-0.1,0.7-0.3,1.4-0.7,2
				c-0.5,1-1.4,1.8-2.5,2.1c-1.7,0.6-3.5-0.2-4.3-1.7c-0.3-0.6-0.5-1.2-0.4-1.9c0.1-0.9,0.3-1.8,0.6-2.7c0.4-1,0.7-2.1,0.9-3.2
				l-0.3-0.5c-0.4-0.3-1-0.4-1.5-0.3c-0.6,0.3-1,0.8-1.3,1.4c-0.3,0.4-0.4,0.9-0.4,1.4c0.1,0.5,0.3,0.9,0.7,1.3l-2,2.3
				c-0.8-0.7-1.4-1.8-1.5-2.9c0-1.3,0.4-2.5,1.1-3.6c0.5-1,1.2-1.9,2.1-2.6 M508.4,299.7c0.1-0.2,0.3-0.5,0.5-0.6
				c0.3-0.3,0.7-0.6,1.1-0.9c0.4-0.3,0.8-0.7,1.1-1.1c0.1-0.2,0.1-0.4,0-0.6c-0.1-0.3-0.3-0.5-0.5-0.7l0.8-1.2
				c0.7,0.3,1.4,0.9,1.7,1.6c0.3,0.5,0.3,1.1,0,1.7c-0.1,0.2-0.3,0.5-0.5,0.6l-1.1,0.9c-0.5,0.3-0.9,0.7-1.2,1.2
				c-0.1,0.2-0.1,0.4,0,0.6c0.1,0.3,0.3,0.5,0.6,0.6l-0.8,1.3l-0.4-0.2c-0.6-0.3-1.1-0.8-1.4-1.4c-0.2-0.5-0.1-1.2,0.2-1.7
				 M506.6,313.7c0.4-1.2,1.3-2.3,2.3-3c1.1-0.6,2.4-0.9,3.6-0.7l-0.7,3.2c-0.5-0.2-1.1-0.2-1.7,0c-0.5,0.3-0.9,0.7-1,1.2
				c-0.3,0.7-0.3,1.5,0,2.1c0.6,0.9,1.5,1.5,2.5,1.8c1,0.5,2.2,0.7,3.3,0.5c0.7-0.2,1.3-0.8,1.6-1.5c0.2-0.5,0.2-1.1,0-1.7
				c-0.3-0.6-0.8-1.1-1.4-1.4l1.7-2.7c1.2,0.7,2,1.8,2.5,3c0.3,0.9,0.3,1.9,0,2.8c0.2-0.2,0.4-0.4,0.7-0.6c0.6-0.3,1.2-0.3,1.8,0
				c0.6,0.3,1.1,0.8,1.3,1.4c0.2,1.1,0.1,2.3-0.4,3.4c-0.3,0.7-0.6,1.4-1.1,2.1l-1.3-0.5c0.4-0.7,0.7-1.3,1-2c0.3-0.5,0.3-1,0.3-1.6
				c-0.1-0.3-0.3-0.5-0.5-0.6c-0.3-0.1-0.6-0.1-0.8,0c-0.3,0.2-0.6,0.6-0.7,0.9c-0.2,0.5-0.3,1-0.4,1.5l-1-0.7c0-0.2,0-0.4,0-0.6
				c-0.6,0.9-1.5,1.7-2.6,2.1c-1.7,0.6-3.6,0.5-5.2-0.3c-1.7-0.6-3.1-1.7-4-3.3c-0.7-1.5-0.7-3.3,0-4.8 M501.2,328.2
				c0.3-1.1,0.8-2.1,1.5-3c0.4-0.5,1.1-0.9,1.7-1.1c1-0.1,2.1,0,3.1,0.4l3.8,1.1c0.8,0.2,1.6,0.4,2.5,0.5c0.6,0.1,1.2,0.1,1.8,0
				l-0.9,3.2h-1c-0.1,0-0.3,0-0.4,0c0.4,0.6,0.6,1.4,0.7,2.1c0.1,0.7,0,1.4-0.2,2.1c-0.3,1.1-0.9,2-1.9,2.6c-0.9,0.5-2,0.7-3,0.4
				c-0.7-0.2-1.2-0.5-1.7-1c-0.4-0.5-0.7-1.1-0.8-1.7c-0.1-0.9-0.1-1.8,0-2.7c0.1-1.1,0.1-2.2,0-3.3H506c-0.5-0.2-1-0.2-1.5,0
				c-0.5,0.4-0.8,1-0.9,1.6c-0.4,1,0,2.1,0.9,2.5l-1.4,2.7c-1-0.5-1.8-1.4-2.2-2.4c-0.4-1.2-0.4-2.4,0-3.6 M497.6,373.9
				c-0.1-0.7-0.1-1.4,0-2c0.1-0.6,0.4-1.1,0.9-1.5c0.4-0.4,0.8-0.6,1.3-0.8c0.7-0.2,1.5-0.4,2.3-0.5l7.9-1l0.4,3.3l-6.5,0.8
				c-0.9,0.1-1.8,0.3-2.6,0.5c-0.4,0.2-0.7,0.5-0.9,0.8c-0.2,0.4-0.3,0.8-0.2,1.2c0.1,0.6,0.3,1.1,0.7,1.5c0.4,0.4,0.9,0.7,1.4,0.8
				c1,0.1,2,0.1,3,0l5.8-0.7l0.4,3.3l-12.8,1.6l-0.4-3.1l1.9-0.2c-1.5-0.8-2.5-2.2-2.7-3.9 M497.4,346.7l6.8-1.5l2.3-0.4l-1-0.5
				l-1-0.5l-6.2-3.2l0.4-3.4l12.7,6l-0.4,3l-13.4,3.4L497.4,346.7z M498.4,354.3c1.4-1.6,3.5-2.5,5.7-2.2c1.8,0,3.5,0.7,4.8,1.9
				c1.3,1.2,1.9,2.9,1.8,4.7c0,1.1-0.3,2.3-0.9,3.3c-0.5,1-1.4,1.8-2.4,2.3c-1.2,0.5-2.5,0.8-3.8,0.7c-1.1,0-2.2-0.3-3.2-0.9
				c-1-0.5-1.8-1.4-2.4-2.4c-0.5-1-0.8-2.2-0.8-3.3c0-1.8,0.7-3.4,2-4.6 M495.7,386.3l17.3-3.9l0.8,3.4l-17.3,3.9L495.7,386.3z
				 M506.7,400.1c1.1-1.8,2.8-3.1,4.8-3.6l3.1,7.7c0.8-0.3,1.5-0.8,1.9-1.6c0.3-0.7,0.3-1.4,0-2.1c-0.2-0.4-0.5-0.8-0.9-1.1
				c-0.5-0.2-1.1-0.3-1.6-0.3l-0.7-3.3c1.2-0.1,2.4,0.2,3.4,0.9c1,0.7,1.8,1.7,2.2,2.9c0.8,1.7,0.6,3.6-0.4,5.2
				c-0.9,1.3-2.1,2.2-3.6,2.7c-1.7,0.7-3.5,0.8-5.3,0.3c-1.5-0.5-2.7-1.7-3.2-3.2c-0.7-1.5-0.7-3.3,0-4.8 M522.6,421.1
				c-1.5,1-3.3,1.4-5.1,1.1c-1.4-0.3-2.7-1.2-3.4-2.5c-0.7-1.2-0.8-2.7-0.3-4l-5.6,3.1l-1.7-2.9l15.6-8.6l1.6,2.7l-1.6,0.9
				c0.8,0.1,1.6,0.3,2.3,0.8c0.6,0.4,1.2,0.9,1.6,1.6c0.8,1.2,0.9,2.8,0.4,4.1c-0.7,1.6-2,2.9-3.6,3.6 M534.4,440.1
				c-1.1,0.3-2.3,0.2-3.4-0.2c-1.1-0.4-2.1-1.1-2.9-2c-1.2-1.3-1.8-3-1.7-4.7c0.1-1.7,1-3.3,2.4-4.4c1.4-1.2,3.1-1.8,4.9-1.6
				c1.8,0.1,3.4,0.9,4.5,2.3c0.8,0.9,1.3,1.9,1.6,3c0.3,1.1,0.2,2.2-0.2,3.3c-0.5,1.2-1.3,2.2-2.3,3
				C536.6,439.4,535.6,439.9,534.4,440.1 M540.2,449.3c-1.3-1-2.1-2.6-2.2-4.3c0.2-2,1.1-3.9,2.6-5.3l6.2,5.5
				c0.6-0.6,0.9-1.4,0.9-2.2c0-0.7-0.4-1.4-0.9-1.9c-0.4-0.3-0.8-0.5-1.3-0.5c-0.5,0-1.1,0.2-1.5,0.5l-2.2-2.6
				c1.1-0.7,2.4-0.9,3.6-0.8c1.2,0.2,2.4,0.7,3.3,1.6c1.5,1.1,2.3,2.9,2.2,4.8c-0.2,1.5-0.9,2.9-2,4c-1.1,1.4-2.7,2.4-4.5,2.6
				C543,450.8,541.4,450.3,540.2,449.3 M545.2,458.7l10.4-14l2.8,1.9l-10.4,14L545.2,458.7z M563.6,462.6c-1.6,0.5-3.4,0.2-4.8-0.7
				c-1.2-0.6-2.1-1.5-2.7-2.6c-0.5-1.1-0.6-2.4-0.2-3.6l3.2,1.1c-0.2,0.5-0.2,1.1,0,1.6c0.2,0.5,0.6,0.9,1.1,1.2
				c0.7,0.4,1.5,0.5,2.2,0.3c0.9-0.4,1.7-1.2,2.1-2.1c0.7-0.9,1-2,1-3.1c-0.1-0.8-0.6-1.4-1.3-1.8c-0.5-0.4-1.2-0.6-1.9-0.4
				c-0.7,0.2-1.3,0.6-1.7,1.2l-2.6-2.1c1.9-2.3,5.2-2.6,7.6-0.9c1.5,0.7,2.6,2,3,3.6c0.3,1.7,0,3.5-1,5
				C566.7,460.8,565.3,462,563.6,462.6 M572.1,473.4l-3.6-1.3l4.5-2.1l1.9,0.8L572.1,473.4z M582.4,463.3l-3,7.2l-3.1-1.2l2.2-5.3
				c0.5-1,0.8-2,1-3.1c0-0.4,0-0.8-0.3-1.1c-0.3-0.4-0.7-0.6-1.1-0.8c-0.5-0.2-1.1-0.2-1.6,0c-0.5,0.1-1,0.4-1.3,0.8
				c-0.6,0.9-1.1,2-1.5,3l-2,4.9l-3.1-1.2l4.7-11.7l2.9,1.1l-0.7,1.8c0.7-0.5,1.5-0.7,2.3-0.8c0.8-0.1,1.7,0,2.5,0.3
				c0.8,0.3,1.5,0.7,2,1.3c0.5,0.6,0.8,1.3,0.8,2C583,461.4,582.8,462.4,582.4,463.3 M597.4,480.1l-3.4-0.8l-4.4-12.9l-2.7,11.3
				l-3.3-0.6l4-16.8l3.6,0.8l4.4,12.6l2.5-11l3.2,0.7L597.4,480.1z M617,480.1c-1-0.4-1.9-0.9-2.8-1.4c0.1,1,0.2,2.1,0.2,3.1h-2.1
				c0.1-1.1,0.2-2.1,0.4-3.1l-1,0.4l-2,0.8l-0.8-1.9c0.9,0,1.9-0.4,3.1-0.5l-1.4-1.6l-0.6-0.8l1.9-1.2l1.5,2.7
				c0.5-0.8,1.1-1.7,1.8-2.7l1.8,1.4L615,477l-0.5,0.4l1.7,0.4l1.3,0.4L617,480.1z M627.6,479.9c-1-0.3-1.9-0.8-2.9-1.3
				c0.2,1,0.3,2.1,0.4,3.1H623c0-1.1,0.1-2.1,0.3-3.2l-1,0.5l-1.9,0.9l-0.7-2.1c0.9-0.2,1.9-0.5,3.1-0.7l-1.5-1.6l-0.7-0.8l1.8-1.2
				l1.7,2.6c0.4-0.9,1-1.8,1.6-2.8l1.9,1.3c-0.6,0.6-1.2,1.3-1.8,1.9l-0.5,0.5l1.7,0.6l1.4,0.3L627.6,479.9z M618.6,456.5
				c-55.3,0-100-43.6-100-97.4s44.8-97.5,100.1-97.5c55.3,0,100.1,43.6,100.1,97.5s-44.8,97.5-100.1,97.5 M648.5,471.9
				c-0.8,1.3-2.1,2.3-3.6,2.6c-1.7,0.5-3.4,0.2-4.8-0.8c-1.6-1.3-2.6-3.2-2.9-5.2l8.3-1.8c-0.2-0.8-0.6-1.6-1.3-2.1
				c-0.6-0.4-1.4-0.6-2.1-0.4c-0.5,0.1-0.9,0.3-1.2,0.7c-0.3,0.4-0.5,1-0.5,1.5l-3.4,0.2c0.1-1.2,0.6-2.3,1.4-3.2
				c0.9-0.9,2-1.5,3.2-1.7c1.8-0.5,3.8-0.2,5.3,1c1.1,1.1,1.9,2.5,2.2,4C649.5,468.5,649.4,470.3,648.5,471.9 M664,467.1
				c-1.1,2.6-4.1,3.7-6.7,2.6c-0.2-0.1-0.3-0.2-0.5-0.3l2.1,5.9l-3.2,1l-5.8-16.3l3-1l0.6,1.7c0.3-0.8,0.7-1.5,1.2-2.1
				c0.5-0.5,1.2-0.9,1.9-1.2c1.4-0.5,2.9-0.3,4.2,0.4c1.5,0.9,2.6,2.4,3.1,4.1c0.7,1.6,0.7,3.4,0,5.1 M674.2,469.6l1.3-4.6l1.9-0.9
				v3.9L674.2,469.6z M677.3,462.3l-2.7-5.2c-0.5-1-1-1.9-1.7-2.8c-0.3-0.3-0.7-0.5-1.1-0.5c-0.4-0.1-0.9,0-1.3,0.3
				c-0.5,0.2-0.9,0.6-1.2,1.1c-0.3,0.5-0.4,1-0.3,1.5c0.3,1.1,0.8,2.1,1.3,3.1l2.5,4.7l-3,1.5l-5.8-11.2l2.8-1.4l0.9,1.7
				c0.1-0.8,0.4-1.6,0.9-2.2c0.5-0.7,1.1-1.2,1.9-1.6c0.7-0.4,1.5-0.6,2.3-0.5c0.8,0,1.5,0.3,2.1,0.7c0.7,0.6,1.3,1.4,1.7,2.3
				l3.6,7.2L677.3,462.3z M691.9,452.4c-0.5,1.2-1.4,2.2-2.6,2.9c-0.9,0.7-2,1.2-3.1,1.5c-0.7,0.2-1.4,0.1-2.1-0.2
				c-0.9-0.5-1.6-1.3-2.1-2.2l-2.3-3.1c-0.5-0.7-1-1.3-1.6-1.9c-0.4-0.4-0.9-0.7-1.5-1l2.7-1.9c0.3,0.2,0.6,0.4,0.8,0.6l0.3,0.2
				c0.1-0.7,0.4-1.4,0.8-2.1c0.4-0.6,0.9-1.1,1.5-1.5c0.9-0.7,2-1,3.1-0.9c1,0.1,1.9,0.7,2.5,1.5c0.4,0.5,0.6,1.2,0.7,1.8
				c0.1,0.6-0.1,1.3-0.4,1.8c-0.5,0.8-1.1,1.5-1.7,2.2c-0.8,0.8-1.5,1.6-2.2,2.5v0.3c0.3,0.5,0.7,0.8,1.2,0.9c0.6,0,1.2-0.3,1.7-0.7
				c0.9-0.5,1.3-1.6,0.9-2.6l2.8-1.3C692,450.2,692.2,451.3,691.9,452.4 M708.1,445.2c-0.5,1.1-1.2,2-2.1,2.8
				c-1.2,1.3-2.9,2.1-4.7,2.3c-1.5,0.1-3-0.5-4-1.6l2.5-2.5c0.6,0.5,1.3,0.7,2.1,0.7c0.8-0.1,1.5-0.5,2.1-1.1
				c0.6-0.6,1.1-1.3,1.3-2.1c0.1-0.4-0.1-0.8-0.4-1.2c-0.3-0.3-0.7-0.4-1.2-0.4c-1.1,0.3-2.2,0.7-3.2,1.4c-1.1,0.7-2.3,1.3-3.6,1.7
				c-0.9,0.2-1.8,0.2-2.7,0c-0.9-0.3-1.8-0.8-2.5-1.5c-0.7-0.7-1.2-1.6-1.4-2.6c-0.2-1-0.1-2.1,0.3-3c0.6-1.2,1.4-2.2,2.3-3.1
				c1.3-1.3,3-2.2,4.8-2.4c1.7-0.1,3.4,0.5,4.7,1.6l-2.3,2.6c-0.8-0.6-1.7-0.9-2.7-0.9c-0.9,0.1-1.8,0.5-2.5,1.2
				c-0.7,0.6-1.2,1.4-1.3,2.3c-0.1,0.6,0.1,1.3,0.5,1.8c0.3,0.2,0.6,0.3,1,0.3c0.5,0,1-0.1,1.4-0.3c0.4,0,1.3-0.6,2.6-1.4
				c1.3-0.8,2.7-1.3,4.2-1.5c1.3-0.1,2.7,0.5,3.6,1.4c0.6,0.6,1,1.4,1.2,2.3c0.2,0.9,0.1,1.9-0.4,2.7 M722.3,420.5
				c-0.4,0.6-0.9,1.2-1.6,1.5c-0.7,0.3-1.4,0.4-2.1,0.4c0.2,0.7,0.3,1.5,0.3,2.3c-0.1,0.7-0.3,1.4-0.7,2c-0.4,0.7-1,1.3-1.8,1.7
				c-0.7,0.3-1.5,0.4-2.2,0.3c-0.9-0.2-1.7-0.6-2.4-1.1l-6.9-4l1.8-2.8l6.2,3.9c0.7,0.5,1.4,0.9,2.3,1c0.6,0,1.1-0.3,1.4-0.8
				c0.2-0.4,0.4-0.8,0.4-1.3c0-0.5-0.2-1-0.6-1.4c-0.6-0.6-1.3-1.2-2.1-1.6l-5.2-3.2l1.8-2.8l5.9,3.6c0.7,0.4,1.4,0.8,2.1,1.1
				c0.3,0.1,0.7,0.1,1,0c0.3-0.2,0.6-0.4,0.8-0.7c0.3-0.4,0.4-0.9,0.4-1.4c0-0.5-0.2-1-0.6-1.4c-0.6-0.6-1.3-1.2-2.1-1.6l-5.3-3.3
				l1.8-2.8l10.8,6.8l-1.7,2.6l-1.5-1c0.6,1.4,0.4,3-0.4,4.3"/>
			<path class="st31" d="M540.8,445.5c0,0.7,0.3,1.3,0.8,1.7c0.5,0.5,1.2,0.7,1.9,0.6c0.8-0.1,1.5-0.6,2-1.2l-3.8-3.2
				C541.1,444,540.8,444.7,540.8,445.5"/>
			<path class="st31" d="M521.3,412.7c-1.1-0.1-2.1,0.2-3,0.7c-1,0.5-1.9,1.2-2.4,2.2c-0.4,0.7-0.4,1.5,0,2.2
				c0.4,0.7,1.1,1.1,1.8,1.3c1,0.1,2.1-0.2,2.9-0.7c0.9-0.4,1.7-1.1,2.3-1.9c0.5-0.8,0.5-1.8,0-2.6c-0.4-0.7-1.1-1.1-1.9-1.2"/>
			<path class="st31" d="M510.3,405c0.7,0.3,1.6,0.3,2.3,0l-1.8-4.6c-0.8,0.3-1.4,0.8-1.8,1.5c-0.6,1.2,0,2.6,1.1,3.2
				c0.1,0,0.1,0.1,0.2,0.1"/>
			<path class="st31" d="M730,382.2c0.1-0.6,0.1-1.3,0-1.9c-0.1-0.5-0.5-0.8-1-0.9c-0.5-0.1-0.9,0-1.3,0.3c-0.4,0.3-0.7,0.7-0.8,1.2
				c-0.2,0.6-0.2,1.2,0,1.8c0.2,0.5,0.6,1,1.1,1.2c0.5,0.2,1,0.4,1.6,0.5h0.6c0-0.7,0-1.4,0-2.1"/>
			<path class="st32" d="M752.6,471c4-3.9,4.1-10.3,0.1-14.3c0,0-0.1-0.1-0.1-0.1l-24-23.4c11.4-15.9,19.2-34.1,22.7-53.4h34.1
				c5.8,0.1,10.5-4.6,10.5-10.3c0,0,0-0.1,0-0.1v-25.3c-0.1-5.7-4.8-10.4-10.5-10.3h-34.1c-3.5-19.2-11.2-37.4-22.7-53.2l24-23.1
				c4-3.9,4.1-10.3,0.1-14.3c0,0-0.1-0.1-0.1-0.1l-18.3-18.1c-4.2-4-10.7-4-14.9,0l-23.9,23.6c-16.5-11.2-35.2-18.8-54.9-22.1v-33.1
				c-0.1-5.7-4.8-10.4-10.5-10.3h-25.9c-5.7-0.1-10.5,4.5-10.5,10.3v33.1c-19.6,3.3-38.3,10.9-54.7,22.1l-23.9-23.6
				c-4.2-4-10.7-4-14.9,0L481.6,243c-4,3.9-4.1,10.3-0.1,14.3c0,0,0.1,0.1,0.1,0.1l24,23.4c-11.4,15.8-19.2,34-22.7,53.2h-34.1
				c-5.7-0.1-10.5,4.5-10.5,10.3v25.3c0.1,5.7,4.8,10.3,10.5,10.2H483c3.5,19.2,11.2,37.4,22.7,53.2l-24,23.4
				c-4,3.9-4.1,10.3-0.1,14.3c0,0,0.1,0.1,0.1,0.1l18.3,17.8c4.2,4,10.7,4,14.9,0l24.1-23.5c16.4,11.2,35.1,18.8,54.7,22.1v33.1
				c0.1,5.7,4.8,10.4,10.5,10.3h25.9c5.7,0.1,10.5-4.5,10.5-10.3v-33c19.7-3.3,38.4-10.9,54.9-22.1l24.1,23.5c4.2,4,10.7,4,14.9,0
				L752.6,471z M722.5,485.8l-26.6-26l-1.5,1c-16.8,11.8-36,19.5-56.2,22.7l-1.8,0.3v36.7c-0.1,3.4-2.9,6.1-6.2,6h-25.9
				c-3.4,0-6.1-2.7-6.2-6v-36.7l-1.8-0.3c-20.2-3.2-39.5-10.9-56.2-22.7l-1.5-1l-26.6,26c-2.5,2.4-6.4,2.4-8.8,0L484.6,468
				c-1.2-1.1-1.8-2.7-1.8-4.3c0-1.6,0.7-3,1.8-4.1l26.7-26l-1.1-1.5c-12-16.1-20-34.9-23.3-54.7l-0.3-1.8h-37.7
				c-3.4,0-6.2-2.7-6.2-6.1c0-0.1,0-0.1,0-0.2v-25.3c0.2-3.3,2.9-5.8,6.2-5.8h37.7l0.3-1.8c3.3-19.8,11.3-38.5,23.3-54.7l1.1-1.5
				l-26.7-26c-2.4-2.3-2.4-6-0.1-8.4c0-0.1,0.1-0.1,0.1-0.1l18.3-17.8c2.5-2.4,6.4-2.4,8.8,0l26.6,25.9l1.5-1
				c16.8-11.8,36-19.5,56.2-22.7l1.8-0.3v-36.7c0.1-3.4,2.9-6.1,6.2-6h25.9c3.4,0,6.2,2.6,6.2,6V230l1.8,0.3
				c20.2,3.2,39.5,10.9,56.2,22.7l1.5,1l26.6-25.9c2.5-2.4,6.4-2.4,8.8,0l18.3,17.8c2.4,2.3,2.4,6,0.1,8.4c0,0.1-0.1,0.1-0.1,0.1
				l-26.7,26l1.1,1.5c12,16.1,20,34.9,23.3,54.7l0.3,1.8h37.7c3.4,0,6.2,2.6,6.2,6v25.3c-0.1,3.4-2.9,6.1-6.2,6.1h-37.7l-0.3,1.8
				C744,397.2,736,415.9,724,432l-1.1,1.5l26.8,26.1c1.2,1.1,1.8,2.7,1.8,4.3c0,1.6-0.7,3.1-1.8,4.3L731.3,486
				c-2.5,2.4-6.4,2.4-8.8,0"/>
			<path class="st5" d="M718.7,359.1c0-53.8-44.8-97.5-100.1-97.5s-100,43.7-100,97.5s44.8,97.5,100.1,97.5
				C673.9,456.6,718.7,413,718.7,359.1 M618.6,445.8c-49.4,0.2-89.3-38.7-89.3-86.7c0-5.6,0.6-11.2,1.7-16.8v-1.3h0.3
				c11.6-48.2,60.1-77.9,108.3-66.3c32.8,7.9,58.4,33.5,66.3,66.3h0.4v1.2c1.1,5.5,1.7,11.2,1.7,16.8c0,48-39.9,86.7-89.2,86.7"/>
			<polygon class="st5" points="603.3,254.7 600.1,237.7 596.8,238.3 599.9,255.3 			"/>
			<polygon class="st5" points="512.9,382.2 495.6,386.1 496.4,389.5 513.7,385.6 			"/>
			<path class="st5" d="M509.7,407.9c1.7,0.6,3.6,0.5,5.2-0.3c1.5-0.5,2.7-1.4,3.6-2.7c1-1.6,1.1-3.6,0.3-5.3
				c-0.4-1.2-1.2-2.2-2.2-2.9c-1-0.7-2.2-1-3.4-0.9l0.7,3.3c0.6-0.1,1.1,0,1.6,0.3c0.4,0.2,0.7,0.6,0.9,1.1c0.3,0.7,0.3,1.4,0,2.1
				c-0.4,0.7-1.1,1.3-1.9,1.6l-3.2-7.7c-2,0.6-3.7,1.8-4.8,3.6c-0.7,1.5-0.7,3.3,0,4.8c0.6,1.5,1.8,2.6,3.2,3.2 M508.9,401.9
				c0.4-0.7,1-1.2,1.8-1.5l1.8,4.6c-0.7,0.3-1.6,0.3-2.3,0C509,404.5,508.4,403.2,508.9,401.9c-0.1,0,0,0,0-0.1"/>
			<polygon class="st5" points="606.8,254.3 610.2,254.1 609.2,241.6 605.8,241.8 			"/>
			<path class="st5" d="M499.2,380.7L512,379l-0.4-3.3l-5.8,0.8c-1,0.1-2,0.1-3,0c-0.5-0.1-1-0.4-1.4-0.8c-0.4-0.4-0.6-0.9-0.7-1.5
				c-0.1-0.4,0-0.8,0.2-1.2c0.2-0.4,0.5-0.6,0.9-0.8c0.8-0.3,1.7-0.5,2.6-0.6l6.5-0.8l-0.4-3.3l-7.9,1c-0.8,0.1-1.5,0.2-2.3,0.5
				c-0.5,0.2-0.9,0.5-1.3,0.8c-0.4,0.4-0.7,0.9-0.9,1.5c-0.1,0.7-0.1,1.4,0,2c0.2,1.7,1.2,3.1,2.7,3.9l-1.9,0.3L499.2,380.7z"/>
			<polygon class="st5" points="555.3,444.6 545,458.7 547.8,460.6 558.1,446.6 			"/>
			<path class="st5" d="M503.4,334.3l1.4-2.7c-1-0.4-1.4-1.6-0.9-2.5c0.1-0.6,0.4-1.2,0.9-1.6c0.5-0.2,1-0.2,1.5,0h0.3
				c0.1,1.1,0.1,2.2,0,3.3c-0.1,0.9-0.1,1.8,0,2.7c0.1,0.6,0.4,1.2,0.8,1.7c0.5,0.5,1.1,0.8,1.7,1c1,0.3,2,0.2,2.9-0.4
				c0.9-0.6,1.6-1.5,1.8-2.6c0.2-0.7,0.3-1.4,0.2-2.1c-0.1-0.7-0.4-1.4-0.7-2.1h1.6l0.9-3.2c-0.6,0.1-1.2,0.1-1.8,0
				c-0.8-0.1-1.7-0.3-2.5-0.5l-3.9-1c-1-0.4-2-0.5-3-0.4c-0.7,0.2-1.3,0.6-1.8,1.1c-0.7,0.9-1.2,1.9-1.4,3c-0.4,1.2-0.4,2.4,0,3.6
				c0.4,1,1.2,1.9,2.2,2.4 M508.9,329.9c0-0.7,0-1.4,0-2.1l0.6,0.2c0.5,0.1,1.1,0.3,1.6,0.6c0.4,0.2,0.7,0.6,0.9,1
				c0.2,0.6,0.2,1.2,0,1.8c-0.1,0.5-0.4,0.9-0.9,1.1c-0.4,0.2-0.9,0.2-1.3,0c-0.5-0.1-0.8-0.5-1-0.9c-0.1-0.6-0.1-1.3,0-1.9"/>
			<polygon class="st5" points="609,239.9 608.8,236.8 605.4,237.1 605.6,240.1 			"/>
			<path class="st5" d="M500.2,364.1c1,0.5,2.1,0.8,3.2,0.9c1.3,0.1,2.6-0.2,3.8-0.7c1-0.5,1.9-1.3,2.4-2.3c0.5-1,0.8-2.1,0.9-3.3
				c0.1-1.7-0.6-3.4-1.8-4.7c-1.2-1.2-2.9-1.9-4.7-1.9c-1.8-0.1-3.5,0.5-4.8,1.7c-1.4,1.2-2.2,2.9-2.2,4.8c-0.1,1.2,0.2,2.3,0.8,3.3
				c0.5,1,1.4,1.8,2.4,2.4 M501,356.4c0.9-0.6,1.9-0.9,2.9-0.8c1.1,0,2.1,0.3,2.9,0.9c0.6,0.5,0.9,1.2,0.9,2c0,0.8-0.4,1.6-1,2.2
				c-0.9,0.6-1.9,0.9-3,0.8c-1.1,0.1-2.1-0.3-2.9-0.9c-0.6-0.5-1-1.4-1-2.2c0-0.8,0.4-1.6,1.1-2.2"/>
			<path class="st5" d="M542.3,281.6c3.2,0.4,6.2-1.5,7.2-4.5c0.3-1.1,0.2-2.3-0.3-3.4l-2.9,1.7c0.2,0.5,0.3,1,0.3,1.6
				c-0.1,0.5-0.4,0.9-0.8,1.2c-0.6,0.5-1.3,0.7-2,0.6c-0.8-0.1-1.6-0.6-2.2-1.2l6.5-5.4c-1.2-1.7-3-2.8-5-3.3
				c-1.7-0.2-3.4,0.3-4.7,1.5c-1.2,1-2,2.5-2,4c0,1.8,0.8,3.5,2,4.7C539.4,280.3,540.8,281.2,542.3,281.6 M540.2,272.1
				c0.5-0.4,1.2-0.6,1.8-0.5c0.8,0.1,1.5,0.6,2.1,1.2l-3.9,3.2c-0.6-0.5-0.9-1.3-0.9-2.1C539.3,273.2,539.6,272.5,540.2,272.1"/>
			<polygon class="st5" points="595.4,473.8 591.1,461.1 587.6,460.3 583.6,477.1 586.8,477.9 589.5,466.6 593.9,479.5 597.3,480.2 
				601.3,463.4 598.1,462.7 			"/>
			<path class="st5" d="M511.3,343.2l-12-6.4l-0.4,3.4l6.2,3.2l1,0.5l1,0.5l-2.3,0.4l-6.8,1.5l-0.5,3.6l13.4-3.4L511.3,343.2z"/>
			<path class="st5" d="M526,413.3c-0.4-0.6-0.9-1.2-1.6-1.6c-0.7-0.4-1.5-0.7-2.3-0.8l1.6-0.9l-1.6-2.7l-15.4,8.6l1.7,2.9l5.6-3.1
				c-0.6,1.4-0.4,2.9,0.3,4.2c0.7,1.3,2,2.2,3.4,2.5c1.8,0.3,3.6-0.1,5.1-1.1c1.6-0.7,2.9-2,3.6-3.6c0.5-1.3,0.4-2.9-0.4-4.1
				 M523.2,416.6c-0.6,0.8-1.4,1.5-2.3,1.9c-0.9,0.6-1.9,0.8-2.9,0.7c-0.8-0.1-1.5-0.6-1.8-1.2c-0.4-0.7-0.4-1.5,0-2.2
				c0.5-1,1.4-1.8,2.4-2.2c0.9-0.6,1.9-0.9,3-0.8c0.8,0.1,1.5,0.5,1.9,1.2c0.5,0.8,0.5,1.8,0,2.6"/>
			<path class="st5" d="M523.3,296.1c1.1,0.8,2.3,1.4,3.6,1.6c1.1,0.2,2.3,0,3.4-0.5c1.1-0.5,2-1.2,2.7-2.1c1.1-1.3,1.6-3.1,1.4-4.8
				c-0.2-1.8-1.2-3.3-2.6-4.4c-1.4-1.1-3.2-1.7-4.9-1.5c-3,0.4-5.3,2.7-5.9,5.7c-0.2,1.1-0.1,2.2,0.4,3.2c0.4,1,1.2,2,2.1,2.6
				 M524.6,288.9c0.5-0.7,1.3-1.1,2.2-1.1c1,0,2.1,0.4,2.9,1c0.9,0.6,1.5,1.5,1.8,2.5c0.2,0.8,0,1.7-0.6,2.3
				c-0.5,0.7-1.3,1.1-2.2,1.1c-1.1,0-2.1-0.5-2.9-1.2c-0.9-0.6-1.5-1.5-1.7-2.5c-0.2-0.8,0-1.7,0.6-2.3"/>
			<path class="st5" d="M539.8,435.8c0.4-1,0.5-2.2,0.2-3.3c-0.3-1.1-0.8-2.1-1.6-3c-1.1-1.4-2.8-2.2-4.5-2.3
				c-1.8-0.1-3.6,0.5-4.9,1.7c-1.4,1.1-2.3,2.7-2.4,4.4c-0.1,1.7,0.5,3.5,1.7,4.7c0.8,0.9,1.7,1.6,2.9,2c1.1,0.4,2.3,0.5,3.4,0.2
				c1.1-0.2,2.2-0.8,3-1.5C538.5,437.9,539.3,436.9,539.8,435.8 M537,433.5c-0.2,1-0.8,1.9-1.7,2.6c-0.8,0.7-1.8,1.1-2.8,1.2
				c-0.9,0-1.7-0.4-2.2-1c-0.6-0.6-0.8-1.5-0.6-2.3c0.2-1,0.8-1.9,1.6-2.5c0.8-0.7,1.8-1.2,2.9-1.2c0.9,0,1.7,0.4,2.2,1
				C536.8,431.8,537.1,432.6,537,433.5"/>
			<path class="st5" d="M549,448.1c1.1-1.1,1.9-2.5,2.1-4c0.1-1.9-0.8-3.7-2.3-4.8c-0.9-0.8-2.1-1.4-3.3-1.6
				c-1.3-0.2-2.5,0.1-3.6,0.8l2.2,2.6c0.4-0.3,1-0.5,1.5-0.5c0.5,0,0.9,0.2,1.3,0.5c0.6,0.5,0.9,1.1,0.9,1.9c0,0.8-0.4,1.6-0.9,2.2
				l-6.4-5.5c-1.5,1.4-2.4,3.4-2.6,5.5c0.2,3.3,3,5.9,6.4,5.7c0.1,0,0.1,0,0.2,0c1.8-0.2,3.4-1.2,4.5-2.6 M543.5,448
				c-1.4,0.1-2.6-0.9-2.7-2.2c0,0,0-0.1,0-0.1c0-0.8,0.4-1.6,0.9-2.1l3.8,3.2C545,447.5,544.3,447.9,543.5,448"/>
			<path class="st5" d="M560.4,270.1l-0.8-4.2l6.2-3.6l3.4,2.7l3.4-1.9l-15.1-11.5l-3.3,1.9l3,18.4L560.4,270.1z M563.3,260.5
				l-4.2,2.4l-1.2-6.7L563.3,260.5z"/>
			<path class="st5" d="M579.9,260.7v-13.5l-3.2,1.2v6.8c0,0.4,0,0.8,0,1.1s0,0.5,0,1.1l-1.4-1.7l-4.7-5.1l-3.3,1.3l9.5,9.8
				L579.9,260.7z"/>
			<path class="st5" d="M568.4,454.3c-0.5-1.6-1.6-2.9-3-3.6c-2.4-1.7-5.6-1.2-7.5,1l2.6,2.1c0.4-0.7,1-1.1,1.7-1.4
				c0.6-0.1,1.1,0,1.6,0.3c0.7,0.3,1.2,1,1.3,1.8c0,1.1-0.3,2.2-1,3.1c-0.4,0.9-1.2,1.7-2.1,2.1c-0.7,0.3-1.5,0.2-2.2-0.3
				c-0.5-0.2-0.9-0.7-1.1-1.2c-0.2-0.5-0.2-1.1,0-1.6l-3.2-1.1c-0.4,1.2-0.3,2.5,0.2,3.6c0.6,1.1,1.6,2.1,2.7,2.6
				c1.4,0.9,3.2,1.2,4.8,0.7c1.7-0.5,3.1-1.8,4-3.4c1-1.5,1.3-3.3,1-5"/>
			<path class="st5" d="M587.2,248c0.3-0.4,0.8-0.6,1.3-0.7c0.6-0.2,1.3-0.2,1.9,0c0.4,0.2,0.8,0.7,0.8,1.2v0.3
				c-0.9,0.6-1.9,1.2-3,1.7c-0.8,0.4-1.6,0.9-2.4,1.4c-1,0.9-1.5,2.3-1,3.6c0.3,1,0.9,1.8,1.8,2.2c1,0.5,2.2,0.5,3.3,0.2
				c0.7-0.2,1.3-0.5,1.9-0.9c0.6-0.5,1.1-1,1.4-1.7l0.2,0.3c0.3,0.4,0.4,0.7,0.6,0.9l3.2-0.9c-0.4-0.4-0.7-0.9-1-1.4
				c-0.3-0.7-0.6-1.5-0.8-2.3l-1-3.6c-0.2-1-0.7-1.9-1.3-2.7c-0.5-0.5-1.2-0.8-1.9-0.9c-1.1-0.1-2.3,0-3.4,0.4
				c-1.3,0.2-2.5,0.9-3.4,1.8c-0.7,0.9-1,2-1,3.1l3.1-0.3c0-0.5,0.2-1,0.5-1.4 M591.7,251l0.2,0.6c0.2,0.5,0.3,1,0.3,1.6
				c0,0.5-0.2,0.9-0.5,1.3c-0.4,0.5-0.9,0.8-1.6,1c-0.5,0.2-1,0.2-1.4,0c-0.4-0.2-0.7-0.6-0.8-1c-0.1-0.5,0-0.9,0.3-1.3
				c0.5-0.4,1-0.8,1.6-1c0.6-0.3,1.3-0.7,1.9-1"/>
			<polygon class="st5" points="568.4,472.2 572,473.5 574.9,470.9 572.9,470.1 			"/>
			<path class="st5" d="M580.1,457.4c-0.8-0.3-1.6-0.4-2.5-0.3c-0.8,0.1-1.6,0.4-2.3,0.8l0.7-1.8l-2.9-1.1l-4.7,11.7l3.1,1.2l2-4.9
				c0.4-1.1,0.9-2.1,1.5-3c0.3-0.4,0.8-0.7,1.3-0.8c0.5-0.2,1.1-0.2,1.7,0c0.4,0.1,0.8,0.4,1,0.8c0.2,0.3,0.3,0.7,0.3,1.1
				c-0.2,1.1-0.6,2.1-1,3.1l-2.2,5.3l3.1,1.2l3-7.2c0.4-0.9,0.6-1.8,0.6-2.7c0-0.7-0.3-1.4-0.8-2
				C581.6,458.1,580.9,457.7,580.1,457.4"/>
			<path class="st5" d="M631.2,254.6c0.5,0,1,0,1.4,0c0.5,0.1,1,0.2,1.4,0.4c1,0,1.9-0.2,2.8-0.7c1.1-0.7,2-1.9,2.4-3.1l-3.2-0.9
				c-0.2,0.7-0.5,1.3-1.1,1.7c-0.5,0.3-1.1,0.4-1.6,0.4c-0.8-0.1-1.5-0.5-1.9-1.2c-0.5-1-0.6-2.1-0.4-3.2c0-1,0.4-2,1.1-2.7
				c0.6-0.5,1.3-0.7,2.1-0.6c0.6,0,1.1,0.3,1.5,0.7c0.4,0.4,0.6,1,0.6,1.6h3.4c-0.1-1.2-0.7-2.4-1.6-3.2c-1-0.9-2.3-1.4-3.6-1.4
				c-1.7-0.3-3.4,0.2-4.7,1.2c-1.3,1.2-2.2,2.8-2.3,4.6c-0.3,1.7,0.1,3.5,1,5c0.7,0.9,1.6,1.6,2.7,1.9"/>
			<path class="st5" d="M697.4,284.7c-0.1,1.6,0.5,3.3,1.7,4.4c0.9,1.1,2.2,1.9,3.6,2.2c1.3,0.1,2.5-0.1,3.6-0.8l-1.8-2.8
				c-0.6,0.4-1.3,0.6-2,0.6c-1.4-0.2-2.3-1.6-2.1-3c0,0,0,0,0,0c0.4-1.1,1.2-2,2.2-2.6c0.7-0.8,1.7-1.2,2.7-1.3c0.8,0,1.5,0.3,2,0.9
				c0.4,0.4,0.6,0.9,0.6,1.5c0,0.6-0.2,1.1-0.6,1.5l2.6,2.1c0.7-1,1.1-2.2,1-3.4c-0.2-1.3-0.7-2.5-1.7-3.4c-1.1-1.3-2.6-2.1-4.3-2.2
				c-1.8,0-3.5,0.7-4.9,1.9c-1.4,1.1-2.4,2.6-2.7,4.4"/>
			<path class="st5" d="M715.6,306.2c-0.7,0.9-1,2-1,3.1c0,1.1,0.3,2.3,0.8,3.3c0.8,1.6,2.2,2.8,3.9,3.3c1.7,0.5,3.5,0.3,5.1-0.5
				c1.6-0.7,3-2,3.6-3.6c0.6-1.7,0.4-3.5-0.5-5c-0.5-1-1.3-1.9-2.3-2.6c-1-0.6-2.1-1-3.2-1c-1.1,0-2.3,0.2-3.3,0.7
				c-1.2,0.5-2.2,1.4-3,2.4 M720.1,307c0.9-0.5,2-0.7,3-0.5c0.8,0.2,1.6,0.7,1.9,1.5c0.4,0.7,0.4,1.6,0,2.4
				c-0.4,0.9-1.2,1.7-2.2,2.1c-0.9,0.5-2,0.7-3.1,0.5c-0.8-0.2-1.5-0.7-1.9-1.4c-0.4-0.8-0.4-1.6,0-2.4
				C718.3,308.3,719.1,307.5,720.1,307"/>
			<path class="st5" d="M726.2,336.6c1.6,0.8,3.4,1,5.2,0.5c1.7-0.4,3.2-1.5,4.1-3c0.9-1.5,1.1-3.3,0.5-5c-0.3-1.1-0.9-2.1-1.7-3
				c-0.8-0.8-1.9-1.4-3-1.6c-1.1-0.3-2.3-0.3-3.4,0c-1.3,0.3-2.4,0.9-3.4,1.8c-0.8,0.8-1.4,1.8-1.6,2.9c-0.3,1.1-0.3,2.3,0,3.4
				c0.4,1.7,1.6,3.1,3.1,3.9 M726.1,329.3c1.4-1.6,3.6-2.2,5.7-1.6c0.8,0.4,1.4,1,1.6,1.8c0.2,0.8,0.1,1.7-0.4,2.3
				c-0.6,0.8-1.5,1.4-2.6,1.6c-1,0.4-2.1,0.4-3.1,0c-0.8-0.3-1.4-1-1.6-1.8C725.5,330.9,725.6,330.1,726.1,329.3"/>
			<path class="st5" d="M706.6,297.8l4.7-3.3c0.8-0.6,1.6-1.1,2.6-1.4c0.5-0.2,1.1-0.2,1.6,0c0.5,0.2,1,0.5,1.3,1
				c0.2,0.3,0.4,0.7,0.4,1.2c0,0.4-0.1,0.8-0.4,1.1c-0.6,0.7-1.3,1.2-2.1,1.7l-5.3,3.6l2,2.7l6.5-4.5c0.6-0.4,1.2-0.9,1.7-1.4
				c0.4-0.4,0.6-0.8,0.8-1.3c0.2-0.6,0.2-1.1,0-1.7c-0.2-0.7-0.5-1.3-0.9-1.9c-1-1.3-2.6-2.1-4.3-2.1l1.6-1.1l-1.8-2.5l-10.5,7.2
				L706.6,297.8z"/>
			<polygon class="st5" points="720.7,323.8 737.2,317.5 736,314.4 719.4,320.8 			"/>
			<path class="st5" d="M509.6,303l0.4,0.2l0.8-1.3c-0.3-0.1-0.5-0.3-0.6-0.6c-0.1-0.2-0.1-0.4,0-0.6c0.3-0.5,0.7-0.8,1.2-1.2
				c0.4-0.3,0.8-0.6,1.1-0.9c0.2-0.2,0.3-0.4,0.5-0.6c0.3-0.5,0.3-1.1,0-1.7c-0.3-0.7-0.9-1.3-1.6-1.6l-0.8,1.3
				c0.3,0.2,0.5,0.4,0.6,0.7c0.1,0.2,0.1,0.4,0,0.6c-0.3,0.4-0.7,0.8-1.1,1.1c-0.4,0.3-0.8,0.5-1.1,0.9c-0.2,0.2-0.3,0.4-0.5,0.6
				c-0.3,0.5-0.4,1.1-0.2,1.7C508.5,302.2,509,302.7,509.6,303"/>
			<path class="st5" d="M512,304.1c0.2,1.1,0.7,2.1,1.5,2.9l2-2.3c-0.4-0.4-0.6-0.8-0.7-1.3c0-0.5,0.1-1,0.4-1.4
				c0.3-0.6,0.7-1.1,1.3-1.4c0.5-0.1,1,0,1.5,0.3l0.3,0.2c-0.2,1.1-0.5,2.2-0.9,3.2c-0.3,0.9-0.6,1.8-0.6,2.7c0,0.7,0.1,1.3,0.4,1.9
				c0.4,0.6,0.9,1,1.4,1.4c0.9,0.5,1.9,0.6,2.9,0.3c1.1-0.3,2-1.1,2.5-2.1c0.4-0.6,0.6-1.3,0.7-2c0.1-0.7,0-1.5-0.2-2.2h0.4l0.9,0.1
				l1.7-2.9c-0.6,0-1.2-0.1-1.8-0.3c-0.8-0.3-1.5-0.7-2.2-1.1l-3.4-1.9c-0.9-0.6-1.8-0.9-2.9-1.1c-0.7,0-1.4,0.3-2,0.7
				c-0.9,0.7-1.6,1.6-2.1,2.6c-0.7,1.1-1.1,2.3-1.1,3.6 M519.5,304c0.3-0.6,0.4-1.3,0.6-2l0.6,0.3c0.5,0.3,0.9,0.6,1.4,0.9
				c0.3,0.3,0.5,0.8,0.6,1.2c0.1,0.6,0,1.3-0.4,1.8c-0.2,0.4-0.6,0.7-1.1,0.9c-0.4,0.2-0.9,0.2-1.3,0c-0.4-0.2-0.7-0.6-0.7-1.1
				c0-0.6,0.2-1.3,0.4-1.9"/>
			<polygon class="st5" points="737.5,329.2 741.9,331.4 740.9,327.9 737,327.3 			"/>
			<path class="st5" d="M617.7,246.4c-0.9,0.1-1.9,0.3-2.7,0.7c-0.6,0.3-1.1,0.7-1.5,1.2c-0.4,0.6-0.6,1.2-0.6,1.9c0,1,0.3,2,1,2.7
				c0.8,0.8,2,1.2,3.1,1.2c0.7,0,1.4-0.1,2.1-0.4c0.7-0.3,1.4-0.7,1.9-1.2c0,0.1,0,0.3,0,0.4c0,0.4,0.2,0.8,0.3,1h3.4
				c-0.3-0.5-0.5-1.1-0.6-1.7c-0.1-0.8-0.1-1.6,0-2.4v-3.9c0.1-1,0-2-0.4-3c-0.4-0.6-0.9-1.1-1.5-1.4c-1.1-0.4-2.2-0.6-3.4-0.6
				c-1.3-0.1-2.5,0.2-3.6,0.8c-0.9,0.6-1.6,1.6-1.9,2.6l3.1,0.6c0.1-0.5,0.5-0.9,0.9-1.2c0.4-0.2,0.9-0.4,1.4-0.3
				c0.6,0,1.3,0.1,1.8,0.5c0.3,0.4,0.5,0.9,0.4,1.4v0.3C619.9,245.9,618.8,246.2,617.7,246.4 M620.9,248.4c0,0.5,0,1.1-0.2,1.6
				c-0.1,0.4-0.4,0.8-0.8,1.1c-0.5,0.3-1.1,0.5-1.8,0.5c-0.5,0-1-0.2-1.3-0.5c-0.3-0.3-0.5-0.8-0.5-1.2c0-0.5,0.3-0.9,0.7-1.2
				c0.6-0.3,1.2-0.4,1.9-0.5c0.7-0.1,1.4-0.3,2.1-0.5L620.9,248.4z"/>
			<path class="st5" d="M648.1,242.2c0.2-0.1,0.4-0.1,0.6,0c0.5,0.2,1,0.5,1.4,0.8l1.2,0.9l0.8,0.3c0.6,0.2,1.2,0.1,1.7-0.3
				c0.6-0.5,1.1-1.3,1.2-2.1l-1.5-0.4c-0.1,0.3-0.3,0.5-0.5,0.7c-0.2,0.1-0.5,0.1-0.7,0c-0.5-0.2-0.9-0.4-1.3-0.8l-1.1-0.9
				c-0.2-0.1-0.5-0.2-0.8-0.3c-0.6-0.2-1.2-0.1-1.7,0.2c-0.6,0.4-1,1-1.2,1.7c0,0.1,0,0.3,0,0.4l1.5,0.4c0.1-0.3,0.2-0.5,0.4-0.7"/>
			<path class="st5" d="M644.3,257c0.7,0.1,1.5,0.1,2.2,0c0.7-0.1,1.5-0.3,2.1-0.7c0,0.1,0,0.3,0,0.4c0,0.4,0,0.8,0,1l3.2,0.9
				c-0.1-0.6-0.1-1.2,0-1.8c0.1-0.8,0.3-1.6,0.5-2.4l1.2-3.6c0.4-0.9,0.5-2,0.4-3c-0.2-0.7-0.6-1.3-1.1-1.7c-0.9-0.7-2-1.2-3.1-1.4
				c-1.3-0.4-2.6-0.5-3.9-0.2c-1,0.4-1.9,1.2-2.5,2.1l2.8,1.3c0.3-0.4,0.7-0.8,1.1-0.9c0.5-0.2,1-0.2,1.5,0c0.6,0.1,1.2,0.4,1.7,0.9
				c0.2,0.5,0.2,1,0,1.5v0.3c-1.1,0.1-2.3,0.1-3.4,0c-0.9-0.1-1.9-0.1-2.8,0c-1.3,0.2-2.4,1.2-2.8,2.5c-0.3,1-0.2,2,0.3,2.9
				c0.6,0.9,1.6,1.6,2.7,1.8 M644.7,252.9c0.2-0.5,0.5-0.8,1-0.9c0.6-0.1,1.3-0.1,1.9,0c1,0,1.7,0,2.1,0l-0.2,0.6
				c-0.1,0.5-0.3,1-0.6,1.5c-0.3,0.4-0.7,0.7-1.1,0.9c-0.6,0.2-1.2,0.2-1.8,0c-0.5-0.1-0.9-0.4-1.1-0.8
				C644.7,253.8,644.6,253.3,644.7,252.9"/>
			<path class="st5" d="M518.2,320c0,0.2,0,0.4,0,0.6l1,0.7c0-0.5,0.1-1,0.4-1.5c0.1-0.4,0.4-0.7,0.7-0.9c0.3-0.1,0.6-0.1,0.8,0
				c0.3,0.1,0.5,0.4,0.5,0.6c0.1,0.5,0,1.1-0.3,1.6c-0.3,0.7-0.6,1.4-1,2l1.3,0.5c0.4-0.6,0.8-1.3,1.1-2.1c0.5-1,0.6-2.2,0.4-3.4
				c-0.2-0.7-0.7-1.2-1.3-1.4c-0.6-0.3-1.2-0.3-1.8,0c-0.3,0.1-0.5,0.3-0.7,0.6c-0.1,0.4-0.2,0.8-0.4,1.2
				C518.8,319.1,518.5,319.5,518.2,320"/>
			<path class="st5" d="M510.4,321.8c1.6,0.7,3.5,0.8,5.2,0.3c1.1-0.4,2-1.1,2.6-2.1c0.1-0.4,0.2-0.8,0.4-1.2
				c0.2-0.5,0.4-0.9,0.8-1.3c0.3-0.9,0.3-1.9,0-2.8c-0.5-1.3-1.4-2.3-2.5-3l-1.8,2.8c0.6,0.3,1.2,0.8,1.4,1.5c0.2,0.5,0.2,1.1,0,1.6
				c-0.3,0.7-0.9,1.3-1.6,1.5c-1.1,0.2-2.3,0-3.3-0.5c-1-0.3-1.9-0.9-2.5-1.8c-0.3-0.7-0.3-1.5,0-2.1c0.2-0.5,0.5-1,1-1.2
				c0.5-0.2,1.1-0.2,1.7,0l0.7-3.2c-1.2-0.2-2.5,0-3.6,0.7c-1.1,0.7-1.9,1.8-2.3,3c-0.7,1.5-0.7,3.3,0,4.8c0.8,1.6,2.3,2.8,4,3.3"/>
			<path class="st5" d="M631.2,254.6h-0.6l-0.4,1.1c0.5-0.1,1.1-0.1,1.6,0c0.4,0,0.8,0.2,1.1,0.4c0.2,0.2,0.3,0.4,0.3,0.7
				c0,0.3-0.2,0.6-0.5,0.7c-0.5,0.2-1.1,0.3-1.7,0.2c-0.8-0.1-1.5-0.2-2.3-0.4v1.4c0.7,0.3,1.5,0.4,2.3,0.5c1.2,0.2,2.5,0.1,3.6-0.5
				c0.6-0.3,1-0.9,1.1-1.6c0.1-0.6-0.1-1.2-0.6-1.7c-0.2-0.2-0.5-0.4-0.8-0.5c-0.4,0-0.9,0-1.3,0c-0.5-0.1-1-0.2-1.6-0.3"/>
			<path class="st5" d="M693.3,268.3c-3.3,0.7-5.9,3.3-6.5,6.7c-0.1,1.9,0.8,3.7,2.3,4.8c0.9,0.8,2.1,1.4,3.3,1.5
				c1.2,0.1,2.4-0.1,3.4-0.8l-2.2-2.6c-0.5,0.3-1,0.5-1.6,0.5c-0.5,0-1-0.2-1.3-0.5c-0.6-0.4-0.9-1.1-0.9-1.8c0-0.8,0.3-1.7,0.9-2.3
				l6.4,5.3c1.5-1.4,2.5-3.3,2.6-5.3c-0.1-1.7-0.9-3.2-2.2-4.3C696.5,268.5,694.9,268,693.3,268.3 M696.1,271.7
				c0.5,0.4,0.8,1,0.8,1.7c0,0.8-0.3,1.6-0.9,2.1l-3.8-3.2c0.5-0.6,1.2-1,2-1.2C694.9,271,695.6,271.2,696.1,271.7"/>
			<polygon class="st5" points="680.7,272.7 688.7,260.6 693.1,263.4 694.7,260.9 682.8,253.5 681.2,256 685.7,258.7 677.7,270.8 
							"/>
			<path class="st5" d="M656.9,260c0.8,0.9,1.7,1.5,2.8,1.9c1.6,0.7,3.5,0.7,5.1,0c1.7-0.6,3-2,3.6-3.6c0.7-1.6,0.7-3.4,0-5
				c-0.7-1.6-2-2.8-3.6-3.4c-1.1-0.5-2.4-0.6-3.6-0.5c-1.1,0.1-2.2,0.6-3.1,1.3c-0.9,0.7-1.6,1.6-2,2.7c-0.5,1.1-0.7,2.4-0.6,3.6
				C655.6,258.2,656.1,259.2,656.9,260 M659.4,254.8c0.3-1,1-1.8,1.9-2.3c0.8-0.3,1.7-0.3,2.5,0c0.8,0.3,1.4,0.9,1.7,1.7
				c0.4,2-0.4,4.2-2.2,5.3c-0.8,0.4-1.7,0.4-2.5,0c-0.8-0.3-1.4-0.9-1.7-1.7C658.8,256.8,658.9,255.7,659.4,254.8"/>
			<path class="st5" d="M726.6,397.3c-1.4-0.7-3-0.9-4.6-0.6c-1.9,0.5-3.4,1.8-4,3.6c-0.6,1.1-0.8,2.4-0.5,3.6
				c0.2,1.1,0.9,2.2,1.7,3l1.9-2.8c-0.4-0.3-0.8-0.8-0.9-1.3c-0.2-0.4-0.2-0.9,0-1.4c0.3-0.7,0.9-1.2,1.6-1.4c0.8-0.3,1.7-0.3,2.5,0
				l-3.6,7.6c1.8,1,3.9,1.3,6,0.9c1.6-0.5,3-1.7,3.6-3.2c0.7-1.4,0.7-3.1,0-4.5c-0.8-1.7-2.2-2.9-3.9-3.6 M727.6,404.4
				c-0.3,0.6-0.8,1.1-1.4,1.3c-0.8,0.2-1.6,0.1-2.4-0.2l2.1-4.5c0.7,0.3,1.4,0.8,1.7,1.5C727.9,403,727.9,403.8,727.6,404.4"/>
			<path class="st5" d="M735,377.7l-1.2,2.8c1,0.4,1.4,1.5,1.1,2.5c-0.1,0.6-0.4,1.2-0.8,1.6c-0.5,0.2-1,0.2-1.5,0h-0.4
				c-0.1-1.1-0.1-2.2,0-3.3c0-0.9,0-1.8-0.2-2.7c-0.1-0.6-0.5-1.2-0.9-1.7c-0.5-0.5-1.1-0.8-1.8-0.9c-1-0.3-2.1-0.1-2.9,0.5
				c-0.9,0.6-1.5,1.6-1.8,2.7c-0.1,0.7-0.1,1.4,0,2.1c0.1,0.7,0.4,1.4,0.8,2.1H725h-1l-0.8,3.2c0.6-0.1,1.2-0.1,1.8,0
				c0.8,0,1.7,0.2,2.5,0.4l3.9,0.9c1,0.3,2,0.4,3.1,0.3c0.7-0.2,1.3-0.6,1.7-1.2c0.6-0.9,1.1-2,1.3-3.1c0.4-1.2,0.4-2.4,0-3.6
				c-0.5-1-1.3-1.8-2.3-2.3 M729.5,384.3c-0.5-0.1-1-0.3-1.5-0.5c-0.4-0.2-0.8-0.6-0.9-1c-0.2-0.6-0.2-1.2,0-1.8
				c0.1-0.5,0.4-0.9,0.8-1.2c0.4-0.3,0.9-0.4,1.3-0.3c0.5,0.1,0.9,0.4,1,0.9c0.1,0.6,0.1,1.3,0,1.9c0,0.7,0,1.4,0,2.1L729.5,384.3z"
				/>
			<path class="st5" d="M722.7,416.3l1.5,0.9l1.7-2.5l-10.8-6.8l-1.8,2.8l5.3,3.3c0.8,0.4,1.5,1,2.1,1.6c0.3,0.4,0.5,0.9,0.5,1.4
				c0,0.5-0.1,1-0.4,1.4c-0.2,0.3-0.4,0.6-0.8,0.7c-0.3,0.1-0.7,0.1-1,0c-0.8-0.3-1.5-0.7-2.1-1.1l-5.9-3.6l-1.8,2.8l5.2,3.2
				c0.8,0.5,1.5,1,2.1,1.6c0.3,0.4,0.5,0.9,0.6,1.4c0,0.5-0.1,0.9-0.4,1.3c-0.3,0.5-0.8,0.8-1.4,0.8c-0.8-0.2-1.6-0.5-2.3-1
				l-6.2-3.9l-1.8,2.9l6.9,4.3c0.7,0.5,1.6,0.9,2.4,1.1c0.8,0.1,1.5,0,2.2-0.3c0.7-0.4,1.3-1,1.8-1.7c0.4-0.6,0.6-1.3,0.7-2
				c0.1-0.8,0-1.6-0.3-2.3c0.7,0,1.4-0.1,2.1-0.4c0.7-0.4,1.2-0.9,1.6-1.5c0.8-1.3,1-2.9,0.4-4.3"/>
			<path class="st5" d="M707.3,439.9c-1-1-2.3-1.5-3.6-1.4c-1.5,0.2-2.9,0.7-4.2,1.5c-1.3,0.8-2.2,1.2-2.6,1.4
				c-0.5,0.2-1,0.2-1.5,0.2c-0.4,0-0.7-0.2-1-0.5c-0.5-0.5-0.7-1.1-0.5-1.8c0.1-0.9,0.6-1.7,1.3-2.3c0.6-0.7,1.5-1.1,2.5-1.2
				c1,0,1.9,0.3,2.7,0.9l2.3-2.4c-1.3-1.1-3-1.8-4.7-1.7c-1.8,0.2-3.5,1-4.8,2.4c-1,0.9-1.8,1.9-2.3,3.1c-1.2,2.6-0.1,5.7,2.5,6.9
				c1.2,0.6,2.5,0.7,3.7,0.3c1.3-0.4,2.5-1,3.6-1.7c1-0.6,2-1.1,3.2-1.4c0.4,0,0.8,0.1,1.2,0.4c0.3,0.3,0.4,0.7,0.3,1.2
				c-0.2,0.8-0.6,1.6-1.3,2.1c-0.5,0.6-1.3,1-2.1,1.1c-0.8,0-1.5-0.2-2.1-0.7l-2.5,2.5c1.1,1.1,2.5,1.7,4,1.6
				c1.9-0.2,3.6-1.1,4.9-2.6c0.9-0.8,1.6-1.7,2.1-2.8c0.4-0.9,0.5-1.8,0.4-2.7c-0.2-0.9-0.6-1.7-1.2-2.3"/>
			
				<rect x="741.5" y="355.6" transform="matrix(0.9996 -2.827057e-02 2.827057e-02 0.9996 -9.8033 21.1484)" class="st5" width="3.1" height="3.3"/>
			<polygon class="st5" points="726.8,356.1 726.9,359.4 739.8,359 739.6,355.7 			"/>
			<path class="st5" d="M733.3,362.5c-1.8-0.2-3.6,0.2-5.1,1.3c-1.3,1-2.1,2.6-2.1,4.2c-0.2,1.4,0.1,2.8,0.9,3.9
				c0.8,1.1,2,1.9,3.4,2.2l0.8-3.2c-0.7-0.1-1.3-0.5-1.8-1c-0.4-0.4-0.5-1-0.4-1.6c0-0.8,0.4-1.5,1.1-1.9c1-0.5,2.2-0.7,3.3-0.5
				c1,0,2.1,0.3,2.9,0.9c0.5,0.5,0.8,1.3,0.7,2c0,0.6-0.2,1.1-0.6,1.5c-0.4,0.4-1,0.6-1.6,0.6l0.3,3.3c1.2-0.2,2.4-0.8,3.2-1.7
				c0.8-1,1.3-2.3,1.3-3.6c0.2-1.7-0.3-3.3-1.4-4.6C736.8,363.2,735.1,362.5,733.3,362.5"/>
			<path class="st5" d="M646.8,462.8c-1.5-1.2-3.5-1.6-5.3-1c-1.2,0.2-2.3,0.8-3.2,1.7c-0.8,0.9-1.3,2-1.4,3.2l3.4-0.2
				c0-0.5,0.2-1.1,0.5-1.5c0.3-0.4,0.8-0.6,1.2-0.7c0.7-0.2,1.5-0.1,2.1,0.4c0.7,0.5,1.2,1.2,1.3,2.1l-8.3,1.8
				c0.3,2,1.3,3.9,2.9,5.2c1.4,1,3.2,1.3,4.8,0.8c1.5-0.3,2.8-1.3,3.6-2.6c0.8-1.5,1-3.3,0.6-5c-0.3-1.5-1.1-2.9-2.2-3.9 M645.7,471
				c-0.4,0.6-0.9,1-1.6,1.2c-0.6,0.2-1.3,0-1.9-0.4c-0.7-0.5-1.1-1.2-1.3-1.9l4.9-1.1c0.3,0.7,0.3,1.5,0,2.3"/>
			<path class="st5" d="M689,450.4c0.4,1,0,2.1-0.9,2.6c-0.5,0.4-1.1,0.7-1.7,0.7c-0.5-0.1-1-0.4-1.2-0.9v-0.3
				c0.6-0.9,1.4-1.8,2.2-2.5c0.7-0.6,1.3-1.4,1.7-2.2c0.4-0.5,0.5-1.2,0.4-1.8c0-0.7-0.3-1.3-0.7-1.8c-0.6-0.8-1.5-1.4-2.5-1.5
				c-1.1-0.1-2.3,0.2-3.1,0.9c-0.6,0.4-1.1,0.9-1.5,1.5c-0.4,0.6-0.7,1.3-0.8,2.1l-0.3-0.2c-0.3-0.2-0.5-0.4-0.8-0.6l-2.7,1.9
				c0.5,0.3,1,0.6,1.5,1c0.6,0.6,1.1,1.2,1.6,1.9l2.3,3.1c0.5,0.9,1.3,1.6,2.1,2.2c0.6,0.3,1.4,0.4,2.1,0.2c1.1-0.3,2.2-0.8,3.1-1.5
				c1-0.7,1.8-1.6,2.3-2.7c0.4-1,0.4-2.2,0-3.2L689,450.4z M683.6,450.7l-0.4-0.5c-0.3-0.4-0.6-0.9-0.9-1.4c-0.1-0.4-0.1-0.9,0-1.4
				c0.2-0.6,0.6-1.1,1.1-1.4c0.4-0.3,0.9-0.4,1.4-0.4c0.5,0.1,0.9,0.3,1.2,0.7c0.2,0.4,0.2,0.9,0,1.3c-0.3,0.6-0.7,1.1-1.2,1.5
				c-0.6,0.7-1.1,1.2-1.4,1.6"/>
			<path class="st5" d="M614.6,477.4l0.5-0.4l1.9-1.8l-1.8-1.4c-0.6,0.9-1.3,1.8-1.8,2.7l-1.5-2.7l-1.9,1.2l0.6,0.8l1.4,1.6
				c-1.2,0-2.2,0.3-3.1,0.5l0.6,2.1l2-0.8l1-0.4c-0.2,1-0.3,2.1-0.4,3.1h2.1c0-1.1-0.1-2.1-0.2-3.1c0.9,0.6,1.8,1,2.8,1.4l0.8-2.1
				l-1.3-0.4L614.6,477.4"/>
			<path class="st5" d="M721.5,342.9c-0.7,1.5-0.9,3.2-0.5,4.8c0.1,0.9,0.3,1.9,0.7,2.7c0.3,0.6,0.7,1.2,1.2,1.6
				c0.6,0.4,1.2,0.7,1.9,0.8c1.1,0.2,2.3,0.2,3.4,0l11.5-1.6l-0.4-3.1l-1.8,0.2c1.2-1,1.8-2.5,1.6-4c-0.1-1.5-0.9-2.8-2.2-3.6
				c-1.5-0.9-3.3-1.2-5.1-0.9c-1.5,0.1-3,0.7-4.2,1.7c-1.3,1-1.9,2.6-1.7,4.2c0.2,1.6,1.1,2.9,2.6,3.6l-1.9,0.2
				c-0.5,0.1-1,0.1-1.6,0c-0.4-0.1-0.7-0.3-0.9-0.5c-0.4-0.6-0.6-1.2-0.6-1.9c-0.2-0.5-0.2-1,0-1.6c0.2-0.3,0.5-0.5,0.9-0.5v-3.6
				H724c-1.1,0.1-2.1,0.7-2.7,1.7 M729.4,344.6c1.7-1.2,3.9-1.5,5.8-0.7c0.7,0.4,1.1,1.1,1.2,1.8c0.1,0.8-0.2,1.6-0.7,2.1
				c-0.8,0.7-1.8,1.1-2.9,1.2c-1,0.2-2.1,0-3-0.5c-0.7-0.4-1.1-1.1-1.2-1.9C728.5,345.9,728.8,345.1,729.4,344.6"/>
			<path class="st5" d="M625,477.4l0.5-0.5c0.6-0.6,1.2-1.2,1.8-1.9l-1.9-1.3c-0.6,1-1.2,1.9-1.6,2.8l-1.7-2.6l-1.8,1.2l0.7,0.8
				l1.5,1.6c-1.2,0.2-2.2,0.5-3.1,0.7l0.7,2.1l1.9-0.9l1-0.5c-0.1,1.1-0.2,2.1-0.3,3.2h2.1c0-1-0.2-2.1-0.4-3.1
				c0.9,0.5,1.9,0.9,2.9,1.3l0.6-2.1l-1.3-0.4l-1.7-0.4"/>
			<path class="st5" d="M660.8,458c-1.3-0.8-2.8-0.9-4.2-0.5c-0.7,0.3-1.4,0.7-1.9,1.2c-0.6,0.6-1,1.3-1.2,2.1l-0.6-1.7l-3,1
				l5.8,16.3l3.2-1.1l-2.1-5.9c1.2,0.8,2.7,0.9,4.1,0.5c1.4-0.4,2.6-1.4,3.1-2.8c0.7-1.6,0.7-3.5,0-5.1c-0.5-1.7-1.6-3.2-3.1-4.1
				 M661,466.3c-0.3,0.7-0.9,1.3-1.6,1.6c-0.7,0.3-1.6,0.2-2.2-0.3c-0.9-0.7-1.5-1.6-1.8-2.7c-0.4-1-0.5-2-0.2-3
				c0.2-0.7,0.8-1.3,1.6-1.6c0.9-0.3,1.9-0.1,2.6,0.5c0.7,0.7,1.3,1.6,1.5,2.6c0.3,0.9,0.3,2,0,2.9"/>
			<path class="st5" d="M675.1,451.4c-0.6-0.5-1.3-0.7-2.1-0.7c-0.8,0-1.6,0.2-2.3,0.5c-0.7,0.4-1.4,0.9-1.9,1.6
				c-0.5,0.7-0.8,1.4-0.9,2.2l-0.9-1.7l-2.8,1.4l6,11.2l3-1.5l-2.6-4.8c-0.6-1-1-2-1.3-3.1c-0.1-0.5,0-1,0.3-1.5
				c0.3-0.5,0.7-0.9,1.2-1.1c0.4-0.2,0.8-0.3,1.3-0.3c0.4,0,0.8,0.2,1.1,0.5c0.6,0.9,1.2,1.8,1.7,2.8l2.7,5.2l3-1.5l-3.6-7.2
				c-0.4-0.9-1-1.6-1.7-2.3"/>
			<polygon class="st5" points="675.7,464.9 674.4,469.6 677.8,467.9 677.6,464 			"/>
			<path class="st33" d="M682.7,389.4c-0.3,0.1-0.7,0.3-0.9,0.5c-0.2,0.3-0.3,0.6-0.3,1c0,0.4,0.2,0.9,0.5,1.2
				c0.4,0.3,0.8,0.5,1.3,0.5c0.7,0,1.4-0.3,1.9-0.8c0.7-0.8,1.2-1.8,1.3-2.9c-0.8,0.2-1.6,0.3-2.4,0.4
				C683.6,389.2,683.1,389.3,682.7,389.4"/>
			<path class="st33" d="M619.7,405.7c-0.7,0-1.4,0.3-1.9,0.7c-0.7,0.6-1.1,1.3-1.3,2.2h5.6v-0.4c0-0.7-0.2-1.3-0.6-1.9
				C620.9,405.9,620.3,405.7,619.7,405.7"/>
			<path class="st33" d="M692.8,385.3c-0.4-0.2-0.8-0.3-1.2-0.3c-0.7,0-1.4,0.3-1.9,0.8c-0.7,0.6-1.1,1.3-1.3,2.1h5.5v-0.5
				c0-0.5-0.1-0.9-0.3-1.3c-0.2-0.4-0.4-0.7-0.8-0.9"/>
			<path class="st33" d="M706.3,342.3v25.3H531v-25.2c-1.1,5.5-1.6,11.1-1.6,16.8c0,48,40,86.7,89.3,86.7
				c49.3,0,89.2-38.9,89.2-86.7C707.9,353.5,707.4,347.9,706.3,342.3 M661.5,383.8h1.4l-0.3,1.7c0.5-0.6,1.2-1.1,1.9-1.4
				c0.5-0.3,1.2-0.4,1.8-0.4c0.7,0,1.4,0.2,1.9,0.6c0.5,0.4,0.7,1.1,0.7,1.7c0,0.6-0.1,1.1-0.3,1.7l-1.3,5.8h-1.7l1.4-6
				c0.1-0.4,0.2-0.9,0.2-1.3c0-0.3-0.1-0.6-0.4-0.8c-0.3-0.2-0.7-0.3-1-0.3c-0.9,0-1.7,0.3-2.3,0.9c-0.8,0.9-1.3,1.9-1.5,3.1
				l-0.9,4.5h-1.8L661.5,383.8z M650,386.5c0.4-0.9,1.1-1.6,1.9-2.2c0.8-0.5,1.7-0.7,2.6-0.7c1.1,0,2.1,0.3,2.9,1
				c0.7,0.8,1.1,1.8,1,2.9c0.1,0.5,0.1,1,0,1.4h-7.2c0,0.2,0,0.3,0,0.5c-0.1,0.7,0.2,1.5,0.6,2.1c0.4,0.5,1,0.7,1.6,0.7
				c0.6,0,1.2-0.2,1.7-0.6c0.6-0.4,1-0.9,1.3-1.6h1.6c-0.3,0.9-0.9,1.7-1.6,2.2c-0.8,0.7-1.9,1.1-3,1.1c-0.7,0-1.4-0.2-2-0.5
				c-0.6-0.3-1.1-0.8-1.4-1.4c-0.3-0.7-0.5-1.4-0.5-2.1c0-1.1,0.3-2.1,0.8-3.1 M647.5,380.2h1.7l-0.4,1.9h-1.7L647.5,380.2z
				 M646.7,383.8h1.8l-2.1,9.6h-1.7L646.7,383.8z M610.6,386.5c0.4-0.9,1.1-1.6,1.9-2.2c0.8-0.5,1.7-0.7,2.6-0.7c1,0,2.1,0.3,2.8,1
				c0.7,0.8,1.1,1.8,1.1,2.9c0,0.5,0,1,0,1.4h-7.2c0,0.2,0,0.3,0,0.5c0,0.7,0.2,1.5,0.6,2.1c0.4,0.5,1,0.7,1.6,0.7
				c0.6,0,1.2-0.2,1.7-0.6c0.6-0.4,1-0.9,1.3-1.6h1.7c-0.3,0.9-0.9,1.7-1.6,2.2c-0.8,0.7-1.9,1.1-3,1.1c-0.7,0-1.4-0.2-2-0.5
				c-0.6-0.3-1.1-0.8-1.4-1.4c-0.3-0.7-0.5-1.4-0.5-2.1c0-1.1,0.3-2.1,0.7-3.1 M602.7,383.8l-0.4,1.7c0.6-0.6,1.2-1.1,1.9-1.4
				c0.6-0.3,1.2-0.4,1.8-0.4c0.7,0,1.4,0.2,1.9,0.6c0.4,0.4,0.7,1.1,0.7,1.7c0,0.6-0.1,1.1-0.3,1.7l-1.3,5.8h-1.8l1.5-6
				c0-0.4,0-0.9,0-1.3c0-0.3-0.1-0.6-0.3-0.8c-0.3-0.2-0.7-0.3-1-0.3c-0.9,0-1.7,0.3-2.3,0.9c-0.8,0.9-1.3,1.9-1.5,3.1l-1,4.5h-1.5
				l2.1-9.7H602.7z M597.7,380.2h1.7l-0.4,1.9h-1.7L597.7,380.2z M581.1,383.8h1.7l-0.4,1.6c0.5-0.5,1.1-1,1.7-1.4
				c0.5-0.3,1-0.4,1.6-0.4c0.6,0,1.1,0.1,1.6,0.5c0.4,0.3,0.7,0.8,0.8,1.3c0.4-0.6,1-1,1.6-1.4c0.5-0.3,1.1-0.4,1.7-0.4
				c0.7,0,1.3,0.1,1.9,0.5c0.4,0.4,0.6,1,0.6,1.6c0,0.5-0.1,1-0.2,1.4l-1.4,6.2h-1.5l1.2-6c0.1-0.4,0.2-0.7,0.2-1.1
				c0-0.3-0.1-0.5-0.3-0.7c-0.2-0.2-0.6-0.3-0.9-0.3c-0.5,0-1.1,0.2-1.5,0.4c-0.5,0.3-0.9,0.7-1.2,1.2c-0.4,0.7-0.6,1.4-0.8,2.2
				l-1,4.7h-1.7l1.4-6.5c0-0.3,0-0.6,0-0.9c0-0.3-0.1-0.6-0.3-0.8c-0.2-0.2-0.5-0.3-0.8-0.3c-0.5,0-1,0.2-1.5,0.4
				c-0.5,0.3-1,0.7-1.3,1.3c-0.4,0.7-0.7,1.5-0.8,2.2l-1,4.5h-1.7L581.1,383.8z M569.3,389.4l1.3-5.6h1.7l-1.4,6.2
				c-0.1,0.4-0.1,0.8,0,1.2c0,0.3,0.1,0.6,0.3,0.8c0.3,0.2,0.7,0.3,1,0.3c0.5,0,1-0.1,1.4-0.4c0.5-0.2,0.9-0.5,1.2-0.9
				c0.3-0.4,0.6-0.8,0.8-1.3c0.2-0.6,0.4-1.1,0.5-1.7l0.8-4.2h1.7l-2.2,9.8h-1.6l0.4-1.7c-0.9,1.1-2.2,1.8-3.6,1.9
				c-0.7,0-1.3-0.2-1.8-0.6c-0.5-0.4-0.7-1-0.7-1.6c0-0.7,0.2-1.4,0.4-2.1 M545.3,393.6h-1.8l2.8-13.4h1.8L545.3,393.6z
				 M557.6,387.8l-1.4,5.8h-1.6l1.2-6.2c0-0.4,0-0.9,0-1.3c0-0.3-0.1-0.6-0.3-0.8c-0.3-0.2-0.7-0.3-1-0.3c-0.9,0-1.7,0.3-2.3,0.9
				c-0.8,0.9-1.3,1.9-1.5,3.1l-1,4.5h-1.7l2.2-9.7h1.6l-0.4,1.7c0.6-0.6,1.2-1.1,1.9-1.4c0.6-0.3,1.2-0.4,1.8-0.4
				c0.7,0,1.3,0.2,1.9,0.6c0.5,0.4,0.7,1.1,0.7,1.7c0,0.6-0.1,1.1-0.3,1.7 M565.7,393.4H564l2.9-13.3h1.7L565.7,393.4z M578.5,410.9
				c-0.3,0.7-0.7,1.4-1.3,2c-0.4,0.5-0.9,0.8-1.5,1.1c-0.5,0.2-1,0.3-1.6,0.3c-1.2,0-2.3-0.7-2.7-1.8l-1.1,5.3h-1.7l2.9-13.3h1.6
				l-0.3,1.3c0.4-0.5,1-0.9,1.6-1.2c1.2-0.6,2.7-0.3,3.6,0.6c0.7,0.8,1,1.8,0.9,2.9c0,0.9-0.2,1.9-0.5,2.7 M583.8,406.8
				c-0.8,1.1-1.3,2.3-1.5,3.6l-0.8,3.9h-1.5l2.1-9.6h1.6l-0.4,2c0.4-0.6,0.9-1.2,1.5-1.7c0.4-0.3,1-0.5,1.5-0.5
				c0.4,0,0.8,0.2,1.2,0.4l-0.7,1.5c-0.3-0.2-0.6-0.3-1-0.3c-0.7,0-1.4,0.4-1.8,0.9 M595.3,411.6c-0.4,0.9-1.1,1.6-1.9,2.2
				c-0.8,0.5-1.8,0.8-2.7,0.8c-0.7,0-1.4-0.1-2.1-0.5c-0.6-0.3-1.1-0.8-1.4-1.3c-0.4-0.6-0.5-1.3-0.5-2.1c-0.1-1.7,0.5-3.4,1.7-4.7
				c0.9-1,2.2-1.5,3.6-1.5c2-0.2,3.8,1.2,4,3.2c0,0.3,0,0.6,0,0.8C595.9,409.6,595.7,410.6,595.3,411.6 M594.7,393.5l2.2-9.7h1.7
				l-2.1,9.6L594.7,393.5z M605.2,414c-0.1,0.9-0.4,1.7-0.9,2.4c-0.3,0.6-0.8,1-1.4,1.3c-0.7,0.3-1.4,0.5-2.2,0.5
				c-0.7,0-1.4-0.1-2.1-0.3c-0.5-0.1-0.9-0.5-1.3-0.9c-0.3-0.4-0.4-0.9-0.4-1.3c0,0,0-0.3,0-0.5h1.7c-0.1,0.3-0.1,0.6,0,0.8
				c0.1,0.2,0.3,0.4,0.5,0.4c0.4,0.2,0.8,0.2,1.2,0.2c0.8,0.1,1.6-0.2,2.2-0.8c0.4-0.7,0.7-1.5,0.8-2.3v-0.8
				c-0.7,0.8-1.7,1.3-2.8,1.3c-1,0-1.9-0.4-2.5-1.1c-0.7-0.8-1.1-1.9-1-3c0-1.1,0.3-2.1,0.8-3c0.5-0.8,1.1-1.5,1.9-2
				c0.7-0.5,1.4-0.7,2.2-0.7c1.3,0,2.4,0.7,3,1.8l0.4-1.6h1.6L605.2,414z M613.4,406c-0.7,0-1.4,0.4-1.8,0.9
				c-0.8,1.1-1.3,2.3-1.5,3.6l-0.8,3.9h-1.6l2.1-9.6h1.5l-0.4,2c0.4-0.6,0.9-1.2,1.5-1.7c0.4-0.3,1-0.5,1.5-0.5
				c0.4,0,0.8,0.2,1.2,0.4l-0.7,1.5c-0.3-0.2-0.6-0.3-1-0.3 M623.3,409.9H616c0,0.2,0,0.3,0,0.5c0,0.8,0.2,1.5,0.6,2.1
				c0.4,0.4,1,0.7,1.6,0.7c0.6,0,1.2-0.2,1.7-0.5c0.6-0.4,1-1,1.3-1.6h1.6c-0.7,2-2.6,3.3-4.7,3.3c-0.7,0-1.4-0.1-2-0.5
				c-0.6-0.3-1.1-0.8-1.4-1.4c-0.3-0.7-0.5-1.4-0.5-2.1c0-1.1,0.3-2.1,0.8-3.1c0.4-0.9,1.1-1.7,1.9-2.2c0.8-0.5,1.7-0.7,2.6-0.7
				c1.1,0,2.1,0.3,2.9,1.1c0.7,0.8,1.1,1.8,1,2.9c0.1,0.5,0.1,0.9,0,1.4 M628.3,407.6c0.5,0.3,0.9,0.5,1.4,0.7
				c0.9,0.3,1.7,0.7,2.4,1.3c0.5,0.5,0.8,1.1,0.8,1.8c0,0.5-0.2,1-0.4,1.4c-0.4,0.5-0.8,0.8-1.4,1.1c-0.7,0.3-1.4,0.4-2.2,0.4
				c-1,0-2-0.2-2.9-0.8c-0.8-0.6-1.3-1.6-1.2-2.7h1.7c0,0.4,0.1,0.8,0.3,1.2c0.2,0.4,0.4,0.6,0.8,0.8c0.4,0.2,0.9,0.3,1.4,0.3
				c0.5,0,1-0.2,1.4-0.5c0.3-0.2,0.5-0.6,0.5-1c0-0.3-0.1-0.6-0.3-0.8c-0.5-0.4-1.1-0.7-1.7-0.9c-0.6-0.2-1.2-0.5-1.7-0.8
				c-0.4-0.2-0.7-0.5-0.9-0.9c-0.2-0.3-0.3-0.7-0.3-1.2c0-0.6,0.3-1.2,0.8-1.7c0.7-0.6,1.7-0.9,2.6-0.8c1-0.1,2,0.2,2.8,0.9
				c0.6,0.5,1,1.4,1,2.2h-1.7c0-0.5-0.2-1.1-0.6-1.4c-0.5-0.4-1.1-0.5-1.7-0.5c-0.5,0-1,0.1-1.4,0.4c-0.3,0.2-0.5,0.5-0.5,0.9
				c0,0.3,0.2,0.6,0.4,0.8 M633.2,392.4c-0.3,0.5-0.8,0.9-1.4,1.1c-1.6,0.6-3.5,0.5-4.9-0.5c-0.8-0.6-1.3-1.7-1.1-2.7h1.7
				c0,0.4,0.1,0.8,0.2,1.2c0.2,0.4,0.4,0.6,0.8,0.8c0.4,0.2,0.9,0.3,1.4,0.3c0.6,0,1.2-0.1,1.7-0.5c0.3-0.2,0.5-0.6,0.5-1
				c0-0.3-0.1-0.6-0.3-0.8c-0.5-0.4-1-0.7-1.7-0.9c-0.6-0.2-1.2-0.5-1.7-0.8c-0.4-0.2-0.7-0.5-0.9-0.9c-0.2-0.3-0.3-0.7-0.3-1.2
				c0-0.8,0.3-1.5,0.9-1.9c0.7-0.6,1.7-0.9,2.6-0.8c1-0.1,2,0.2,2.8,0.8c0.6,0.6,1,1.4,1,2.2h-1.6c0-0.5-0.2-1-0.6-1.4
				c-0.5-0.4-1.1-0.6-1.7-0.5c-0.5,0-1,0.1-1.4,0.4c-0.3,0.2-0.5,0.5-0.5,0.9c0,0.3,0.2,0.6,0.4,0.8c0.5,0.3,0.9,0.5,1.4,0.7
				c0.9,0.3,1.7,0.7,2.4,1.3c0.5,0.5,0.8,1.1,0.8,1.8c0,0.5-0.2,1-0.4,1.4 M637.7,407.8c0.5,0.3,0.9,0.5,1.4,0.7
				c0.9,0.3,1.7,0.7,2.4,1.3c0.5,0.5,0.8,1.1,0.8,1.8c0,0.5-0.2,1-0.4,1.4c-0.4,0.5-0.8,0.8-1.4,1.1c-0.7,0.3-1.4,0.4-2.2,0.4
				c-1,0-2-0.2-2.9-0.8c-0.8-0.6-1.3-1.6-1.2-2.7h1.7c0,0.4,0.1,0.8,0.3,1.2c0.2,0.4,0.4,0.6,0.8,0.8c0.4,0.2,0.9,0.3,1.4,0.3
				c0.6,0,1.2-0.1,1.7-0.4c0.3-0.2,0.5-0.6,0.5-1c0-0.3-0.1-0.6-0.3-0.8c-0.5-0.4-1.1-0.7-1.7-0.9c-0.6-0.2-1.2-0.5-1.7-0.8
				c-0.4-0.2-0.7-0.5-0.9-0.9c-0.2-0.3-0.3-0.7-0.3-1.2c0-0.8,0.3-1.5,0.9-1.9c0.7-0.6,1.7-0.9,2.6-0.8c1-0.1,2,0.2,2.8,0.9
				c0.6,0.5,1,1.4,1,2.2h-1.7c0-0.5-0.2-1.1-0.6-1.4c-0.5-0.4-1.1-0.5-1.7-0.5c-0.5,0-1,0.1-1.4,0.4c-0.3,0.2-0.5,0.5-0.5,0.9
				C637.3,407.3,637.5,407.5,637.7,407.8 M641.9,392.9c-0.8,0.6-1.7,0.9-2.7,0.9c-1,0-1.9-0.4-2.6-1c-0.7-0.7-1.1-1.8-1-2.8
				c0-1.1,0.2-2.1,0.6-3.1c0.4-0.9,1-1.7,1.8-2.3c0.8-0.5,1.7-0.8,2.7-0.8c0.9,0,1.8,0.3,2.5,0.9c0.6,0.6,1,1.4,0.9,2.3h-1.7
				c0-0.5-0.2-1-0.5-1.4c-0.4-0.4-0.9-0.6-1.4-0.5c-0.6,0-1.3,0.2-1.8,0.6c-0.6,0.5-1,1.2-1.2,1.9c-0.3,0.8-0.4,1.6-0.4,2.5
				c0,0.7,0.2,1.3,0.5,1.8c0.4,0.4,0.9,0.6,1.4,0.6c0.6,0,1.1-0.2,1.6-0.6c0.6-0.5,1-1.1,1.2-1.8h1.7c-0.3,1-1,2-1.8,2.7 M651.6,414
				h-1.6l0.3-1.3c-0.9,1.1-2.2,1.8-3.6,1.9c-0.7,0-1.3-0.2-1.8-0.6c-0.5-0.4-0.7-1-0.7-1.6c0-0.7,0.2-1.4,0.4-2.1l1.3-5.6h1.7
				l-1.4,6.2c-0.1,0.4-0.2,0.8-0.2,1.2c0,0.3,0.1,0.6,0.3,0.8c0.3,0.2,0.7,0.3,1,0.3c0.5-0.1,0.9-0.3,1.3-0.6
				c0.5-0.2,0.9-0.5,1.2-0.9c0.3-0.4,0.6-0.8,0.8-1.3c0.2-0.6,0.4-1.1,0.5-1.7l1.1-4h1.7L651.6,414z M668.9,407.8l-1.4,6.2h-1.7
				l1.4-6.4c0-0.4,0-0.7,0-1.1c0-0.3-0.1-0.6-0.3-0.8c-0.2-0.2-0.6-0.3-0.9-0.3c-0.5,0-1.1,0.2-1.5,0.4c-0.5,0.3-0.9,0.7-1.2,1.2
				c-0.4,0.7-0.6,1.4-0.8,2.2l-1,4.7h-1.7l1.4-6.5c0-0.3,0-0.6,0-0.9c0-0.3-0.1-0.6-0.3-0.8c-0.2-0.2-0.5-0.3-0.8-0.3
				c-0.5,0-1,0.2-1.5,0.4c-0.5,0.3-1,0.7-1.3,1.2c-0.4,0.7-0.7,1.5-0.8,2.3l-0.9,4.8h-1.7l2.1-9.6h1.7l-0.4,1.6
				c0.5-0.6,1.1-1,1.7-1.4c0.5-0.3,1-0.4,1.6-0.4c0.6,0,1.1,0.2,1.6,0.5c0.4,0.3,0.7,0.8,0.8,1.3c0.4-0.5,1-1,1.6-1.3
				c0.5-0.3,1.1-0.5,1.7-0.5c0.7,0,1.3,0.2,1.9,0.6c0.4,0.4,0.6,1,0.6,1.6c0,0.5-0.1,1-0.2,1.5 M672.4,392.2c0.2,0.1,0.4,0.1,0.6,0
				c0.3,0,0.7,0,1,0l-0.3,1.3c-0.4,0-0.8,0-1.2,0c-0.6,0-1.1-0.2-1.6-0.5c-0.3-0.2-0.5-0.6-0.5-1c0.1-0.5,0.1-1,0.3-1.5l1.2-5.6
				h-1.3l0.3-1.3h1.3l0.5-2.3l1.9-1.1l-0.8,3.5h1.7l-0.3,1.3h-1.4l-1.2,5.3c-0.1,0.4-0.2,0.8-0.2,1.2c0,0.2,0.1,0.3,0.2,0.5
				 M677.2,393.4h-1.7l1.9-9.6h1.7L677.2,393.4z M678,382l0.4-1.9h1.7l-0.4,1.9H678z M695.5,389.2h-7.2v0.5
				c-0.1,0.7,0.2,1.5,0.6,2.1c0.4,0.4,1,0.7,1.6,0.7c0.6,0,1.1-0.2,1.6-0.5c0.6-0.4,1.1-0.9,1.3-1.6h1.7c-0.4,1-1.1,1.8-1.9,2.5
				c-0.8,0.6-1.7,0.9-2.7,0.9c-0.7,0-1.4-0.2-2-0.5c-0.7-0.4-1.2-0.9-1.6-1.6c-0.4,0.7-1,1.3-1.7,1.6c-0.6,0.4-1.3,0.5-2.1,0.5
				c-0.8,0-1.7-0.3-2.3-0.8c-0.5-0.5-0.8-1.3-0.8-2c0-0.5,0.1-1,0.4-1.4c0.2-0.4,0.5-0.7,0.9-0.9c0.4-0.2,0.9-0.4,1.4-0.5l2.1-0.3
				c0.7,0,1.5-0.1,2.2-0.3c0.1-0.4,0.2-0.7,0.2-1.1c0-0.4-0.1-0.8-0.4-1c-0.4-0.3-0.9-0.4-1.3-0.4c-0.6,0-1.2,0.1-1.8,0.4
				c-0.5,0.3-0.8,0.8-1,1.4h-1.7c0.3-0.9,0.9-1.6,1.6-2.2c0.9-0.5,1.9-0.8,2.9-0.8c0.6,0,1.2,0.1,1.8,0.3c0.5,0.2,0.9,0.6,1.3,1
				c0.9-0.9,2-1.3,3.2-1.3c0.7,0,1.4,0.2,2.1,0.5c0.6,0.3,1.1,0.8,1.3,1.4c0.3,0.6,0.5,1.3,0.5,2.1c0,0.5,0,0.9,0,1.4"/>
			<path class="st33" d="M563,329.9c0.8,0,6.3,4.3,12.5,1.1c4.4-2,6.3-7.2,4.2-11.6c-1.7-3.6-5.6-5.7-9.6-4.9c-4,0.1-7.1,3.4-7,7.4
				c0.1,4,3.4,7.1,7.4,7c7.2,0.6,8.7-9.2,2.5-10.1c-5.5-0.9-6.7,7-1.8,7.2c4.2,0.3,3.2-5.7,0.7-3.1c0-0.6,0-1.3,0.9-1.4
				c2.4-0.2,2.9,4-0.3,4.9c-2.1,0.7-4.4-0.5-5.1-2.7c-0.6-2,0.4-4.1,2.3-4.9c2.6-1.3,5.7-0.3,7,2.3c1,2,0.6,4.5-1.1,6.1
				c-5.8,5.5-15.2-2.2-10.8-9.6c2.8-4.1,8.3-5.2,12.5-2.5c2.8,1.9,4.3,5.2,3.9,8.6c-0.9,7.7-8.7,8.7-9.4,9.7
				c-0.3,2.4-0.4,4.8-0.3,7.2h17.2c4.5-4.4,11.4-11.2,11.7-11.2s6.4,4.3,12.5,1.1c4.4-2.1,6.2-7.3,4.2-11.6
				c-1.7-3.6-5.6-5.6-9.5-4.9c-4,0.1-7.1,3.4-7.1,7.4c0.1,4,3.4,7.1,7.4,7.1c7.2,0.6,8.7-9.2,2.5-10.1c-5.5-0.9-6.6,7-1.8,7.2
				c4.2,0.3,3.1-5.7,0.7-3.1c0-0.6,0-1.3,0.9-1.4c2.4-0.2,2.9,4-0.3,4.9c-2.1,0.7-4.4-0.5-5.1-2.7c-0.6-2,0.4-4.1,2.3-4.9
				c2.5-1.4,5.6-0.6,7.1,1.9c1.3,2.2,0.8,4.9-1.1,6.5c-5.7,5.5-15.2-2.2-10.8-9.6c4.4-7.4,17.4-3.6,16.4,6.1
				c-0.8,7.7-8.6,8.7-9.4,9.7c-0.3,2.4-0.4,4.8-0.3,7.2h17.2c4.5-4.4,11.4-11.2,11.7-11.2s6.4,4.3,12.5,1.1c4.4-2,6.3-7.2,4.2-11.6
				c-1.7-3.6-5.6-5.7-9.6-4.9c-4,0.1-7.1,3.4-7.1,7.4s3.4,7.1,7.4,7.1c7.2,0.6,8.7-9.2,2.5-10.1c-5.5-0.9-6.6,7-1.8,7.2
				c4.2,0.3,3.2-5.7,0.7-3.1c0-0.6,0-1.3,0.9-1.4c2.4-0.2,2.8,4-0.3,4.9c-2.2,0.5-4.4-0.9-4.9-3.1c-0.4-1.8,0.4-3.6,2.1-4.5
				c2.5-1.3,5.7-0.4,7,2.2c1.1,2.1,0.7,4.6-1.1,6.2c-5.8,5.5-15.2-2.2-10.8-9.6c4.4-7.4,17.4-3.6,16.4,6.1c-0.8,7.7-8.6,8.7-9.4,9.7
				c-0.3,2.4-0.4,4.8-0.3,7.2H663c4.5-4.4,11.4-11.2,11.7-11.2s6.3,4.3,12.5,1.1c4.4-2.1,6.2-7.3,4.2-11.6c-1.7-3.6-5.6-5.6-9.5-4.9
				c-4,0.1-7.1,3.4-7.1,7.4c0.1,4,3.4,7.1,7.4,7.1c7.2,0.6,8.7-9.2,2.5-10.1c-5.5-0.9-6.7,7-1.8,7.2c4.2,0.3,3.2-5.7,0.7-3.1
				c0-0.6,0-1.3,0.9-1.4c2.4-0.2,2.9,4-0.3,4.9c-2.1,0.7-4.4-0.5-5.1-2.7c-0.6-2,0.4-4.1,2.3-4.9c2.5-1.4,5.6-0.6,7.1,1.9
				c1.3,2.2,0.8,4.9-1.1,6.5c-5.8,5.5-15.2-2.2-10.8-9.6c2.8-4.1,8.3-5.2,12.5-2.5c2.8,1.9,4.3,5.2,3.9,8.6
				c-0.9,7.7-8.7,8.7-9.4,9.7c-0.3,2.4-0.4,4.8-0.3,7.2h22.7c-11.6-48.2-60.1-77.9-108.3-66.3c-32.8,7.9-58.4,33.5-66.3,66.3h20
				c4.4-4.4,11.4-11.2,11.7-11.2"/>
			<path class="st33" d="M602.3,405.8c-0.4,0-0.8,0.1-1.2,0.3c-0.4,0.2-0.8,0.6-1.1,1c-0.3,0.5-0.6,1-0.8,1.6
				c-0.1,0.5-0.2,0.9-0.3,1.4c-0.1,0.5-0.1,1,0,1.5c0.2,0.4,0.4,0.8,0.8,1c0.3,0.3,0.7,0.4,1.2,0.4c0.6,0,1.2-0.2,1.7-0.6
				c0.6-0.4,1.1-1,1.3-1.7c0.3-0.7,0.5-1.5,0.5-2.3c0-0.7-0.2-1.4-0.7-1.9c-0.4-0.5-1-0.7-1.7-0.7"/>
			<path class="st33" d="M617.6,387.4c0-0.7-0.2-1.4-0.6-1.9c-0.4-0.4-1-0.7-1.6-0.6c-0.7,0-1.4,0.2-2,0.7c-0.7,0.6-1.1,1.3-1.3,2.2
				h5.6C617.6,387.7,617.6,387.5,617.6,387.4"/>
			<path class="st33" d="M656.8,387.4c0-0.7-0.2-1.4-0.6-1.9c-0.4-0.4-1-0.7-1.6-0.6c-0.7,0-1.4,0.2-2,0.7c-0.6,0.6-1.1,1.3-1.3,2.2
				h5.6V387.4"/>
			<path class="st33" d="M575.3,405.8c-0.4,0-0.8,0.1-1.2,0.3c-0.4,0.3-0.8,0.6-1,1c-0.3,0.5-0.6,1-0.8,1.6
				c-0.2,0.5-0.3,1.1-0.3,1.7c0,0.5,0,1,0.2,1.5c0.1,0.4,0.4,0.7,0.8,0.9c0.4,0.2,0.8,0.4,1.2,0.4c1,0,1.9-0.6,2.3-1.6
				c0.6-1,0.9-2.1,0.9-3.2c0-0.7-0.2-1.4-0.6-1.9C576.4,406,575.8,405.8,575.3,405.8"/>
			<path class="st33" d="M592,405.7c-0.5,0-1,0.1-1.4,0.4c-0.5,0.3-0.9,0.6-1.2,1c-0.3,0.5-0.6,1.1-0.8,1.7
				c-0.2,0.5-0.2,1.1-0.3,1.7c-0.1,0.8,0.2,1.5,0.7,2.1c0.4,0.5,1.1,0.7,1.7,0.7c0.4,0,0.7-0.1,1.1-0.2c0.4-0.1,0.7-0.3,1-0.6
				c0.3-0.3,0.6-0.6,0.8-1c0.2-0.4,0.4-0.8,0.5-1.2c0.2-0.6,0.3-1.1,0.3-1.7c0-0.7-0.2-1.5-0.7-2C593.3,406,592.7,405.7,592,405.7"
				/>
			<path class="st32" d="M587.4,404.8c-0.4-0.2-0.8-0.3-1.2-0.4c-0.5,0-1.1,0.2-1.5,0.5c-0.6,0.5-1.1,1-1.5,1.7l0.4-2h-1.5l-2.2,9.6
				h1.6l0.8-3.9c0.2-1.3,0.7-2.6,1.5-3.6c0.5-0.6,1.1-0.9,1.8-0.9c0.3,0,0.7,0.1,0.9,0.3L587.4,404.8z"/>
			<polygon class="st32" points="564,393.6 565.7,393.6 568.6,380.3 566.9,380.3 			"/>
			<path class="st32" d="M575.8,404.5c-0.5,0-1,0.1-1.4,0.4c-0.6,0.3-1.1,0.7-1.6,1.2l0.3-1.3h-1.6l-2.9,13.3h1.7l1.1-5.3
				c0.5,1.1,1.6,1.7,2.7,1.7c0.5,0,1.1-0.1,1.6-0.3c0.6-0.3,1.1-0.7,1.5-1.1c0.6-0.6,1-1.2,1.3-2c0.4-0.9,0.5-1.8,0.5-2.7
				c0-1-0.3-2-0.9-2.8C577.5,404.8,576.7,404.5,575.8,404.5 M576.5,411.7c-0.4,0.9-1.3,1.6-2.3,1.6c-0.4,0-0.9-0.1-1.2-0.4
				c-0.4-0.2-0.6-0.5-0.8-0.9c-0.1-0.5-0.2-1-0.2-1.5c0-0.6,0.1-1.1,0.3-1.7c0.2-0.6,0.4-1.1,0.8-1.6c0.3-0.4,0.6-0.7,1-1
				c0.4-0.2,0.8-0.3,1.2-0.3c0.6,0,1.1,0.2,1.5,0.6c0.4,0.5,0.7,1.2,0.6,1.9C577.4,409.6,577.1,410.7,576.5,411.7"/>
			<path class="st32" d="M592.1,404.5c-1.4,0-2.7,0.5-3.6,1.5c-1.1,1.3-1.8,2.9-1.7,4.7c-0.1,0.7,0.1,1.4,0.4,2.1
				c0.3,0.6,0.8,1.1,1.4,1.4c0.7,0.3,1.4,0.5,2.1,0.5c0.9,0,1.9-0.3,2.7-0.8c0.8-0.5,1.5-1.3,1.9-2.2c0.5-1,0.7-2,0.7-3.1
				c0.1-1.1-0.3-2.2-1.1-3C594.1,404.9,593.1,404.5,592.1,404.5 M594.1,410.2c-0.1,0.4-0.3,0.8-0.5,1.2c-0.2,0.4-0.5,0.7-0.8,1
				c-0.3,0.3-0.6,0.5-1,0.6c-0.3,0.1-0.7,0.2-1.1,0.2c-0.6,0-1.3-0.2-1.7-0.7c-0.5-0.6-0.7-1.3-0.7-2.1c0-0.6,0.1-1.1,0.3-1.7
				c0.2-0.6,0.4-1.2,0.8-1.7c0.3-0.4,0.7-0.8,1.2-1c0.4-0.3,0.9-0.4,1.4-0.4c0.7,0,1.3,0.3,1.7,0.7c0.5,0.6,0.7,1.3,0.6,2
				C594.4,409.1,594.3,409.7,594.1,410.2"/>
			<path class="st32" d="M581.6,389c0.2-0.8,0.4-1.5,0.8-2.2c0.3-0.5,0.8-1,1.3-1.3c0.4-0.3,1-0.4,1.5-0.4c0.3,0,0.6,0.1,0.8,0.3
				c0.2,0.2,0.3,0.5,0.3,0.8c0,0.3,0,0.6,0,0.9l-1.4,6.5h1.7l1-4.7c0.1-0.8,0.4-1.5,0.8-2.2c0.3-0.5,0.7-0.9,1.2-1.2
				c0.5-0.3,1-0.4,1.5-0.4c0.3,0,0.6,0.1,0.9,0.3c0.2,0.2,0.3,0.4,0.3,0.7c0,0.4-0.1,0.8-0.2,1.1l-1.3,6.4h1.7l1.2-6.2
				c0.1-0.5,0.2-1,0.2-1.4c0-0.6-0.2-1.2-0.6-1.6c-0.5-0.4-1.2-0.6-1.9-0.5c-0.6,0-1.2,0.1-1.7,0.4c-0.6,0.3-1.2,0.8-1.6,1.4
				c-0.1-0.5-0.4-1-0.8-1.3c-0.4-0.3-1-0.5-1.6-0.5c-0.6,0-1.1,0.1-1.6,0.4c-0.6,0.4-1.2,0.8-1.7,1.4l0.4-1.6h-1.7l-2.1,9.6h1.7
				L581.6,389z"/>
			<path class="st32" d="M571.5,393.8c1.4-0.1,2.7-0.8,3.6-1.9l-0.4,1.7h1.6l2.2-9.8h-1.7l-0.9,4.2c-0.1,0.6-0.3,1.2-0.5,1.7
				c-0.2,0.5-0.4,1-0.8,1.4c-0.3,0.4-0.7,0.7-1.2,0.9c-0.4,0.2-0.9,0.4-1.4,0.4c-0.4,0-0.7-0.1-1-0.3c-0.2-0.2-0.3-0.5-0.3-0.8
				c-0.1-0.4-0.1-0.8,0-1.2l1.6-6.2h-1.7l-1.3,5.6c-0.2,0.7-0.3,1.4-0.4,2.1c0,0.6,0.3,1.2,0.7,1.6c0.5,0.4,1.2,0.7,1.8,0.6"/>
			<polygon class="st32" points="543.4,393.6 545.2,393.6 548.1,380.3 546.3,380.3 			"/>
			<path class="st32" d="M555.2,383.8c-0.6,0-1.2,0.1-1.8,0.4c-0.7,0.4-1.3,0.9-1.9,1.4l0.4-1.7h-1.6l-2.1,9.6h1.7l1.2-4.5
				c0.2-1.2,0.7-2.2,1.5-3.1c0.6-0.6,1.5-0.9,2.3-0.9c0.4,0,0.7,0.1,1,0.3c0.2,0.2,0.3,0.5,0.3,0.8c0,0.4,0,0.9,0,1.3l-1.6,6.1h1.7
				l1.3-5.8c0.1-0.6,0.2-1.1,0.3-1.7c0-0.6-0.2-1.2-0.7-1.7c-0.5-0.4-1.2-0.6-1.9-0.6"/>
			<polygon class="st32" points="596.9,383.9 594.8,393.6 596.5,393.6 598.6,383.9 			"/>
			<path class="st32" d="M630.5,387.8c-0.5-0.2-1-0.4-1.4-0.7c-0.2-0.2-0.4-0.5-0.4-0.8c0-0.3,0.2-0.7,0.5-0.9
				c0.4-0.3,0.9-0.4,1.4-0.4c0.6,0,1.2,0.1,1.7,0.5c0.4,0.3,0.6,0.8,0.6,1.4h1.7c0-0.8-0.4-1.7-1-2.2c-0.8-0.6-1.8-0.9-2.8-0.8
				c-0.9-0.1-1.9,0.2-2.6,0.8c-0.6,0.5-0.9,1.2-0.9,1.9c0,0.4,0.1,0.8,0.3,1.2c0.2,0.4,0.6,0.7,0.9,0.9c0.5,0.3,1.1,0.6,1.7,0.8
				c0.6,0.2,1.2,0.5,1.7,0.9c0.2,0.2,0.3,0.5,0.3,0.8c0,0.4-0.2,0.8-0.5,1c-0.5,0.3-1.1,0.5-1.7,0.4c-0.5,0-1-0.1-1.4-0.3
				c-0.4-0.2-0.6-0.5-0.8-0.8c-0.2-0.4-0.2-0.8-0.2-1.2h-1.7c-0.1,1,0.3,2,1.1,2.7c1.5,0.9,3.4,1.1,5.1,0.4c0.6-0.2,1-0.6,1.4-1.1
				c0.3-0.4,0.4-0.9,0.4-1.4c0-0.7-0.3-1.4-0.8-1.8C632.2,388.5,631.4,388.1,630.5,387.8"/>
			<path class="st32" d="M640.7,391.9c-0.4,0.4-1,0.6-1.6,0.6c-0.5,0-1-0.2-1.4-0.6c-0.4-0.5-0.6-1.2-0.5-1.8c0-0.8,0.2-1.7,0.4-2.5
				c0.2-0.7,0.6-1.4,1.2-1.9c0.5-0.4,1.1-0.6,1.8-0.6c0.5,0,1,0.2,1.4,0.5c0.4,0.4,0.6,0.9,0.5,1.4h1.7c0.1-0.9-0.3-1.7-0.9-2.3
				c-0.7-0.6-1.6-0.9-2.5-0.9c-1,0-1.9,0.3-2.7,0.8c-0.8,0.6-1.5,1.4-1.8,2.3c-0.4,1-0.6,2-0.6,3.1c-0.1,1,0.3,2.1,1,2.8
				c0.7,0.7,1.6,1.1,2.6,1c1,0,1.9-0.3,2.7-0.9c0.8-0.7,1.5-1.6,1.8-2.6h-1.7c-0.2,0.7-0.6,1.4-1.2,1.8"/>
			<path class="st32" d="M637.7,406.1c0.4-0.3,0.9-0.4,1.4-0.4c0.6,0,1.2,0.1,1.7,0.5c0.4,0.4,0.6,0.9,0.6,1.4h1.7
				c0-0.8-0.4-1.7-1-2.2c-0.8-0.6-1.8-0.9-2.8-0.9c-0.9-0.1-1.9,0.2-2.6,0.8c-0.6,0.5-1,1.2-0.9,1.9c0,0.4,0.1,0.8,0.3,1.2
				c0.2,0.4,0.6,0.7,0.9,0.9c0.5,0.3,1.1,0.6,1.7,0.8c0.6,0.2,1.2,0.5,1.7,0.9c0.2,0.2,0.3,0.5,0.3,0.8c0,0.4-0.2,0.8-0.5,1
				c-0.5,0.3-1.1,0.5-1.7,0.4c-0.5,0-1-0.1-1.4-0.3c-0.3-0.2-0.6-0.5-0.8-0.8c-0.2-0.4-0.3-0.8-0.3-1.2h-1.7c-0.1,1,0.3,2.1,1.2,2.7
				c0.8,0.6,1.9,0.9,2.9,0.8c0.8,0,1.5-0.1,2.2-0.4c0.5-0.2,1-0.6,1.4-1.1c0.3-0.4,0.4-0.9,0.4-1.4c0-0.7-0.3-1.4-0.8-1.8
				c-0.8-0.5-1.6-0.9-2.4-1.3c-0.5-0.2-1-0.4-1.4-0.7c-0.2-0.2-0.4-0.5-0.4-0.8C637.3,406.7,637.4,406.4,637.7,406.1"/>
			<path class="st32" d="M619.7,404.5c-0.9,0-1.8,0.3-2.6,0.7c-0.8,0.5-1.5,1.3-1.9,2.2c-0.5,0.9-0.8,2-0.8,3.1
				c0,0.7,0.2,1.5,0.5,2.1c0.3,0.6,0.8,1.1,1.4,1.4c0.6,0.3,1.3,0.5,2,0.5c2.1,0,4-1.3,4.7-3.3h-1.6c-0.3,0.6-0.7,1.2-1.3,1.6
				c-0.5,0.3-1.1,0.5-1.7,0.5c-0.6,0-1.2-0.2-1.6-0.7c-0.5-0.6-0.7-1.3-0.6-2.1c0-0.2,0-0.3,0-0.5h7.2c0-0.5,0-1,0-1.4
				c0-1.1-0.3-2.1-1-2.9c-0.8-0.7-1.8-1.1-2.9-1.1 M621.7,408.8h-5.4c0.2-0.9,0.7-1.6,1.3-2.2c0.5-0.5,1.2-0.7,1.9-0.7
				c0.6,0,1.2,0.2,1.7,0.6c0.4,0.5,0.6,1.2,0.6,1.9v0.4"/>
			<path class="st32" d="M605.2,406.2c-0.6-1.1-1.7-1.8-3-1.8c-0.8,0-1.6,0.3-2.2,0.7c-0.8,0.5-1.5,1.2-1.9,2
				c-0.5,0.9-0.8,1.9-0.8,3c-0.1,1.1,0.3,2.2,1,3c0.6,0.7,1.6,1.1,2.5,1.1c1.1,0,2.1-0.5,2.8-1.3v0.8c-0.1,0.8-0.4,1.6-0.8,2.3
				c-0.6,0.6-1.4,0.8-2.2,0.8c-0.4,0-0.8-0.1-1.2-0.2c-0.2-0.1-0.4-0.2-0.5-0.4c-0.1-0.3-0.1-0.6,0-0.8h-1.7c0,0,0,0.3,0,0.5
				c0,0.5,0.1,0.9,0.4,1.3c0.3,0.4,0.8,0.7,1.3,0.9c0.7,0.2,1.4,0.3,2.1,0.3c0.8,0,1.5-0.2,2.2-0.5c0.6-0.3,1.1-0.7,1.4-1.3
				c0.4-0.8,0.7-1.6,0.9-2.4l2-9.3h-1.9L605.2,406.2z M604.1,410.7c-0.3,0.7-0.7,1.3-1.3,1.7c-0.5,0.4-1.1,0.6-1.7,0.6
				c-0.4,0-0.8-0.1-1.2-0.4c-0.4-0.3-0.6-0.6-0.8-1c-0.1-0.5-0.1-1,0-1.5c0-0.5,0.1-1,0.3-1.4c0.2-0.6,0.4-1.1,0.8-1.6
				c0.3-0.4,0.7-0.7,1.1-1c0.4-0.2,0.8-0.3,1.2-0.3c0.6,0,1.2,0.2,1.7,0.7c0.5,0.5,0.7,1.2,0.7,1.9c0,0.8-0.2,1.6-0.5,2.3"/>
			<path class="st32" d="M613.7,404.5c-0.6,0-1.1,0.2-1.5,0.5c-0.6,0.5-1.1,1-1.5,1.7l0.4-2h-1.5l-2.1,9.6h1.6l0.8-3.9
				c0.2-1.3,0.7-2.6,1.5-3.6c0.5-0.5,1.1-0.9,1.8-0.9c0.3,0,0.7,0.1,1,0.3l0.7-1.5c-0.4-0.2-0.8-0.3-1.2-0.4"/>
			<path class="st32" d="M628.1,406.1c0.4-0.3,0.9-0.4,1.4-0.4c0.6,0,1.2,0.1,1.7,0.5c0.4,0.4,0.6,0.9,0.6,1.4h1.7
				c0-0.8-0.4-1.7-1-2.2c-0.8-0.6-1.8-0.9-2.8-0.9c-1-0.1-2,0.3-2.7,0.9c-0.6,0.5-0.9,1.2-0.9,1.9c0,0.4,0.1,0.8,0.3,1.2
				c0.2,0.4,0.6,0.7,0.9,0.9c0.5,0.3,1.1,0.6,1.7,0.8c0.6,0.2,1.2,0.5,1.7,0.9c0.2,0.2,0.3,0.5,0.3,0.8c0,0.3-0.2,0.5-0.4,0.7
				c-0.5,0.3-1.1,0.5-1.7,0.4c-0.5,0-1-0.1-1.4-0.3c-0.3-0.2-0.6-0.5-0.8-0.8c-0.2-0.4-0.3-0.8-0.3-1.2h-1.7c-0.1,1,0.3,2.1,1.2,2.7
				c0.8,0.6,1.9,0.9,2.9,0.8c0.8,0,1.5-0.1,2.2-0.4c0.5-0.2,1-0.6,1.4-1.1c0.3-0.4,0.4-0.9,0.4-1.4c0-0.7-0.3-1.4-0.8-1.8
				c-0.7-0.5-1.6-1-2.4-1.3c-0.5-0.2-1-0.4-1.4-0.7c-0.2-0.2-0.4-0.5-0.4-0.8c0-0.3,0.2-0.7,0.5-0.9"/>
			<path class="st32" d="M673.8,385.2h1.6l0.3-1.3h-1.9l0.8-3.6l-1.9,1.1l-0.5,2.3h-1.3l-0.3,1.3h1.3l-1.2,5.6
				c-0.1,0.5-0.2,1-0.3,1.5c0,0.4,0.2,0.7,0.5,1c0.5,0.4,1,0.5,1.6,0.5c0.4,0,0.8,0,1.2,0l0.3-1.3c-0.3,0-0.7,0-1,0
				c-0.2,0.1-0.4,0.1-0.6,0c-0.1-0.1-0.2-0.3-0.2-0.5c0-0.4,0.1-0.8,0.2-1.2L673.8,385.2z"/>
			<path class="st32" d="M666.6,404.5c-0.6,0-1.2,0.2-1.7,0.5c-0.6,0.3-1.2,0.8-1.6,1.3c-0.1-0.5-0.4-1-0.8-1.3
				c-0.4-0.3-1-0.5-1.6-0.5c-0.6,0-1.1,0.1-1.6,0.4c-0.6,0.4-1.2,0.8-1.7,1.4l0.4-1.6h-1.7l-2.1,9.6h1.6l1-4.5
				c0.1-0.8,0.4-1.6,0.8-2.3c0.3-0.5,0.8-0.9,1.3-1.2c0.4-0.3,1-0.4,1.5-0.4c0.3,0,0.6,0.1,0.8,0.3c0.2,0.2,0.3,0.5,0.3,0.8
				c0,0.3-0.1,0.6-0.2,0.9l-1.4,6.5h1.7l1-4.7c0.1-0.8,0.4-1.5,0.8-2.2c0.3-0.5,0.7-0.9,1.2-1.2c0.5-0.3,1-0.4,1.5-0.4
				c0.3,0,0.6,0.1,0.9,0.3c0.2,0.2,0.3,0.4,0.3,0.7c0,0.4,0,0.7,0,1.1l-1.4,6.4h1.7l1.4-6.2c0.1-0.5,0.2-1,0.2-1.5
				c0-0.6-0.2-1.2-0.6-1.6C668,404.6,667.3,404.4,666.6,404.5"/>
			<path class="st32" d="M651.1,408.9c-0.1,0.6-0.3,1.2-0.5,1.7c-0.2,0.5-0.4,0.9-0.8,1.3c-0.4,0.3-0.8,0.6-1.3,0.8
				c-0.4,0.2-0.9,0.3-1.4,0.3c-0.4,0-0.7-0.1-1-0.3c-0.2-0.2-0.3-0.5-0.3-0.8c0-0.4,0.1-0.8,0.2-1.2l1.4-6.2h-1.7l-1.3,5.6
				c-0.2,0.7-0.3,1.4-0.4,2.1c0,0.6,0.3,1.2,0.7,1.6c0.5,0.4,1.2,0.7,1.8,0.6c1.4-0.1,2.7-0.8,3.6-1.9l-0.4,1.8h1.6l2.2-9.6h-1.4
				L651.1,408.9z"/>
			<polygon class="st32" points="599.4,380.3 597.7,380.3 597.3,382.1 599,382.1 			"/>
			<polygon class="st32" points="678.2,380.3 677.8,382.1 679.5,382.1 679.9,380.3 			"/>
			<path class="st32" d="M693.6,384.3c-0.6-0.4-1.3-0.5-2.1-0.5c-1.2,0-2.4,0.4-3.2,1.3c-0.4-0.4-0.8-0.8-1.3-1
				c-0.6-0.2-1.2-0.3-1.8-0.3c-1,0-2,0.2-2.9,0.8c-0.8,0.5-1.3,1.3-1.6,2.2h1.7c0.2-0.6,0.6-1,1-1.4c0.5-0.3,1.2-0.5,1.8-0.4
				c0.5,0,1,0.1,1.3,0.4c0.3,0.3,0.5,0.7,0.4,1c0,0.4-0.1,0.8-0.2,1.1c-0.7,0.2-1.5,0.3-2.2,0.3l-2.1,0.3c-0.5,0.1-1,0.2-1.4,0.5
				c-0.4,0.2-0.7,0.5-0.9,0.9c-0.2,0.4-0.4,0.9-0.4,1.4c0,0.8,0.2,1.5,0.8,2c0.7,0.6,1.5,0.8,2.3,0.8c1.5-0.1,2.8-0.9,3.6-2.2
				c0.3,0.7,0.9,1.3,1.6,1.6c0.6,0.4,1.3,0.5,2,0.5c1,0,1.9-0.3,2.7-0.9c0.8-0.6,1.5-1.5,1.9-2.5h-1.7c-0.3,0.6-0.8,1.2-1.3,1.6
				c-0.5,0.3-1,0.5-1.6,0.5c-0.6,0-1.2-0.2-1.6-0.7c-0.4-0.6-0.7-1.3-0.6-2.1c0,0,0-0.4,0-0.5h7.2c0-0.5,0-0.9,0-1.4
				c0-0.7-0.2-1.4-0.5-2.1c-0.3-0.6-0.7-1.1-1.3-1.4 M685.2,391.7c-0.5,0.5-1.2,0.8-1.9,0.8c-0.5,0-1-0.2-1.3-0.5
				c-0.3-0.3-0.5-0.7-0.5-1.2c0-0.3,0.1-0.7,0.3-0.9c0.2-0.3,0.5-0.5,0.9-0.6c0.5-0.1,0.9-0.2,1.4-0.2c0.8-0.1,1.6-0.2,2.4-0.4
				C686.4,389.9,685.9,390.9,685.2,391.7 M693.9,387.9h-5.5c0.2-0.8,0.7-1.6,1.3-2.1c0.5-0.5,1.2-0.7,1.9-0.8c0.4,0,0.8,0.1,1.2,0.3
				c0.4,0.2,0.6,0.5,0.8,0.9c0.2,0.4,0.3,0.9,0.3,1.3V387.9"/>
			<polygon class="st32" points="675.3,389.6 677,389.6 679.1,383.9 677.4,383.9 			"/>
			<path class="st32" d="M611.9,393.3c0.6,0.3,1.3,0.5,2,0.5c1.1,0,2.2-0.4,3-1.1c0.7-0.6,1.3-1.4,1.6-2.2l-1.7-0.2
				c-0.2,0.7-0.7,1.2-1.3,1.6c-0.5,0.4-1.1,0.6-1.7,0.6c-0.6,0-1.2-0.3-1.6-0.7c-0.5-0.6-0.7-1.3-0.6-2.1c0-0.2,0-0.3,0-0.5h7.2
				c0-0.5,0-1,0-1.4c0.1-1.1-0.3-2.1-1-2.9c-0.7-0.7-1.6-1-2.6-1c-0.9,0-1.8,0.2-2.6,0.7c-0.8,0.5-1.5,1.3-1.9,2.2
				c-0.5,1-0.7,2-0.7,3.1c0,0.7,0.1,1.5,0.5,2.1C610.8,392.5,611.3,393,611.9,393.3 M613.4,385.8c0.6-0.5,1.3-0.7,2-0.7
				c0.6,0,1.2,0.2,1.6,0.6c0.5,0.5,0.7,1.2,0.6,1.9c0,0.1,0,0.2,0,0.4H612C612.3,387.1,612.7,386.4,613.4,385.8"/>
			<polygon class="st32" points="648.4,383.9 646.7,383.9 644.6,393.6 646.3,393.6 			"/>
			<path class="st32" d="M662.1,389.1c0.2-1.2,0.7-2.3,1.5-3.1c0.6-0.6,1.5-0.9,2.3-0.9c0.4,0,0.7,0.1,1,0.3
				c0.2,0.2,0.4,0.5,0.4,0.8c0,0.4-0.1,0.9-0.2,1.3l-1.4,6.1h1.7l1.3-5.8c0.1-0.6,0.2-1.1,0.3-1.7c0-0.6-0.2-1.3-0.7-1.7
				c-0.5-0.4-1.2-0.7-1.9-0.6c-0.6,0-1.2,0.1-1.8,0.4c-0.7,0.4-1.3,0.9-1.9,1.4l0.3-1.8h-1.4l-2.2,9.8h1.7L662.1,389.1z"/>
			<path class="st32" d="M600.7,393.6l0.9-4.5c0.2-1.2,0.7-2.3,1.5-3.1c0.6-0.6,1.5-0.9,2.3-0.9c0.4,0,0.7,0.1,1,0.3
				c0.2,0.2,0.3,0.5,0.3,0.8c0,0.4,0,0.9,0,1.3l-1.6,6.1h1.7l1.3-5.8c0.1-0.6,0.2-1.1,0.3-1.7c0-0.6-0.2-1.2-0.7-1.7
				c-0.5-0.4-1.2-0.6-1.9-0.6c-0.6,0-1.2,0.1-1.8,0.4c-0.7,0.4-1.3,0.9-1.9,1.4l0.4-1.7H601l-2.1,9.6H600.7z"/>
			<path class="st32" d="M651.1,393.3c0.6,0.3,1.3,0.5,2,0.5c1.1,0,2.2-0.4,3-1.1c0.8-0.6,1.3-1.3,1.6-2.2l-1.6-0.2
				c-0.3,0.6-0.7,1.2-1.3,1.6c-0.5,0.4-1.1,0.6-1.7,0.6c-0.6,0-1.2-0.3-1.6-0.7c-0.5-0.6-0.7-1.3-0.6-2.1c0-0.2,0-0.3,0-0.5h7.2
				c0.1-0.5,0.1-1,0-1.4c0.1-1.1-0.3-2.1-1-2.9c-0.8-0.7-1.8-1.1-2.9-1c-0.9,0-1.8,0.2-2.6,0.7c-0.8,0.5-1.5,1.3-1.9,2.2
				c-0.5,0.9-0.8,2-0.8,3.1c0,0.7,0.1,1.5,0.5,2.1c0.3,0.6,0.8,1.1,1.4,1.4 M652.3,385.8c0.5-0.5,1.2-0.7,1.9-0.7
				c0.6,0,1.2,0.2,1.7,0.6c0.4,0.5,0.7,1.2,0.6,1.9v0.4h-5.3c0.2-0.8,0.7-1.6,1.4-2.2"/>
			<polygon class="st32" points="649.2,380.3 647.5,380.3 647.1,382.1 648.8,382.1 			"/>
			<path class="st33" d="M647,322c-0.1,0-0.3,0.1-0.3,0.3c0,0.1,0.1,0.3,0.3,0.3c0,0,0,0,0,0c0.1,0,0.3-0.1,0.3-0.3
				S647.1,322,647,322C647,322,647,322,647,322"/>
			<path class="st33" d="M609.7,322c-0.1,0-0.3,0.1-0.3,0.3c0,0.1,0.1,0.3,0.3,0.3c0,0,0,0,0,0c0.1,0,0.3-0.1,0.3-0.3
				S609.8,322,609.7,322C609.7,322,609.7,322,609.7,322"/>
			<path class="st33" d="M684.3,322c-0.1,0-0.3,0.1-0.3,0.3s0.1,0.3,0.3,0.3c0,0,0,0,0,0c0.1,0,0.3-0.1,0.3-0.3
				C684.5,322.1,684.4,322,684.3,322C684.3,322,684.3,322,684.3,322"/>
			<path class="st33" d="M572.4,322c-0.1,0-0.3,0.1-0.3,0.3c0,0.1,0.1,0.3,0.3,0.3c0,0,0,0,0,0c0.1,0,0.3-0.1,0.3-0.3
				C572.7,322.1,572.6,322,572.4,322C572.4,322,572.4,322,572.4,322"/>
			<path class="st32" d="M706.3,367.5v-26.4h-23.2c-0.1-2.4,0-4.8,0.3-7.2c0.8-1,8.6-2,9.4-9.7c0.6-4.9-2.9-9.4-7.8-10
				c-3.4-0.4-6.7,1.1-8.6,3.9c-4.4,7.4,5.1,15.1,10.8,9.6c2.2-1.8,2.5-5.1,0.6-7.3c-1.6-1.9-4.4-2.4-6.5-1.1c-2.1,0.9-3,3.3-2.1,5.3
				c0.8,1.9,2.9,2.9,4.9,2.3c3.1-0.9,2.7-5.1,0.3-4.9c-0.9,0-0.8,0.8-0.9,1.4c2.5-2.6,3.6,3.4-0.7,3.1c-4.8-0.3-3.6-8.2,1.8-7.2
				c6.2,1,4.7,10.8-2.5,10.1c-4,0.1-7.3-3.1-7.4-7.1c-0.1-4,3.1-7.3,7.1-7.4c4.7-0.9,9.3,2.3,10.2,7c0.7,3.9-1.3,7.8-4.9,9.5
				c-6.1,3.2-11.7-1.2-12.5-1.1c-0.8,0.1-7.2,6.8-11.7,11.2h-17.2c-0.1-2.4,0-4.8,0.3-7.2c0.8-1,8.6-2,9.4-9.7
				c1.1-9.7-11.7-14.1-16.4-6.1c-4.7,8,5.1,15.1,10.8,9.6c2.1-2,2.2-5.2,0.3-7.3c-1.6-1.7-4.2-2.2-6.2-1.1c-2,1.1-2.7,3.5-1.7,5.5
				c0.9,1.6,2.7,2.5,4.5,2.1c3.1-0.9,2.7-5.1,0.3-4.9c-0.9,0-0.9,0.8-0.9,1.4c2.5-2.6,3.6,3.4-0.7,3.1c-4.8-0.3-3.6-8.2,1.8-7.2
				c6.3,1,4.8,10.8-2.5,10.1c-4,0.1-7.3-3.1-7.4-7.1s3.1-7.3,7.1-7.4c4.7-0.9,9.3,2.2,10.2,6.9c0.8,3.9-1.3,7.9-4.9,9.6
				c-6.1,3.2-11.7-1.2-12.5-1.1s-7.2,6.8-11.7,11.2h-17.2c-0.1-2.4,0-4.8,0.3-7.2c0.8-1,8.6-2,9.4-9.7c1-9.7-11.7-14.1-16.4-6.1
				c-4.7,8,5.1,15.1,10.8,9.6c2.2-1.8,2.5-5.1,0.6-7.3c-1.6-1.9-4.4-2.4-6.5-1.1c-2.1,0.9-3,3.3-2.1,5.3c0.8,1.9,2.9,2.9,4.9,2.3
				c3.1-0.9,2.7-5.1,0.3-4.9c-0.9,0-0.8,0.8-0.9,1.4c2.5-2.6,3.6,3.4-0.7,3.1c-4.8-0.3-3.6-8.2,1.8-7.2c6.3,1,4.7,10.8-2.5,10.1
				c-4,0.1-7.3-3.1-7.4-7.1c-0.1-4,3.1-7.3,7.1-7.4c4.7-0.9,9.3,2.3,10.2,7c0.7,3.9-1.3,7.8-4.9,9.5c-6.1,3.2-11.7-1.2-12.5-1.1
				c-0.8,0.1-7.2,6.8-11.7,11.2h-17.2c-0.1-2.4,0-4.8,0.3-7.2c0.8-1,8.6-2,9.4-9.7c0.6-4.9-2.9-9.4-7.8-10c-3.4-0.4-6.7,1.1-8.6,3.9
				c-4.4,7.4,5.1,15.1,10.8,9.6c2.1-2,2.2-5.3,0.2-7.4c-1.6-1.7-4.1-2.1-6.1-1.1c-2.1,0.9-3,3.3-2.1,5.3c0.8,1.9,2.9,2.9,4.9,2.3
				c3.1-0.9,2.7-5.1,0.3-4.9c-0.9,0-0.8,0.8-0.9,1.4c2.5-2.6,3.6,3.4-0.7,3.1c-4.8-0.3-3.6-8.2,1.8-7.2c6.2,1,4.7,10.8-2.5,10.1
				c-4,0.1-7.3-3.1-7.4-7c-0.1-4,3.1-7.3,7-7.4c4.7-0.9,9.3,2.2,10.2,6.9c0.8,3.9-1.3,7.9-4.9,9.6c-6.1,3.2-11.7-1.2-12.5-1.1
				c-0.8,0.1-7.2,6.8-11.7,11.2H531v26.4L706.3,367.5z M684.3,322.4c-0.1,0-0.3-0.1-0.3-0.3c0-0.1,0.1-0.3,0.3-0.3c0,0,0,0,0,0
				c0.1,0,0.3,0.1,0.3,0.3C684.5,322.3,684.4,322.4,684.3,322.4C684.3,322.4,684.3,322.4,684.3,322.4 M647,322.4
				c-0.1,0-0.3-0.1-0.3-0.3c0-0.1,0.1-0.3,0.3-0.3c0,0,0,0,0,0c0.1,0,0.3,0.1,0.3,0.3C647.2,322.3,647.1,322.4,647,322.4
				C647,322.4,647,322.4,647,322.4 M609.7,322.4c-0.1,0-0.3-0.1-0.3-0.3c0-0.1,0.1-0.3,0.3-0.3c0,0,0,0,0,0c0.1,0,0.3,0.1,0.3,0.3
				C609.9,322.3,609.8,322.4,609.7,322.4C609.7,322.4,609.7,322.4,609.7,322.4 M572.4,322.4c-0.1,0-0.3-0.1-0.3-0.3
				c0-0.1,0.1-0.3,0.3-0.3c0,0,0,0,0,0c0.1,0,0.3,0.1,0.3,0.3C572.7,322.3,572.6,322.4,572.4,322.4
				C572.4,322.4,572.4,322.4,572.4,322.4"/>
		</g>
		<g>
			
				<linearGradient id="SVGID_1_" gradientUnits="userSpaceOnUse" x1="541.5099" y1="-345.8718" x2="950.5099" y2="-345.8718" gradientTransform="matrix(1 0 0 1 0 824)">
				<stop  offset="0.1143" style="stop-color:#234D9A"/>
				<stop  offset="1" style="stop-color:#43B2E6"/>
			</linearGradient>
			<ellipse class="st34" cx="746" cy="478.1" rx="204.5" ry="205.5"/>
			<g>
				<g>
					<g>
						<path class="st5" d="M926,450.8c-1.8-4-4-7.3-6.9-10.6c-2.9-2.9-6.5-5.5-10.6-6.9c-4-1.8-8.4-2.5-12.7-2.5
							c-4.7,0-8.7,0.7-12.7,2.5c-1.8,0.7-3.6,1.8-5.5,2.9s-3.3,2.5-4.7,4c-1.1,1.1-1.8,1.8-2.5,2.9s-1.8,2.5-2.5,3.6
							s-2.5,4.7-3.3,6.9c0-4,0.7-10.2,3.3-13.5v-29.5c0-1.8-0.7-3.6-2.2-4.7c-1.5-1.5-2.9-2.2-4.7-2.2s-3.6,0.7-4.7,1.8
							c-1.5,1.5-1.8,2.9-1.8,4.7v26.2c-2.9-1.8-5.8-3.3-9.1-4.4s-6.5-1.5-10.2-1.5c-4.4,0-8.7,0.7-12.7,2.5s-7.3,4-10.6,6.9
							c-2.9,2.9-5.5,6.5-6.9,10.6c0,0.4-0.4,0.7-0.4,0.7c0-0.4-0.4-0.7-0.4-0.7c-1.8-4-4-7.3-6.9-10.6c-2.9-2.9-6.5-5.5-10.6-6.9
							c-4-1.8-8.4-2.5-12.7-2.5c-4.7,0-8.7,0.7-12.7,2.5s-7.3,4-10.6,6.9c-2.9,2.9-5.5,6.5-6.9,10.6c0,0.4-0.4,0.7-0.4,0.7
							c0-0.4-0.4-0.7-0.4-0.7c-1.8-4-4-7.3-6.9-10.6c-2.9-2.9-6.5-5.5-10.6-6.9c-4-1.8-8.4-2.5-12.7-2.5c-4.7,0-8.7,0.7-12.7,2.5
							s-7.3,4-10.6,6.9c-2.9,2.9-5.5,6.5-6.9,10.6c0,0.4-0.4,0.4-0.4,0.7c0-0.4-0.4-0.4-0.4-0.7c-1.8-4-4-7.3-6.9-10.6
							c-2.9-2.9-6.5-5.5-10.6-6.9c-4-1.8-8.4-2.5-12.7-2.5c-4.7,0-8.7,0.7-12.7,2.5c-3.6,1.5-6.9,3.6-9.8,6.2v-0.8
							c0-4-3.3-6.9-6.9-6.9H573c-4,0-6.9,3.3-6.9,6.9c0,4,3.3,6.9,6.9,6.9h38.6l-45.2,61.2c-0.7,1.5-1.5,2.9-1.5,4.4v4.7
							c0,4,3.3,6.9,6.9,6.9h52.4c3.6,0,6.5-2.9,6.9-6.5c2.2,1.8,4.7,3.3,7.7,4.7c4,1.8,8.4,2.5,12.7,2.5c6.9,0,12.7-1.8,18.2-5.5
							c4.4-2.9,7.7-6.5,10.2-10.9v9.5c0,1.8,0.7,3.6,1.8,4.7c1.5,1.5,2.9,1.8,4.7,1.8s3.3-0.7,4.7-1.8c1.5-1.5,2.2-2.9,2.2-4.7
							v-24.4l0,0l0,0c0,0-15.3,0-17.1,0c-1.5,0-2.9,0.4-4,1.1s-1.8,1.8-2.5,3.3l-1.1,2.2c-1.5,3.3-4,6.2-6.9,8s-6.6,2.9-10.6,2.9
							c-2.5,0-5.1-0.4-7.3-1.5s-4.4-2.2-6.2-4s-2.9-3.6-4-6.2c-1.1-2.2-1.5-4.7-1.5-7.3v-6.2h44.1h3.3h13.8v-20.8
							c0-2.5,0.4-5.1,1.5-7.3s2.2-4.4,4-6.2c1.8-1.8,3.6-3.3,6.2-4c2.2-1.1,4.7-1.5,7.3-1.5c2.5,0,5.1,0.4,7.3,1.5s4.4,2.2,6.2,4
							s2.9,3.6,4,6.2c1.1,2.2,1.5,4.7,1.5,7.3v52.8c0,1.8,0.7,3.6,1.8,4.7c1.5,1.5,2.9,1.8,4.7,1.8s3.3-0.7,4.7-1.8
							c1.5-1.5,2.2-2.9,2.2-4.7v-9.5c1.5,2.5,3.3,4.7,5.1,6.9c2.9,2.9,6.5,5.5,10.6,6.9c4,1.8,8.4,2.5,12.7,2.5s8.7-0.7,12.7-2.5
							s7.7-4,10.6-6.9c2.9-2.9,5.5-6.5,6.9-10.6c0-0.4,0.4-0.4,0.4-0.7c0,0.4,0.4,0.4,0.4,0.7c1.8,4,4,7.3,6.9,10.6
							c2.9,2.9,6.5,5.5,10.6,6.9c4,1.8,8,2.5,12.7,2.5c4.4,0,8.7-0.7,12.7-2.5s7.3-4,10.6-6.9c2.9-2.9,5.5-6.5,6.9-10.6
							c0-0.4,0.4-0.7,0.4-0.7c0,0.4,0.4,0.7,0.4,0.7c1.8,4,4,7.3,6.9,10.6c2.9,2.9,6.5,5.5,10.6,6.9c4,1.8,8.4,2.5,12.7,2.5
							s8.7-0.7,12.7-2.5s7.7-4,10.6-6.9c2.9-2.9,5.5-6.5,6.9-10.6c1.8-4,2.5-8.4,2.5-12.7v-26.9C928.9,458.8,927.8,454.8,926,450.8z
							 M582.6,508.3l36.8-49.5c-0.4,1.5-0.4,2.9-0.4,4.4v26.9c0,4.4,0.7,8.7,2.5,12.7c0.7,1.8,1.8,3.6,2.9,5.1l0,0L582.6,508.3
							L582.6,508.3z M670.8,470.4h-38.2v-6.9c0-2.5,0.4-5.1,1.5-7.3s2.2-4.4,4-6.2c1.8-1.8,3.6-3.3,6.2-4c2.2-1.1,4.7-1.5,7.3-1.5
							s5.1,0.4,7.3,1.5s4.4,2.2,6.2,4s2.9,3.6,4,6.2c1.1,2.2,1.5,4.7,1.5,7.3C670.8,463.5,670.8,470.4,670.8,470.4z M792.7,490.5
							c0,2.5-0.4,5.1-1.5,7.3s-2.2,4.4-4,6.2c-1.8,1.8-3.6,3.3-6.2,4c-2.2,1.1-4.7,1.5-7.3,1.5s-5.1-0.4-7.3-1.5s-4.4-2.2-6.2-4
							s-2.9-3.6-4-6.2c-1.1-2.5-1.5-4.7-1.5-7.3v-26.9c0-2.5,0.4-5.1,1.5-7.3s2.2-4.4,4-6.2c1.8-1.8,3.6-3.3,6.2-4
							c2.2-1.1,4.7-1.5,7.3-1.5s5.1,0.4,7.3,1.5s4.4,2.2,6.2,4s2.9,3.6,4,6.2c1.1,2.2,1.5,4.7,1.5,7.3V490.5z M853.9,490.5
							c0,2.5-0.4,5.1-1.5,7.3s-2.5,4.4-4,6.2c-1.8,1.8-3.6,3.3-6.2,4c-2.2,1.1-4.7,1.5-7.3,1.5s-5.1-0.4-7.3-1.5s-4.4-2.2-6.2-4
							s-3.3-3.6-4-6.2s-1.5-4.7-1.5-7.3v-26.9c0-2.5,0.4-5.1,1.5-7.3s2.5-4.4,4-6.2c1.8-1.8,3.6-3.3,6.2-4c2.2-1.1,4.7-1.5,7.3-1.5
							s5.1,0.4,7.3,1.5s4.4,2.2,6.2,4s3.3,3.6,4,6.2c1.1,2.2,1.5,4.7,1.5,7.3V490.5L853.9,490.5z M915.1,490.5
							c0,2.5-0.4,5.1-1.5,7.3c-1.1,2.2-2.2,4.4-4,6.2c-1.8,1.8-3.6,3.3-6.2,4c-2.2,1.1-4.7,1.5-7.3,1.5c-2.5,0-5.1-0.4-7.3-1.5
							s-4.4-2.2-6.2-4s-2.9-3.6-4-6.2s-1.5-4.7-1.5-7.3v-26.9c0-2.5,0.4-5.1,1.5-7.3s2.2-4.4,4-6.2c1.8-1.8,3.6-3.3,6.2-4
							c2.2-1.1,4.7-1.5,7.3-1.5c2.5,0,5.1,0.4,7.3,1.5s4.4,2.2,6.2,4s2.9,3.6,4,6.2c1.1,2.2,1.5,4.7,1.5,7.3V490.5L915.1,490.5z"/>
					</g>
				</g>
			</g>
		</g>
	</g>
</g>
</svg>
