<?xml version="1.0" encoding="utf-8"?>
<!-- Generator: Adobe Illustrator 26.0.3, SVG Export Plug-In . SVG Version: 6.00 Build 0)  -->
<svg version="1.1" id="Layer_1" xmlns="http://www.w3.org/2000/svg" xmlns:xlink="http://www.w3.org/1999/xlink" x="0px" y="0px"
	 viewBox="0 0 100 100" style="enable-background:new 0 0 100 100;" xml:space="preserve">
<style type="text/css">
	.st0{fill:url(#SVGID_1_);}
	.st1{fill:#FFFFFF;}
</style>
<linearGradient id="SVGID_1_" gradientUnits="userSpaceOnUse" x1="0.3199" y1="50" x2="99.6801" y2="50">
	<stop  offset="0.1143" style="stop-color:#234C9B"/>
	<stop  offset="1" style="stop-color:#45B3E6"/>
</linearGradient>
<ellipse class="st0" cx="50" cy="50" rx="49.7" ry="49.9"/>
<g>
	<g>
		<g>
			<path class="st1" d="M92.9,46.9c-0.4-1-1-1.7-1.7-2.5c-0.7-0.7-1.6-1.3-2.5-1.7c-1-0.4-2-0.6-3.1-0.6c-1.1,0-2.1,0.2-3.1,0.6
				c-0.4,0.2-0.9,0.4-1.3,0.7s-0.8,0.6-1.1,1c-0.3,0.3-0.4,0.4-0.6,0.7c-0.2,0.3-0.4,0.6-0.6,0.9s-0.6,1.1-0.8,1.7
				c0-1,0.2-2.4,0.8-3.2v-7.1c0-0.4-0.2-0.9-0.5-1.1c-0.3-0.3-0.7-0.5-1.1-0.5s-0.9,0.2-1.1,0.4c-0.3,0.3-0.4,0.7-0.4,1.1v6.3
				c-0.7-0.4-1.4-0.8-2.2-1s-1.6-0.3-2.4-0.3c-1,0-2.1,0.2-3.1,0.6c-1,0.4-1.7,1-2.5,1.7c-0.7,0.7-1.3,1.6-1.7,2.5
				c0,0.1-0.1,0.2-0.1,0.2c0-0.1-0.1-0.2-0.1-0.2c-0.4-1-1-1.7-1.7-2.5c-0.7-0.7-1.6-1.3-2.5-1.7c-1-0.4-2-0.6-3.1-0.6
				c-1.1,0-2.1,0.2-3.1,0.6c-1,0.4-1.7,1-2.5,1.7c-0.7,0.7-1.3,1.6-1.7,2.5c0,0.1-0.1,0.2-0.1,0.2c0-0.1-0.1-0.2-0.1-0.2
				c-0.4-1-1-1.7-1.7-2.5c-0.7-0.7-1.6-1.3-2.5-1.7c-1-0.4-2-0.6-3.1-0.6c-1.1,0-2.1,0.2-3.1,0.6c-1,0.4-1.7,1-2.5,1.7
				c-0.7,0.7-1.3,1.6-1.7,2.5c0,0.1-0.1,0.1-0.1,0.2c0-0.1-0.1-0.1-0.1-0.2c-0.4-1-1-1.7-1.7-2.5c-0.7-0.7-1.6-1.3-2.5-1.7
				c-1-0.4-2-0.6-3.1-0.6c-1.1,0-2.1,0.2-3.1,0.6c-0.9,0.3-1.7,0.9-2.4,1.5V44c0-1-0.8-1.7-1.7-1.7H8.4c-1,0-1.7,0.8-1.7,1.7
				c0,1,0.8,1.7,1.7,1.7h9.2L6.8,60.3c-0.2,0.3-0.3,0.7-0.3,1v1.1c0,1,0.8,1.7,1.7,1.7h12.5c0.9,0,1.6-0.7,1.7-1.6
				c0.5,0.4,1.1,0.8,1.8,1.1c1,0.4,2,0.6,3.1,0.6c1.7,0,3.1-0.4,4.4-1.3c1-0.7,1.8-1.6,2.4-2.6v2.3c0,0.4,0.2,0.9,0.4,1.1
				c0.3,0.3,0.7,0.4,1.1,0.4s0.8-0.2,1.1-0.4c0.3-0.3,0.5-0.7,0.5-1.1v-5.8l0,0l0,0c0,0-3.7,0-4.1,0c-0.3,0-0.7,0.1-1,0.3
				c-0.3,0.2-0.4,0.4-0.6,0.8l-0.3,0.5c-0.3,0.8-1,1.5-1.7,1.9C29,60.7,28.1,61,27.1,61c-0.6,0-1.2-0.1-1.7-0.3s-1-0.5-1.5-1
				c-0.4-0.4-0.7-0.9-1-1.5c-0.3-0.5-0.3-1.1-0.3-1.7V55h10.5h0.8h3.3v-5c0-0.6,0.1-1.2,0.3-1.7c0.3-0.5,0.5-1,1-1.5s0.9-0.8,1.5-1
				c0.5-0.3,1.1-0.3,1.7-0.3s1.2,0.1,1.7,0.3c0.5,0.3,1,0.5,1.5,1s0.7,0.9,1,1.5c0.3,0.5,0.3,1.1,0.3,1.7v12.6
				c0,0.4,0.2,0.9,0.4,1.1c0.3,0.3,0.7,0.4,1.1,0.4c0.4,0,0.8-0.2,1.1-0.4c0.3-0.3,0.5-0.7,0.5-1.1v-2.3c0.3,0.6,0.8,1.1,1.2,1.7
				c0.7,0.7,1.6,1.3,2.5,1.7c1,0.4,2,0.6,3.1,0.6s2.1-0.2,3.1-0.6s1.8-1,2.5-1.7c0.7-0.7,1.3-1.6,1.7-2.5c0-0.1,0.1-0.1,0.1-0.2
				c0,0.1,0.1,0.1,0.1,0.2c0.4,1,1,1.7,1.7,2.5c0.7,0.7,1.6,1.3,2.5,1.7c1,0.4,1.9,0.6,3.1,0.6c1,0,2.1-0.2,3.1-0.6s1.7-1,2.5-1.7
				c0.7-0.7,1.3-1.6,1.7-2.5c0-0.1,0.1-0.2,0.1-0.2c0,0.1,0.1,0.2,0.1,0.2c0.4,1,1,1.7,1.7,2.5c0.7,0.7,1.6,1.3,2.5,1.7
				c1,0.4,2,0.6,3.1,0.6s2.1-0.2,3.1-0.6s1.8-1,2.5-1.7c0.7-0.7,1.3-1.6,1.7-2.5c0.4-1,0.6-2,0.6-3.1V50
				C93.6,48.9,93.4,47.9,92.9,46.9z M10.8,60.7l8.8-11.9c-0.1,0.3-0.1,0.7-0.1,1v6.4c0,1,0.2,2.1,0.6,3.1c0.2,0.4,0.4,0.9,0.7,1.2
				l0,0L10.8,60.7L10.8,60.7z M31.8,51.7h-9.2V50c0-0.6,0.1-1.2,0.3-1.7c0.3-0.5,0.5-1,1-1.5c0.4-0.4,0.9-0.8,1.5-1
				c0.5-0.3,1.1-0.3,1.7-0.3c0.6,0,1.2,0.1,1.7,0.3s1,0.5,1.5,1s0.7,0.9,1,1.5c0.3,0.5,0.3,1.1,0.3,1.7C31.8,50,31.8,51.7,31.8,51.7
				z M61,56.4c0,0.6-0.1,1.2-0.3,1.7c-0.3,0.5-0.5,1-1,1.5c-0.4,0.4-0.9,0.8-1.5,1c-0.5,0.3-1.1,0.3-1.7,0.3s-1.2-0.1-1.7-0.3
				c-0.5-0.3-1-0.5-1.5-1c-0.4-0.4-0.7-0.9-1-1.5S52,57.1,52,56.4V50c0-0.6,0.1-1.2,0.3-1.7c0.3-0.5,0.5-1,1-1.5s0.9-0.8,1.5-1
				c0.5-0.3,1.1-0.3,1.7-0.3s1.2,0.1,1.7,0.3s1,0.5,1.5,1s0.7,0.9,1,1.5C61,48.8,61,49.4,61,50V56.4z M75.7,56.4
				c0,0.6-0.1,1.2-0.3,1.7c-0.3,0.5-0.6,1-1,1.5c-0.4,0.4-0.9,0.8-1.5,1c-0.5,0.3-1.1,0.3-1.7,0.3s-1.2-0.1-1.7-0.3s-1-0.5-1.5-1
				c-0.4-0.4-0.8-0.9-1-1.5c-0.2-0.6-0.3-1.1-0.3-1.7V50c0-0.6,0.1-1.2,0.3-1.7c0.3-0.5,0.6-1,1-1.5c0.4-0.4,0.9-0.8,1.5-1
				c0.5-0.3,1.1-0.3,1.7-0.3s1.2,0.1,1.7,0.3s1,0.5,1.5,1s0.8,0.9,1,1.5c0.3,0.5,0.3,1.1,0.3,1.7V56.4L75.7,56.4z M90.3,56.4
				c0,0.6-0.1,1.2-0.3,1.7c-0.3,0.5-0.5,1-1,1.5c-0.4,0.4-0.9,0.8-1.5,1C87,60.9,86.4,61,85.8,61s-1.2-0.1-1.7-0.3s-1-0.5-1.5-1
				c-0.4-0.4-0.7-0.9-1-1.5s-0.3-1.1-0.3-1.7V50c0-0.6,0.1-1.2,0.3-1.7c0.3-0.5,0.5-1,1-1.5s0.9-0.8,1.5-1c0.5-0.3,1.1-0.3,1.7-0.3
				s1.2,0.1,1.7,0.3s1,0.5,1.5,1s0.7,0.9,1,1.5c0.3,0.5,0.3,1.1,0.3,1.7V56.4L90.3,56.4z"/>
		</g>
	</g>
</g>
</svg>
